<?xml version="1.0" encoding="UTF-8"?>
<svg xmlns="http://www.w3.org/2000/svg" xmlns:xlink="http://www.w3.org/1999/xlink" version="1.2" >
<font id="Europa-Bold">
<font-face  font-family="Europa-Bold" units-per-em="1000" ascent="782" descent="-218" font-style="normal" font-weight="700" font-stretch="normal" cap-height="700" x-height="474" underline-position="-58" underline-thickness="38" />
<missing-glyph  horiz-adv-x="600" d="M36 700 L564 700 L564 0 L36 0 L36 700 Z M111 72 L489 72 L489 628 L111 628 L111 72 Z M347 432 Q347 451 332.5 464 Q318 477 298 477 Q280 477 268.5 469 Q257 461 249 452 Q240 441 235 427 L180 452 Q188 476 204 495 Q218 512 240.5 525.5 Q263 539 298 539 Q322 539 342.5 530.5 Q363 522 378.5 507.5 Q394 493 402.5 473.5 Q411 454 411 432 Q411 397 394.5 376 Q378 355 352 333 Q338 320 335.5 315 Q333 310 333 295 L333 264 L268 264 L268 308 Q268 321 270.5 329.5 Q273 338 279 345 Q285 352 294 360 Q303 368 317 379 Q332 393 339.5 403 Q347 413 347 432 Z M260 192 Q260 209 271.5 220.5 Q283 232 300 232 Q317 232 329.5 220.5 Q342 209 342 192 Q342 175 329.5 163 Q317 151 300 151 Q283 151 271.5 163 Q260 175 260 192 Z " />
<glyph glyph-name="space" unicode="&#x20;" horiz-adv-x="294" d="" />
<glyph glyph-name="nbspace" unicode="&#xa0;" horiz-adv-x="294" d="" />
<glyph glyph-name="numbersign" unicode="&#x23;" horiz-adv-x="634" d="M69 506 L198 506 L228 717 L315 705 L287 506 L396 506 L426 717 L513 705 L485 506 L602 506 L602 418 L473 418 L456 298 L572 298 L572 210 L444 210 L412 -17 L324 -5 L354 210 L246 210 L214 -17 L126 -5 L156 210 L39 210 L39 298 L169 298 L186 418 L69 418 L69 506 Z M258 298 L367 298 L384 418 L275 418 L258 298 Z " />
<glyph glyph-name="percent" unicode="&#x25;" horiz-adv-x="712" d="M184 712 Q217 712 246.5 699.5 Q276 687 298 665.5 Q320 644 333 615 Q346 586 346 553 Q346 520 333 491 Q320 462 298 440.5 Q276 419 246.5 406.5 Q217 394 184 394 Q151 394 121.5 406.5 Q92 419 70 440.5 Q48 462 35 491 Q22 520 22 553 Q22 586 35 615 Q48 644 70 665.5 Q92 687 121.5 699.5 Q151 712 184 712 Z M184 471 Q219 471 242 494.5 Q265 518 265 553 Q265 588 242 611.5 Q219 635 184 635 Q148 635 125 611.5 Q102 588 102 553 Q102 518 125 494.5 Q148 471 184 471 Z M528 306 Q561 306 590.5 293.5 Q620 281 642 259.5 Q664 238 677 209 Q690 180 690 147 Q690 114 677 85 Q664 56 642 34.5 Q620 13 590.5 0.5 Q561 -12 528 -12 Q495 -12 465.5 0.5 Q436 13 414 34.5 Q392 56 379 85 Q366 114 366 147 Q366 180 379 209 Q392 238 414 259.5 Q436 281 465.5 293.5 Q495 306 528 306 Z M528 65 Q563 65 586 88.5 Q609 112 609 147 Q609 182 586 205.5 Q563 229 528 229 Q492 229 469 205.5 Q446 182 446 147 Q446 112 469 88.5 Q492 65 528 65 Z M560 731 L617 692 L146 -32 L89 7 L560 731 Z " />
<glyph glyph-name="perthousand" unicode="&#x2030;" horiz-adv-x="1072" d="M184 712 Q217 712 246.5 699.5 Q276 687 298 665.5 Q320 644 333 615 Q346 586 346 553 Q346 520 333 491 Q320 462 298 440.5 Q276 419 246.5 406.5 Q217 394 184 394 Q151 394 121.5 406.5 Q92 419 70 440.5 Q48 462 35 491 Q22 520 22 553 Q22 586 35 615 Q48 644 70 665.5 Q92 687 121.5 699.5 Q151 712 184 712 Z M184 471 Q218 471 241.5 494.5 Q265 518 265 553 Q265 588 241.5 611.5 Q218 635 184 635 Q149 635 125.5 611.5 Q102 588 102 553 Q102 518 125.5 494.5 Q149 471 184 471 Z M528 306 Q561 306 590.5 293.5 Q620 281 642 259.5 Q664 238 677 209 Q690 180 690 147 Q690 114 677 85 Q664 56 642 34.5 Q620 13 590.5 0.5 Q561 -12 528 -12 Q495 -12 465.5 0.5 Q436 13 414 34.5 Q392 56 379 85 Q366 114 366 147 Q366 180 379 209 Q392 238 414 259.5 Q436 281 465.5 293.5 Q495 306 528 306 Z M528 65 Q562 65 585.5 88.5 Q609 112 609 147 Q609 182 585.5 205.5 Q562 229 528 229 Q493 229 469.5 205.5 Q446 182 446 147 Q446 112 469.5 88.5 Q493 65 528 65 Z M888 306 Q921 306 950.5 293.5 Q980 281 1002 259.5 Q1024 238 1037 209 Q1050 180 1050 147 Q1050 114 1037 85 Q1024 56 1002 34.5 Q980 13 950.5 0.5 Q921 -12 888 -12 Q855 -12 825.5 0.5 Q796 13 774 34.5 Q752 56 739 85 Q726 114 726 147 Q726 180 739 209 Q752 238 774 259.5 Q796 281 825.5 293.5 Q855 306 888 306 Z M888 65 Q922 65 945.5 88.5 Q969 112 969 147 Q969 182 945.5 205.5 Q922 229 888 229 Q853 229 829.5 205.5 Q806 182 806 147 Q806 112 829.5 88.5 Q853 65 888 65 Z M560 731 L617 692 L146 -32 L89 7 L560 731 Z " />
<glyph glyph-name="at" unicode="&#x40;" horiz-adv-x="799" d="M602 35 Q571 18 522.5 3 Q474 -12 410 -12 Q335 -12 269 16.5 Q203 45 154 94 Q105 143 76.5 209 Q48 275 48 350 Q48 425 76.5 491 Q105 557 154 606 Q203 655 269 683.5 Q335 712 410 712 Q485 712 547.5 684.5 Q610 657 655.5 610 Q701 563 726 500 Q751 437 751 365 Q751 298 736 256.5 Q721 215 699 191.5 Q677 168 651 160 Q625 152 603 152 Q572 152 541.5 167.5 Q511 183 501 218 Q489 199 471 185 Q456 172 432 162 Q408 152 376 152 Q350 152 325.5 161 Q301 170 281.5 186.5 Q262 203 250.5 227 Q239 251 239 281 Q239 309 251 332 Q263 355 283 371.5 Q303 388 328 397 Q353 406 379 406 Q405 406 425 400.5 Q445 395 459 389 Q475 381 485 372 L485 389 Q485 409 477.5 423.5 Q470 438 458 447.5 Q446 457 431 461.5 Q416 466 401 466 Q378 466 359.5 460 Q341 454 327 447 Q310 439 297 429 L257 501 Q276 513 299 524 Q319 533 345.5 540.5 Q372 548 404 548 Q441 548 471.5 538 Q502 528 524 509 Q546 490 558 463 Q570 436 570 403 L570 282 Q570 259 578 244.5 Q586 230 606 230 Q614 230 624 232.5 Q634 235 643 247.5 Q652 260 658 287.5 Q664 315 664 365 Q664 421 646 469 Q628 517 595 552.5 Q562 588 515 608 Q468 628 410 628 Q352 628 301.5 606.5 Q251 585 214 547.5 Q177 510 156 459.5 Q135 409 135 350 Q135 292 156 241 Q177 190 214 152.5 Q251 115 301.5 93.5 Q352 72 410 72 Q467 72 504 84 Q541 96 567 110 L602 35 Z M401 232 Q423 232 438.5 238 Q454 244 465 252 Q477 261 485 273 L485 302 Q477 310 465 316 Q454 321 438.5 325.5 Q423 330 401 330 Q366 330 347.5 316.5 Q329 303 329 281 Q329 260 347.5 246 Q366 232 401 232 Z " />
<glyph glyph-name="ampersand" unicode="&#x26;" horiz-adv-x="695" d="M622 384 Q622 325 615.5 284.5 Q609 244 601 218 Q592 188 581 170 L695 70 L625 -12 L518 83 Q481 41 420.5 14.5 Q360 -12 287 -12 Q235 -12 192 4 Q149 20 118.5 45.5 Q88 71 71 104 Q54 137 54 170 Q54 195 60 217 Q66 239 81 262.5 Q96 286 123 311.5 Q150 337 192 369 Q137 419 115.5 457 Q94 495 94 533 Q94 569 108 601.5 Q122 634 147 658.5 Q172 683 207.5 697.5 Q243 712 285 712 Q327 712 362.5 697.5 Q398 683 423 658.5 Q448 634 462 601.5 Q476 569 476 533 Q476 512 470.5 493 Q465 474 452.5 454.5 Q440 435 418 412.5 Q396 390 363 362 L492 248 Q495 255 499 273 Q502 288 504.5 314.5 Q507 341 507 384 L622 384 Z M287 98 Q332 98 371 115.5 Q410 133 434 157 L275 296 Q243 269 223.5 251.5 Q204 234 193 221.5 Q182 209 178 199 Q174 189 174 177 Q174 158 184 143.5 Q194 129 209.5 119 Q225 109 245.5 103.5 Q266 98 287 98 Z M210 533 Q210 507 228.5 486.5 Q247 466 282 433 Q307 454 322.5 469.5 Q338 485 346 496 Q354 507 356.5 516 Q359 525 359 533 Q359 549 352 562 Q345 575 334.5 584 Q324 593 311 597.5 Q298 602 285 602 Q256 602 233 583 Q210 564 210 533 Z " />
<glyph glyph-name="question" unicode="&#x3f;" horiz-adv-x="489" d="M329 512 Q329 530 321.5 545.5 Q314 561 301 572.5 Q288 584 271.5 591 Q255 598 236 598 Q204 598 181.5 583 Q159 568 145 550 Q128 529 118 502 L16 549 Q31 594 61 630 Q73 645 90 660 Q107 675 128.5 686.5 Q150 698 177 705 Q204 712 236 712 Q281 712 320 696.5 Q359 681 387.5 654 Q416 627 432.5 590.5 Q449 554 449 512 Q449 479 441 453.5 Q433 428 418 406.5 Q403 385 382.5 365.5 Q362 346 338 325 Q325 313 317.5 306 Q310 299 306.5 292.5 Q303 286 302 277.5 Q301 269 301 256 L301 205 L182 205 L182 279 Q182 303 187 319.5 Q192 336 202.5 350 Q213 364 230.5 378.5 Q248 393 272 414 Q300 438 314.5 457.5 Q329 477 329 512 Z M163 67 Q163 100 186 123 Q209 146 242 146 Q275 146 298 123 Q321 100 321 67 Q321 34 298 11 Q275 -12 242 -12 Q209 -12 186 11 Q163 34 163 67 Z " />
<glyph glyph-name="questiondown" unicode="&#xbf;" horiz-adv-x="489" d="M160 -38 Q160 -56 167.5 -71.5 Q175 -87 187.5 -98.5 Q200 -110 217 -117 Q234 -124 253 -124 Q285 -124 307.5 -109 Q330 -94 344 -76 Q361 -55 371 -28 L473 -75 Q456 -121 427 -157 Q401 -188 359 -213 Q317 -238 253 -238 Q208 -238 169 -222.5 Q130 -207 101.5 -180 Q73 -153 56.5 -116.5 Q40 -80 40 -38 Q40 -5 48 20.5 Q56 46 71 67.5 Q86 89 106.5 108.5 Q127 128 151 149 Q164 161 171.5 168 Q179 175 182.5 181.5 Q186 188 187 196 Q188 204 188 218 L188 269 L307 269 L307 195 Q307 171 302 154.5 Q297 138 286.5 124 Q276 110 258.5 95.5 Q241 81 217 60 Q189 36 174.5 16.5 Q160 -3 160 -38 Z M326 407 Q326 374 303 351 Q280 328 247 328 Q214 328 191 351 Q168 374 168 407 Q168 440 191 463 Q214 486 247 486 Q280 486 303 463 Q326 440 326 407 Z " />
<glyph glyph-name="exclam" unicode="&#x21;" horiz-adv-x="306" d="M210 200 L96 200 L91 700 L215 700 L210 200 Z M74 67 Q74 100 97 123 Q120 146 153 146 Q186 146 209 123 Q232 100 232 67 Q232 34 209 11 Q186 -12 153 -12 Q120 -12 97 11 Q74 34 74 67 Z " />
<glyph glyph-name="exclamdown" unicode="&#xa1;" horiz-adv-x="306" d="M215 -226 L91 -226 L96 274 L210 274 L215 -226 Z M74 407 Q74 440 97 463 Q120 486 153 486 Q186 486 209 463 Q232 440 232 407 Q232 374 209 351 Q186 328 153 328 Q120 328 97 351 Q74 374 74 407 Z " />
<glyph glyph-name="period" unicode="&#x2e;" horiz-adv-x="262" d="M52 67 Q52 100 75 123 Q98 146 131 146 Q164 146 187 123 Q210 100 210 67 Q210 34 187 11 Q164 -12 131 -12 Q98 -12 75 11 Q52 34 52 67 Z " />
<glyph glyph-name="colon" unicode="&#x3a;" horiz-adv-x="274" d="M58 67 Q58 100 81 123 Q104 146 137 146 Q170 146 193 123 Q216 100 216 67 Q216 34 193 11 Q170 -12 137 -12 Q104 -12 81 11 Q58 34 58 67 Z M58 407 Q58 440 81 463 Q104 486 137 486 Q170 486 193 463 Q216 440 216 407 Q216 374 193 351 Q170 328 137 328 Q104 328 81 351 Q58 374 58 407 Z " />
<glyph glyph-name="ellipsis" unicode="&#x2026;" horiz-adv-x="1000" d="M100 67 Q100 100 123 123 Q146 146 179 146 Q212 146 235 123 Q258 100 258 67 Q258 34 235 11 Q212 -12 179 -12 Q146 -12 123 11 Q100 34 100 67 Z M420 67 Q420 100 443 123 Q466 146 499 146 Q532 146 555 123 Q578 100 578 67 Q578 34 555 11 Q532 -12 499 -12 Q466 -12 443 11 Q420 34 420 67 Z M741 67 Q741 100 764 123 Q787 146 820 146 Q853 146 876 123 Q899 100 899 67 Q899 34 876 11 Q853 -12 820 -12 Q787 -12 764 11 Q741 34 741 67 Z " />
<glyph glyph-name="comma" unicode="&#x2c;" horiz-adv-x="241" d="M199 62 L112 -171 L20 -139 L99 97 L199 62 Z " />
<glyph glyph-name="semicolon" unicode="&#x3b;" horiz-adv-x="243" d="M42 406 Q42 439 65.5 462.5 Q89 486 121 486 Q154 486 177.5 462.5 Q201 439 201 406 Q201 374 177.5 350.5 Q154 327 121 327 Q89 327 65.5 350.5 Q42 374 42 406 Z M199 62 L112 -171 L20 -139 L99 97 L199 62 Z " />
<glyph glyph-name="asciitilde" unicode="&#x7e;" horiz-adv-x="489" d="M20 311 Q33 342 54 367 Q72 388 100 406 Q128 424 170 424 Q192 424 212 416.5 Q232 409 250.5 400.5 Q269 392 285.5 384.5 Q302 377 317 377 Q337 377 349.5 385.5 Q362 394 370 405 Q379 417 383 433 L469 379 Q456 348 436 323 Q419 302 390.5 284.5 Q362 267 320 267 Q297 267 276 274.5 Q255 282 236.5 290.5 Q218 299 202 306.5 Q186 314 173 314 Q153 314 140 305.5 Q127 297 119 286 Q110 274 106 258 L20 311 Z " />
<glyph glyph-name="hyphen" unicode="&#x2d;" horiz-adv-x="333" d="M33 304 L300 304 L300 190 L33 190 L33 304 Z " />
<glyph glyph-name="underscore" unicode="&#x5f;" horiz-adv-x="500" d="M42 -116 L458 -116 L458 -230 L42 -230 L42 -116 Z " />
<glyph glyph-name="endash" unicode="&#x2013;" horiz-adv-x="500" d="M0 304 L500 304 L500 194 L0 194 L0 304 Z " />
<glyph glyph-name="emdash" unicode="&#x2014;" horiz-adv-x="1000" d="M0 304 L1000 304 L1000 194 L0 194 L0 304 Z " />
<glyph glyph-name="zero" unicode="0" horiz-adv-x="606" d="M304 712 Q371 712 420 682 Q469 652 501.5 602 Q534 552 550 486.5 Q566 421 566 350 Q566 279 550 213.5 Q534 148 501.5 98 Q469 48 420 18 Q371 -12 304 -12 Q237 -12 187.5 18 Q138 48 105 98 Q72 148 56 213.5 Q40 279 40 350 Q40 421 56 486.5 Q72 552 105 602 Q138 652 187.5 682 Q237 712 304 712 Z M304 100 Q340 100 367 120 Q394 140 411.5 174 Q429 208 437.5 253.5 Q446 299 446 350 Q446 401 437.5 446.5 Q429 492 411.5 526 Q394 560 367 580 Q340 600 304 600 Q268 600 241 580 Q214 560 196 526 Q178 492 169 446.5 Q160 401 160 350 Q160 299 169 253.5 Q178 208 196 174 Q214 140 241 120 Q268 100 304 100 Z " />
<glyph glyph-name="one" unicode="1" horiz-adv-x="444" d="M229 700 L328 700 L328 0 L208 0 L208 540 L85 442 L16 530 L229 700 Z " />
<glyph glyph-name="two" unicode="2" horiz-adv-x="555" d="M297 326 Q307 339 320.5 355.5 Q334 372 347 392.5 Q360 413 369 437.5 Q378 462 378 492 Q378 513 371 532.5 Q364 552 350.5 567 Q337 582 318 591 Q299 600 274 600 Q235 600 211 584 Q187 568 173 549 Q157 526 149 498 L42 537 Q57 585 88 624 Q101 640 118.5 656 Q136 672 159 684.5 Q182 697 210.5 704.5 Q239 712 274 712 Q331 712 373 694 Q415 676 442.5 646 Q470 616 484 576.5 Q498 537 498 494 Q498 461 491 433.5 Q484 406 474 384 Q464 362 453.5 346.5 Q443 331 437 322 L276 114 L501 114 L501 0 L40 0 L297 326 Z " />
<glyph glyph-name="three" unicode="3" horiz-adv-x="570" d="M386 502 Q386 544 357 572 Q328 600 281 600 Q246 600 223.5 586.5 Q201 573 187 557 Q171 539 162 515 L58 564 Q75 605 106 638 Q132 666 174.5 689 Q217 712 281 712 Q329 712 370.5 697.5 Q412 683 442 655.5 Q472 628 489.5 589 Q507 550 507 502 Q507 464 493.5 436.5 Q480 409 464 391 Q445 370 421 355 Q449 345 472 325 Q492 308 508 277 Q524 246 524 195 Q524 147 505.5 109 Q487 71 454 44 Q421 17 377 2.5 Q333 -12 282 -12 Q245 -12 215 -5 Q185 2 161 13 Q137 24 118.5 39 Q100 54 86 69 Q53 104 37 150 L135 207 Q146 177 165 153 Q182 133 210 116.5 Q238 100 282 100 Q339 100 371.5 127 Q404 154 404 195 Q404 223 393 242 Q382 261 364 272.5 Q346 284 323.5 289 Q301 294 277 294 L227 294 L227 404 L265 404 Q320 404 353 426 Q386 448 386 502 Z " />
<glyph glyph-name="four" unicode="4" horiz-adv-x="593" d="M352 700 L486 700 L486 264 L563 264 L563 152 L486 152 L486 0 L366 0 L366 152 L-4 152 L352 700 Z M368 264 L368 535 L192 264 L368 264 Z " />
<glyph glyph-name="five" unicode="5" horiz-adv-x="585" d="M542 230 Q542 168 520 122.5 Q498 77 463 47 Q428 17 383 2.5 Q338 -12 293 -12 Q223 -12 176.5 13 Q130 38 101 69 Q68 104 48 150 L148 207 Q160 177 180 153 Q197 133 224 116.5 Q251 100 293 100 Q354 100 387.5 137.5 Q421 175 421 230 Q421 287 385.5 323.5 Q350 360 272 360 Q235 360 201.5 348 Q168 336 142 322 Q111 305 84 284 L84 700 L524 700 L524 586 L204 586 L204 449 Q216 455 231 459 Q244 463 262 466.5 Q280 470 303 470 Q349 470 392.5 455.5 Q436 441 469 411.5 Q502 382 522 336.5 Q542 291 542 230 Z " />
<glyph glyph-name="six" unicode="6" horiz-adv-x="564" d="M268 459 Q272 459 276 460 Q280 461 283.5 461.5 Q287 462 292 462 Q349 462 393 441.5 Q437 421 467 388 Q497 355 513 312.5 Q529 270 529 225 Q529 180 512 137.5 Q495 95 463 62 Q431 29 385.5 8.5 Q340 -12 284 -12 Q228 -12 182.5 8.5 Q137 29 105 62 Q73 95 56 137 Q39 179 39 223 Q39 268 51.5 305.5 Q64 343 78 368 Q80 372 90.5 389.5 Q101 407 116.5 433 Q132 459 152 491.5 Q172 524 192 557 Q240 634 298 732 L398 670 L268 459 Z M284 350 Q258 350 235.5 341 Q213 332 196 316 Q179 300 169.5 276.5 Q160 253 160 225 Q160 196 169.5 173 Q179 150 196 134 Q213 118 235.5 109 Q258 100 284 100 Q310 100 332.5 109 Q355 118 372 134 Q389 150 398.5 173 Q408 196 408 225 Q408 253 398.5 276.5 Q389 300 372 316 Q355 332 332.5 341 Q310 350 284 350 Z " />
<glyph glyph-name="seven" unicode="7" horiz-adv-x="526" d="M36 700 L536 700 L161 -24 L59 29 L347 586 L36 586 L36 700 Z " />
<glyph glyph-name="eight" unicode="8" horiz-adv-x="576" d="M288 712 Q343 712 384 695 Q425 678 452.5 650 Q480 622 494 585.5 Q508 549 508 510 Q508 475 495.5 449 Q483 423 469 406 Q451 386 430 372 Q457 360 479 337 Q497 317 512.5 285.5 Q528 254 528 206 Q528 162 512 122.5 Q496 83 465 53 Q434 23 389.5 5.5 Q345 -12 288 -12 Q231 -12 186.5 5.5 Q142 23 111 53 Q80 83 64 122.5 Q48 162 48 206 Q48 254 63 285.5 Q78 317 97 337 Q118 360 146 372 Q124 386 107 406 Q92 423 80 449 Q68 475 68 510 Q68 549 82 585.5 Q96 622 123.5 650 Q151 678 192 695 Q233 712 288 712 Z M288 98 Q318 98 340 107 Q362 116 377 131.5 Q392 147 399.5 167 Q407 187 407 208 Q407 229 399.5 248.5 Q392 268 377 283 Q362 298 340 307 Q318 316 288 316 Q258 316 236 307 Q214 298 199 283 Q184 268 176.5 248.5 Q169 229 169 208 Q169 187 176.5 167 Q184 147 199 131.5 Q214 116 236 107 Q258 98 288 98 Z M389 509 Q389 552 359.5 577 Q330 602 288 602 Q246 602 216.5 577 Q187 552 187 509 Q187 466 216.5 441 Q246 416 288 416 Q330 416 359.5 441 Q389 466 389 509 Z " />
<glyph glyph-name="nine" unicode="9" horiz-adv-x="564" d="M296 241 Q292 240 288 239 Q284 238 280 238 Q276 238 272 238 Q218 238 174 258.5 Q130 279 99.5 312 Q69 345 52 387.5 Q35 430 35 475 Q35 520 52 562.5 Q69 605 101 638 Q133 671 178.5 691.5 Q224 712 280 712 Q336 712 381.5 691.5 Q427 671 459 638 Q491 605 508 563 Q525 521 525 477 Q525 432 512 395 Q499 358 485 332 Q483 328 472.5 310.5 Q462 293 446 267 Q430 241 411 209 Q392 177 372 144 Q325 67 268 -28 L168 34 L296 241 Z M280 350 Q306 350 328.5 359 Q351 368 368 384 Q385 400 394.5 423 Q404 446 404 475 Q404 503 394.5 526.5 Q385 550 368 566 Q351 582 328.5 591 Q306 600 280 600 Q254 600 231.5 591 Q209 582 192 566 Q175 550 165.5 526.5 Q156 503 156 475 Q156 446 165.5 423 Q175 400 192 384 Q209 368 231.5 359 Q254 350 280 350 Z " />
<glyph glyph-name="oneeighth" unicode="&#x215b;" horiz-adv-x="830" d="M174 700 L259 700 L259 294 L166 294 L166 583 L69 503 L16 569 L174 700 Z M608 731 L665 692 L194 -32 L137 7 L608 731 Z M639 412 Q705 412 743.5 378.5 Q782 345 782 291 Q782 270 774 255 Q766 240 757 230 Q746 219 733 210 Q749 203 762 191 Q773 180 782 162.5 Q791 145 791 119 Q791 66 750.5 30 Q710 -6 639 -6 Q568 -6 527.5 30 Q487 66 487 119 Q487 145 496 162.5 Q505 180 516 191 Q528 203 545 210 Q531 218 520 230 Q511 240 503.5 255.5 Q496 271 496 292 Q496 346 534.5 379 Q573 412 639 412 Z M639 74 Q668 74 684.5 87 Q701 100 701 121 Q701 142 684.5 155 Q668 168 639 168 Q610 168 593.5 155.5 Q577 143 577 121 Q577 100 593.5 87 Q610 74 639 74 Z M586 289 Q586 266 602 256 Q618 246 639 246 Q660 246 676 256 Q692 266 692 289 Q692 312 676 322 Q660 332 639 332 Q618 332 602 322 Q586 312 586 289 Z " />
<glyph glyph-name="onequarter" unicode="&#xbc;" horiz-adv-x="830" d="M651 731 L708 692 L237 -32 L180 7 L651 731 Z M657 406 L755 406 L755 156 L805 156 L805 78 L755 78 L755 0 L669 0 L669 78 L449 78 L657 406 Z M669 156 L669 290 L585 156 L669 156 Z M184 700 L269 700 L269 294 L176 294 L176 583 L79 503 L26 569 L184 700 Z " />
<glyph glyph-name="onethird" unicode="&#x2153;" horiz-adv-x="830" d="M606 731 L663 692 L192 -32 L135 7 L606 731 Z M699 286 Q699 306 684 318.5 Q669 331 640 331 Q621 331 608 324 Q595 317 587 309 Q577 299 571 288 L501 326 Q514 350 533 369 Q550 385 576 398.5 Q602 412 640 412 Q670 412 697.5 404 Q725 396 745 380 Q765 364 777 340.5 Q789 317 789 286 Q789 265 781.5 251 Q774 237 765 228 Q754 217 742 212 Q757 205 769 193 Q779 182 787.5 165 Q796 148 796 121 Q796 89 783 65.5 Q770 42 748.5 26 Q727 10 699.5 2 Q672 -6 642 -6 Q598 -6 570 9 Q542 24 525 42 Q505 63 494 90 L568 131 Q573 115 583 103 Q591 92 605.5 83.5 Q620 75 642 75 Q675 75 690.5 89 Q706 103 706 121 Q706 170 639 170 L617 170 L617 240 L632 240 Q656 240 677.5 250 Q699 260 699 286 Z M174 700 L259 700 L259 294 L166 294 L166 583 L69 503 L16 569 L174 700 Z " />
<glyph glyph-name="threeeighths" unicode="&#x215c;" horiz-adv-x="830" d="M626 731 L683 692 L212 -32 L155 7 L626 731 Z M229 580 Q229 600 214 612.5 Q199 625 170 625 Q151 625 138 618 Q125 611 117 603 Q107 593 101 582 L31 620 Q44 644 63 663 Q80 679 106 692.5 Q132 706 170 706 Q200 706 227.5 698 Q255 690 275 674 Q295 658 307 634.5 Q319 611 319 580 Q319 559 311.5 545 Q304 531 295 522 Q284 511 272 506 Q287 499 299 487 Q309 476 317.5 459 Q326 442 326 415 Q326 383 313 359.5 Q300 336 278.5 320 Q257 304 229.5 296 Q202 288 172 288 Q128 288 100 303 Q72 318 55 336 Q35 357 24 384 L98 425 Q103 409 113 397 Q121 386 135.5 377.5 Q150 369 172 369 Q205 369 220.5 383 Q236 397 236 415 Q236 464 169 464 L147 464 L147 534 L162 534 Q186 534 207.5 544 Q229 554 229 580 Z M651 412 Q717 412 755.5 378.5 Q794 345 794 291 Q794 270 786 255 Q778 240 769 230 Q758 219 745 210 Q761 203 774 191 Q785 180 794 162.5 Q803 145 803 119 Q803 66 762.5 30 Q722 -6 651 -6 Q580 -6 539.5 30 Q499 66 499 119 Q499 145 508 162.5 Q517 180 528 191 Q540 203 557 210 Q543 218 532 230 Q523 240 515.5 255.5 Q508 271 508 292 Q508 346 546.5 379 Q585 412 651 412 Z M651 74 Q680 74 696.5 87 Q713 100 713 121 Q713 142 696.5 155 Q680 168 651 168 Q622 168 605.5 155.5 Q589 143 589 121 Q589 100 605.5 87 Q622 74 651 74 Z M598 289 Q598 266 614 256 Q630 246 651 246 Q672 246 688 256 Q704 266 704 289 Q704 312 688 322 Q672 332 651 332 Q630 332 614 322 Q598 312 598 289 Z " />
<glyph glyph-name="onehalf" unicode="&#xbd;" horiz-adv-x="830" d="M631 184 Q637 191 645 201 Q653 211 660.5 222 Q668 233 673 245 Q678 257 678 270 Q678 295 661 311 Q644 327 615 327 Q595 327 582.5 317.5 Q570 308 562 297 Q553 284 548 268 L469 295 Q479 327 498 353 Q515 375 543 393.5 Q571 412 615 412 Q654 412 683 399.5 Q712 387 731 367 Q750 347 759.5 322 Q769 297 769 272 Q769 242 757 217 Q745 192 737 182 L662 82 L773 82 L773 0 L479 0 L631 184 Z M602 731 L659 692 L188 -32 L131 7 L602 731 Z M174 700 L259 700 L259 294 L166 294 L166 583 L69 503 L16 569 L174 700 Z " />
<glyph glyph-name="fiveeighths" unicode="&#x215d;" horiz-adv-x="830" d="M332 430 Q332 396 318.5 369.5 Q305 343 283 325 Q261 307 233 297.5 Q205 288 177 288 Q133 288 105 302 Q77 316 60 333 Q40 352 29 378 L98 424 Q104 409 115 398 Q124 388 139 380 Q154 372 177 372 Q209 372 225.5 389 Q242 406 242 430 Q242 457 223 475 Q204 493 163 493 Q141 493 121.5 488 Q102 483 86 478 Q68 472 51 464 L51 700 L326 700 L326 616 L141 616 L141 562 Q146 563 154 564 Q160 565 169.5 565.5 Q179 566 190 566 Q217 566 242.5 558 Q268 550 288 533.5 Q308 517 320 491 Q332 465 332 430 Z M620 731 L677 692 L206 -32 L149 7 L620 731 Z M651 412 Q717 412 755.5 378.5 Q794 345 794 291 Q794 270 786 255 Q778 240 769 230 Q758 219 745 210 Q761 203 774 191 Q785 180 794 162.5 Q803 145 803 119 Q803 66 762.5 30 Q722 -6 651 -6 Q580 -6 539.5 30 Q499 66 499 119 Q499 145 508 162.5 Q517 180 528 191 Q540 203 557 210 Q543 218 532 230 Q523 240 515.5 255.5 Q508 271 508 292 Q508 346 546.5 379 Q585 412 651 412 Z M651 74 Q680 74 696.5 87 Q713 100 713 121 Q713 142 696.5 155 Q680 168 651 168 Q622 168 605.5 155.5 Q589 143 589 121 Q589 100 605.5 87 Q622 74 651 74 Z M598 289 Q598 266 614 256 Q630 246 651 246 Q672 246 688 256 Q704 266 704 289 Q704 312 688 322 Q672 332 651 332 Q630 332 614 322 Q598 312 598 289 Z " />
<glyph glyph-name="twothirds" unicode="&#x2154;" horiz-adv-x="817" d="M174 478 Q180 485 188 495 Q196 505 203.5 516 Q211 527 216 539 Q221 551 221 564 Q221 589 204 605 Q187 621 158 621 Q138 621 125.5 611.5 Q113 602 105 591 Q96 578 91 562 L12 589 Q22 621 41 647 Q58 669 86 687.5 Q114 706 158 706 Q197 706 226 693.5 Q255 681 274 661 Q293 641 302.5 616 Q312 591 312 566 Q312 536 300 511 Q288 486 280 476 L205 376 L316 376 L316 294 L22 294 L174 478 Z M702 286 Q702 306 687 318.5 Q672 331 643 331 Q624 331 611 324 Q598 317 590 309 Q580 299 574 288 L504 326 Q517 350 536 369 Q553 385 579 398.5 Q605 412 643 412 Q673 412 700.5 404 Q728 396 748 380 Q768 364 780 340.5 Q792 317 792 286 Q792 265 784.5 251 Q777 237 768 228 Q757 217 745 212 Q760 205 772 193 Q782 182 790.5 165 Q799 148 799 121 Q799 89 786 65.5 Q773 42 751.5 26 Q730 10 702.5 2 Q675 -6 645 -6 Q601 -6 573 9 Q545 24 528 42 Q508 63 497 90 L571 131 Q576 115 586 103 Q594 92 608.5 83.5 Q623 75 645 75 Q678 75 693.5 89 Q709 103 709 121 Q709 170 642 170 L620 170 L620 240 L635 240 Q659 240 680.5 250 Q702 260 702 286 Z M640 731 L697 692 L226 -32 L169 7 L640 731 Z " />
<glyph glyph-name="threequarters" unicode="&#xbe;" horiz-adv-x="830" d="M661 731 L718 692 L247 -32 L190 7 L661 731 Z M245 580 Q245 600 230 612.5 Q215 625 186 625 Q167 625 154 618 Q141 611 133 603 Q123 593 117 582 L47 620 Q60 644 79 663 Q96 679 122 692.5 Q148 706 186 706 Q216 706 243.5 698 Q271 690 291 674 Q311 658 323 634.5 Q335 611 335 580 Q335 559 327.5 545 Q320 531 311 522 Q300 511 288 506 Q303 499 315 487 Q325 476 333.5 459 Q342 442 342 415 Q342 383 329 359.5 Q316 336 294.5 320 Q273 304 245.5 296 Q218 288 188 288 Q144 288 116 303 Q88 318 71 336 Q51 357 40 384 L114 425 Q119 409 129 397 Q137 386 151.5 377.5 Q166 369 188 369 Q221 369 236.5 383 Q252 397 252 415 Q252 464 185 464 L163 464 L163 534 L178 534 Q202 534 223.5 544 Q245 554 245 580 Z M657 406 L755 406 L755 156 L805 156 L805 78 L755 78 L755 0 L669 0 L669 78 L449 78 L657 406 Z M669 156 L669 290 L585 156 L669 156 Z " />
<glyph glyph-name="seveneighths" unicode="&#x215e;" horiz-adv-x="830" d="M62 700 L375 700 L156 277 L80 318 L237 616 L62 616 L62 700 Z M585 731 L642 692 L171 -32 L114 7 L585 731 Z M645 412 Q711 412 749.5 378.5 Q788 345 788 291 Q788 270 780 255 Q772 240 763 230 Q752 219 739 210 Q755 203 768 191 Q779 180 788 162.5 Q797 145 797 119 Q797 66 756.5 30 Q716 -6 645 -6 Q574 -6 533.5 30 Q493 66 493 119 Q493 145 502 162.5 Q511 180 522 191 Q534 203 551 210 Q537 218 526 230 Q517 240 509.5 255.5 Q502 271 502 292 Q502 346 540.5 379 Q579 412 645 412 Z M645 74 Q674 74 690.5 87 Q707 100 707 121 Q707 142 690.5 155 Q674 168 645 168 Q616 168 599.5 155.5 Q583 143 583 121 Q583 100 599.5 87 Q616 74 645 74 Z M592 289 Q592 266 608 256 Q624 246 645 246 Q666 246 682 256 Q698 266 698 289 Q698 312 682 322 Q666 332 645 332 Q624 332 608 322 Q592 312 592 289 Z " />
<glyph glyph-name="A" unicode="A" horiz-adv-x="678" d="M278 700 L400 700 L672 0 L551 0 L487 166 L191 166 L127 0 L6 0 L278 700 Z M234 276 L444 276 L339 549 L234 276 Z " />
<glyph glyph-name="B" unicode="B" horiz-adv-x="590" d="M74 700 L301 700 Q344 700 384 689.5 Q424 679 455 655 Q486 631 505 593 Q524 555 524 500 Q524 468 514 444.5 Q504 421 491 405 Q478 389 466.5 380.5 Q455 372 451 371 Q455 370 472.5 362 Q490 354 509.5 335.5 Q529 317 544.5 285.5 Q560 254 560 207 Q560 161 542 123 Q524 85 492.5 57.5 Q461 30 418 15 Q375 0 326 0 L74 0 L74 700 Z M322 114 Q372 114 405 135.5 Q438 157 438 207 Q438 257 405 278.5 Q372 300 322 300 L194 300 L194 114 L322 114 Z M297 414 Q348 414 375 434 Q402 454 402 500 Q402 546 372 566 Q342 586 297 586 L194 586 L194 414 L297 414 Z " />
<glyph glyph-name="C" unicode="C" horiz-adv-x="676" d="M389 100 Q435 100 470.5 113 Q506 126 530 143 Q558 161 578 186 L658 107 Q630 73 590 47 Q556 24 505.5 6 Q455 -12 389 -12 Q313 -12 248 15.5 Q183 43 135.5 91.5 Q88 140 61 206 Q34 272 34 350 Q34 428 61 494 Q88 560 135.5 608.5 Q183 657 248 684.5 Q313 712 389 712 Q452 712 500 694.5 Q548 677 581 657 Q620 632 648 602 L567 523 Q547 544 521 561 Q498 575 465 587.5 Q432 600 389 600 Q337 600 294 580 Q251 560 220.5 525.5 Q190 491 173 446 Q156 401 156 350 Q156 299 173 254 Q190 209 220.5 174.5 Q251 140 294 120 Q337 100 389 100 Z " />
<glyph glyph-name="D" unicode="D" horiz-adv-x="680" d="M300 700 Q376 700 440 673.5 Q504 647 549.5 600.5 Q595 554 620.5 490 Q646 426 646 350 Q646 274 620.5 210 Q595 146 549.5 99.5 Q504 53 440 26.5 Q376 0 300 0 L74 0 L74 700 L300 700 Z M302 114 Q353 114 394 133 Q435 152 464 184.5 Q493 217 508.5 259.5 Q524 302 524 350 Q524 398 508.5 441 Q493 484 464 516 Q435 548 394 567 Q353 586 302 586 L194 586 L194 114 L302 114 Z " />
<glyph glyph-name="E" unicode="E" horiz-adv-x="546" d="M194 416 L474 416 L474 302 L194 302 L194 114 L504 114 L504 0 L74 0 L74 700 L498 700 L498 586 L194 586 L194 416 Z " />
<glyph glyph-name="F" unicode="F" horiz-adv-x="527" d="M194 415 L469 415 L469 301 L194 301 L194 0 L74 0 L74 700 L489 700 L489 586 L194 586 L194 415 Z " />
<glyph glyph-name="G" unicode="G" horiz-adv-x="713" d="M402 100 Q440 100 466.5 105 Q493 110 510 117 Q530 124 543 134 L543 282 L384 282 L384 394 L661 394 L661 76 Q633 51 595 32 Q562 15 514 1.5 Q466 -12 402 -12 Q325 -12 258 15.5 Q191 43 141 91.5 Q91 140 62.5 206 Q34 272 34 350 Q34 428 62 494 Q90 560 138.5 608.5 Q187 657 253.5 684.5 Q320 712 397 712 Q462 712 510.5 695.5 Q559 679 591 659 Q629 636 656 607 L574 527 Q556 547 530 563 Q508 577 475 588.5 Q442 600 397 600 Q344 600 300 580 Q256 560 224 525.5 Q192 491 174 446 Q156 401 156 350 Q156 299 174.5 254 Q193 209 226 174.5 Q259 140 304 120 Q349 100 402 100 Z " />
<glyph glyph-name="H" unicode="H" horiz-adv-x="687" d="M493 700 L613 700 L613 0 L493 0 L493 301 L194 301 L194 0 L74 0 L74 700 L194 700 L194 415 L493 415 L493 700 Z " />
<glyph glyph-name="I" unicode="I" horiz-adv-x="296" d="M88 700 L208 700 L208 0 L88 0 L88 700 Z " />
<glyph glyph-name="J" unicode="J" horiz-adv-x="521" d="M327 700 L447 700 L447 220 Q447 109 383.5 48.5 Q320 -12 208 -12 Q155 -12 117 6 Q79 24 53 46 Q23 72 3 105 L91 179 Q104 157 122 140 Q137 126 158.5 114 Q180 102 208 102 Q242 102 265 112 Q288 122 302 138.5 Q316 155 321.5 175.5 Q327 196 327 216 L327 700 Z " />
<glyph glyph-name="K" unicode="K" horiz-adv-x="628" d="M194 386 L444 700 L594 700 L320 356 L628 0 L469 0 L194 316 L194 0 L74 0 L74 700 L194 700 L194 386 Z " />
<glyph glyph-name="L" unicode="L" horiz-adv-x="500" d="M74 700 L194 700 L194 114 L492 114 L492 0 L74 0 L74 700 Z " />
<glyph glyph-name="M" unicode="M" horiz-adv-x="826" d="M185 700 L413 348 L641 700 L752 700 L752 0 L632 0 L632 470 L413 137 L194 470 L194 0 L74 0 L74 700 L185 700 Z " />
<glyph glyph-name="N" unicode="N" horiz-adv-x="726" d="M182 700 L532 218 L532 700 L652 700 L652 0 L544 0 L194 481 L194 0 L74 0 L74 700 L182 700 Z " />
<glyph glyph-name="O" unicode="O" horiz-adv-x="776" d="M388 712 Q464 712 529 684.5 Q594 657 641.5 608.5 Q689 560 715.5 494 Q742 428 742 350 Q742 272 715.5 206 Q689 140 641.5 91.5 Q594 43 529 15.5 Q464 -12 388 -12 Q311 -12 246.5 15.5 Q182 43 134.5 91.5 Q87 140 60.5 206 Q34 272 34 350 Q34 428 60.5 494 Q87 560 134.5 608.5 Q182 657 246.5 684.5 Q311 712 388 712 Z M388 102 Q441 102 484 122 Q527 142 557 175.5 Q587 209 603.5 254 Q620 299 620 350 Q620 401 603.5 446 Q587 491 557 524.5 Q527 558 484 578 Q441 598 388 598 Q335 598 292 578 Q249 558 219 524.5 Q189 491 172.5 446 Q156 401 156 350 Q156 299 172.5 254 Q189 209 219 175.5 Q249 142 292 122 Q335 102 388 102 Z " />
<glyph glyph-name="P" unicode="P" horiz-adv-x="566" d="M297 366 Q359 366 390.5 396 Q422 426 422 476 Q422 526 390.5 556 Q359 586 297 586 L194 586 L194 366 L297 366 Z M74 700 L312 700 Q364 700 407 683 Q450 666 480.5 636 Q511 606 527.5 565 Q544 524 544 476 Q544 428 527.5 387 Q511 346 480.5 316 Q450 286 407 269 Q364 252 312 252 L194 252 L194 0 L74 0 L74 700 Z " />
<glyph glyph-name="Q" unicode="Q" horiz-adv-x="791" d="M388 712 Q464 712 529 684.5 Q594 657 641.5 608.5 Q689 560 715.5 494 Q742 428 742 350 Q742 290 725.5 237 Q709 184 680 139 L779 54 L702 -34 L599 55 Q555 23 502 5.5 Q449 -12 388 -12 Q311 -12 246.5 15.5 Q182 43 134.5 91.5 Q87 140 60.5 206 Q34 272 34 350 Q34 428 60.5 494 Q87 560 134.5 608.5 Q182 657 246.5 684.5 Q311 712 388 712 Z M464 327 L588 219 Q620 277 620 350 Q620 401 603.5 446 Q587 491 556.5 524.5 Q526 558 483 578 Q440 598 388 598 Q335 598 292.5 578 Q250 558 219.5 524.5 Q189 491 172.5 446 Q156 401 156 350 Q156 299 172.5 254 Q189 209 219.5 175.5 Q250 142 292.5 122 Q335 102 388 102 Q422 102 452 110.5 Q482 119 508 134 L387 240 L464 327 Z " />
<glyph glyph-name="R" unicode="R" horiz-adv-x="583" d="M74 700 L304 700 Q356 700 399 684 Q442 668 472.5 639 Q503 610 519.5 570 Q536 530 536 482 Q536 403 495.5 347 Q455 291 380 272 L555 0 L415 0 L249 264 L194 264 L194 0 L74 0 L74 700 Z M289 378 Q347 378 380.5 404 Q414 430 414 482 Q414 534 380.5 560 Q347 586 289 586 L194 586 L194 378 L289 378 Z " />
<glyph glyph-name="S" unicode="S" horiz-adv-x="595" d="M424 183 Q424 205 415.5 221 Q407 237 391 249 Q375 261 351 271 Q327 281 296 292 Q257 305 218 323.5 Q179 342 147.5 368 Q116 394 96.5 429.5 Q77 465 77 514 Q77 551 93 586.5 Q109 622 138.5 650 Q168 678 210.5 695 Q253 712 306 712 Q361 712 403.5 694.5 Q446 677 475 656 Q509 631 534 601 L451 519 Q433 540 411 558 Q392 573 365 585.5 Q338 598 306 598 Q283 598 263.5 591.5 Q244 585 230 573.5 Q216 562 207.5 547 Q199 532 199 514 Q199 491 209 475 Q219 459 238.5 446.5 Q258 434 286 422.5 Q314 411 350 398 Q390 383 425.5 365.5 Q461 348 488 323 Q515 298 530.5 264.5 Q546 231 546 183 Q546 135 526.5 99 Q507 63 473.5 38 Q440 13 395.5 0.5 Q351 -12 302 -12 Q236 -12 188 10 Q140 32 108 59 Q71 91 46 131 L136 207 Q154 177 179 154 Q200 134 231 118 Q262 102 302 102 Q324 102 346 106.5 Q368 111 385.5 121 Q403 131 413.5 146.5 Q424 162 424 183 Z " />
<glyph glyph-name="T" unicode="T" horiz-adv-x="534" d="M207 586 L14 586 L14 700 L520 700 L520 586 L327 586 L327 0 L207 0 L207 586 Z " />
<glyph glyph-name="U" unicode="U" horiz-adv-x="688" d="M494 700 L614 700 L614 254 Q614 196 595 147.5 Q576 99 541 63.5 Q506 28 456 8 Q406 -12 344 -12 Q282 -12 232 8 Q182 28 147 63.5 Q112 99 93 147.5 Q74 196 74 254 L74 700 L194 700 L194 269 Q194 194 231.5 148 Q269 102 344 102 Q419 102 456.5 148 Q494 194 494 269 L494 700 Z " />
<glyph glyph-name="V" unicode="V" horiz-adv-x="630" d="M315 -24 L2 700 L133 700 L319 251 L503 700 L628 700 L315 -24 Z " />
<glyph glyph-name="W" unicode="W" horiz-adv-x="983" d="M703 -24 L493 501 L280 -24 L4 700 L140 700 L288 280 L447 700 L546 700 L702 280 L854 700 L979 700 L703 -24 Z " />
<glyph glyph-name="X" unicode="X" horiz-adv-x="612" d="M300 264 L147 0 L12 0 L238 362 L26 700 L168 700 L311 458 L452 700 L584 700 L372 362 L600 0 L457 0 L300 264 Z " />
<glyph glyph-name="Y" unicode="Y" horiz-adv-x="614" d="M367 0 L247 0 L247 276 L8 700 L140 700 L311 387 L482 700 L606 700 L367 276 L367 0 Z " />
<glyph glyph-name="Z" unicode="Z" horiz-adv-x="597" d="M583 700 L219 114 L563 114 L563 0 L14 0 L380 586 L48 586 L48 700 L583 700 Z " />
<glyph glyph-name="a" unicode="a" horiz-adv-x="536" d="M246 88 Q273 88 293.5 96 Q314 104 328 115 Q344 127 356 143 L356 195 Q343 201 326 205 Q312 209 292 212.5 Q272 216 248 216 Q234 216 218.5 212.5 Q203 209 190 201 Q177 193 168.5 180 Q160 167 160 148 Q160 129 168 117.5 Q176 106 189 99.5 Q202 93 217 90.5 Q232 88 246 88 Z M260 486 Q363 486 419.5 438 Q476 390 476 309 L476 0 L365 0 L365 60 Q350 40 327 24 Q307 10 278 -1 Q249 -12 209 -12 Q176 -12 145 -1.5 Q114 9 90 29 Q66 49 52 78.5 Q38 108 38 146 Q38 181 52.5 209.5 Q67 238 92.5 258.5 Q118 279 151.5 290.5 Q185 302 224 302 Q255 302 279.5 297.5 Q304 293 321 288 Q341 282 356 274 L356 297 Q356 320 346 336 Q336 352 321 361.5 Q306 371 288 375 Q270 379 254 379 Q228 379 202.5 373.5 Q177 368 157 361 Q133 353 112 344 L73 443 Q99 454 129 464 Q155 472 188.5 479 Q222 486 260 486 Z " />
<glyph glyph-name="b" unicode="b" horiz-adv-x="587" d="M74 756 L194 756 L194 424 Q208 441 227 455 Q244 466 269 476 Q294 486 328 486 Q374 486 416 467.5 Q458 449 489.5 416 Q521 383 540 337.5 Q559 292 559 237 Q559 182 540 136.5 Q521 91 489.5 58 Q458 25 416 6.5 Q374 -12 328 -12 Q290 -12 262.5 -0.5 Q235 11 218 25 Q198 41 185 62 L185 0 L74 0 L74 756 Z M194 166 Q205 147 221 133 Q235 120 256 110 Q277 100 307 100 Q337 100 361.5 110.5 Q386 121 402.5 139.5 Q419 158 428 183 Q437 208 437 237 Q437 266 428 291 Q419 316 402.5 334.5 Q386 353 361.5 363.5 Q337 374 307 374 Q277 374 256 363.5 Q235 353 221 341 Q205 326 194 308 L194 166 Z " />
<glyph glyph-name="c" unicode="c" horiz-adv-x="497" d="M283 100 Q313 100 335.5 109 Q358 118 372 129 Q389 141 400 158 L479 78 Q458 52 429 33 Q404 16 367.5 2 Q331 -12 283 -12 Q230 -12 183.5 7.5 Q137 27 102.5 60.5 Q68 94 48 139.5 Q28 185 28 237 Q28 289 48 334.5 Q68 380 102.5 414 Q137 448 183.5 467 Q230 486 283 486 Q331 486 367 472.5 Q403 459 428 442 Q457 423 477 398 L394 324 Q382 338 365 349 Q351 358 330.5 366 Q310 374 283 374 Q253 374 228 363 Q203 352 186 333 Q169 314 159.5 289.5 Q150 265 150 237 Q150 209 159.5 184 Q169 159 186 140.5 Q203 122 228 111 Q253 100 283 100 Z " />
<glyph glyph-name="d" unicode="d" horiz-adv-x="587" d="M513 0 L402 0 L402 62 Q389 41 369 25 Q352 11 324.5 -0.5 Q297 -12 259 -12 Q213 -12 171 6.5 Q129 25 97.5 58 Q66 91 47 136.5 Q28 182 28 237 Q28 292 47 337.5 Q66 383 97.5 416 Q129 449 171 467.5 Q213 486 259 486 Q293 486 318 476 Q343 466 360 455 Q379 441 393 424 L393 756 L513 756 L513 0 Z M393 308 Q382 326 366 341 Q352 353 330.5 363.5 Q309 374 280 374 Q250 374 225.5 363.5 Q201 353 184.5 334.5 Q168 316 159 291 Q150 266 150 237 Q150 208 159 183 Q168 158 184.5 139.5 Q201 121 225.5 110.5 Q250 100 280 100 Q309 100 330.5 110 Q352 120 366 133 Q382 147 393 166 L393 308 Z " />
<glyph glyph-name="e" unicode="e" horiz-adv-x="533" d="M268 486 Q319 486 362.5 468 Q406 450 437.5 417.5 Q469 385 487 339.5 Q505 294 505 239 Q505 232 505 220 Q505 208 504 194 L150 194 Q153 178 164 161 Q175 144 192 130 Q209 116 232 107 Q255 98 283 98 Q314 98 338 105.5 Q362 113 379 122 Q398 133 413 146 L473 56 Q450 37 421 22 Q396 9 361 -1.5 Q326 -12 283 -12 Q229 -12 182.5 7.5 Q136 27 101.5 60.5 Q67 94 47.5 139.5 Q28 185 28 237 Q28 289 45.5 334.5 Q63 380 94.5 413.5 Q126 447 170.5 466.5 Q215 486 268 486 Z M386 280 Q386 296 379.5 313.5 Q373 331 359 345 Q345 359 322.5 368.5 Q300 378 268 378 Q239 378 217 369 Q195 360 180 345.5 Q165 331 157.5 313.5 Q150 296 150 280 L386 280 Z " />
<glyph glyph-name="f" unicode="f" horiz-adv-x="371" d="M16 474 L110 474 L110 590 Q110 639 125.5 673 Q141 707 166 728 Q191 749 221 758.5 Q251 768 280 768 Q305 768 324 764 Q343 760 357 755 Q373 750 385 743 L340 642 Q334 645 327 649 Q321 651 312 653.5 Q303 656 292 656 Q283 656 272.5 653 Q262 650 252.5 642 Q243 634 236.5 620 Q230 606 230 584 L230 474 L346 474 L346 366 L230 366 L230 0 L110 0 L110 366 L16 366 L16 474 Z " />
<glyph glyph-name="g" unicode="g" horiz-adv-x="573" d="M393 49 Q387 41 376 31 Q365 21 348.5 11 Q332 1 309.5 -5.5 Q287 -12 259 -12 Q213 -12 171 6.5 Q129 25 97.5 58 Q66 91 47 136.5 Q28 182 28 237 Q28 292 47 337.5 Q66 383 97.5 416 Q129 449 171 467.5 Q213 486 259 486 Q296 486 323.5 474.5 Q351 463 368 449 Q388 432 402 412 L402 474 L513 474 L513 -4 Q513 -66 492 -111 Q471 -156 435.5 -185 Q400 -214 354 -228 Q308 -242 258 -242 Q207 -242 165 -228 Q123 -214 94 -197 Q60 -178 33 -152 L101 -60 Q120 -80 145 -95 Q166 -109 194.5 -119.5 Q223 -130 258 -130 Q328 -130 360.5 -96 Q393 -62 393 -8 L393 49 Z M393 308 Q382 326 366 341 Q352 353 330.5 363.5 Q309 374 280 374 Q250 374 225.5 363.5 Q201 353 184.5 334.5 Q168 316 159 291 Q150 266 150 237 Q150 208 159 183 Q168 158 184.5 139.5 Q201 121 225.5 110.5 Q250 100 280 100 Q309 100 330.5 110 Q352 120 366 133 Q382 147 393 166 L393 308 Z " />
<glyph glyph-name="h" unicode="h" horiz-adv-x="562" d="M328 486 Q362 486 393.5 474 Q425 462 449 439 Q473 416 487.5 383 Q502 350 502 307 L502 0 L382 0 L382 277 Q382 328 354.5 351 Q327 374 288 374 Q265 374 247.5 364 Q230 354 218 343 Q204 329 194 312 L194 0 L74 0 L74 756 L194 756 L194 417 Q207 436 226 451 Q243 464 268 475 Q293 486 328 486 Z " />
<glyph glyph-name="i" unicode="i" horiz-adv-x="278" d="M79 474 L199 474 L199 0 L79 0 L79 474 Z M60 627 Q60 660 83 683 Q106 706 139 706 Q172 706 195 683 Q218 660 218 627 Q218 594 195 571 Q172 548 139 548 Q106 548 83 571 Q60 594 60 627 Z " />
<glyph glyph-name="j" unicode="j" horiz-adv-x="332" d="M8 -110 Q17 -116 27 -120 Q35 -124 45 -127 Q55 -130 65 -130 Q75 -130 87 -127.5 Q99 -125 109.5 -115.5 Q120 -106 127 -86.5 Q134 -67 134 -32 L134 474 L254 474 L254 -43 Q254 -101 236.5 -139.5 Q219 -178 192.5 -200.5 Q166 -223 135.5 -232.5 Q105 -242 78 -242 Q53 -242 32.5 -237.5 Q12 -233 -3 -227 Q-21 -220 -35 -211 L8 -110 Z M114 627 Q114 660 137 683 Q160 706 193 706 Q226 706 249 683 Q272 660 272 627 Q272 594 249 571 Q226 548 193 548 Q160 548 137 571 Q114 594 114 627 Z " />
<glyph glyph-name="k" unicode="k" horiz-adv-x="535" d="M194 287 L364 474 L519 474 L311 250 L533 0 L375 0 L194 207 L194 0 L74 0 L74 756 L194 756 L194 287 Z " />
<glyph glyph-name="l" unicode="l" horiz-adv-x="268" d="M74 756 L194 756 L194 0 L74 0 L74 756 Z " />
<glyph glyph-name="m" unicode="m" horiz-adv-x="836" d="M610 486 Q646 486 676.5 473.5 Q707 461 729 438 Q751 415 763.5 381.5 Q776 348 776 305 L776 0 L656 0 L656 274 Q656 323 636 348.5 Q616 374 571 374 Q547 374 529.5 364 Q512 354 501 343 Q488 330 478 313 L478 0 L358 0 L358 274 Q358 323 338 348.5 Q318 374 273 374 Q249 374 231.5 364 Q214 354 203 343 Q190 330 180 313 L180 0 L60 0 L60 474 L172 474 L172 405 Q186 427 206 445 Q223 460 249 473 Q275 486 312 486 Q355 486 383 473 Q411 460 428 444 Q447 426 459 403 Q472 426 493 444 Q511 460 539.5 473 Q568 486 610 486 Z " />
<glyph glyph-name="n" unicode="n" horiz-adv-x="548" d="M314 486 Q348 486 379.5 474 Q411 462 435 439 Q459 416 473.5 383 Q488 350 488 307 L488 0 L368 0 L368 277 Q368 328 340.5 351 Q313 374 274 374 Q251 374 233.5 364 Q216 354 204 343 Q190 330 180 313 L180 0 L60 0 L60 474 L172 474 L172 405 Q185 427 205 445 Q222 460 249 473 Q276 486 314 486 Z " />
<glyph glyph-name="o" unicode="o" horiz-adv-x="562" d="M281 486 Q334 486 380 467 Q426 448 460.5 414 Q495 380 514.5 334.5 Q534 289 534 237 Q534 185 514.5 139.5 Q495 94 460.5 60.5 Q426 27 380 7.5 Q334 -12 281 -12 Q228 -12 182 7.5 Q136 27 101.5 60.5 Q67 94 47.5 139.5 Q28 185 28 237 Q28 289 47.5 334.5 Q67 380 101.5 414 Q136 448 182 467 Q228 486 281 486 Z M281 100 Q311 100 335.5 111 Q360 122 377 140.5 Q394 159 403 184 Q412 209 412 237 Q412 265 403 289.5 Q394 314 377 333 Q360 352 335.5 363 Q311 374 281 374 Q251 374 226.5 363 Q202 352 185 333 Q168 314 159 289.5 Q150 265 150 237 Q150 209 159 184 Q168 159 185 140.5 Q202 122 226.5 111 Q251 100 281 100 Z " />
<glyph glyph-name="p" unicode="p" horiz-adv-x="573" d="M171 474 L171 412 Q185 432 206 449 Q223 463 250 474.5 Q277 486 314 486 Q360 486 402 467.5 Q444 449 475.5 416 Q507 383 526 337.5 Q545 292 545 237 Q545 182 526 136.5 Q507 91 475.5 58 Q444 25 402 6.5 Q360 -12 314 -12 Q286 -12 263.5 -5.5 Q241 1 224.5 11 Q208 21 197 31 Q186 41 180 49 L180 -230 L60 -230 L60 474 L171 474 Z M180 166 Q191 147 207 133 Q221 120 242 110 Q263 100 293 100 Q323 100 347.5 110.5 Q372 121 388.5 139.5 Q405 158 414 183 Q423 208 423 237 Q423 266 414 291 Q405 316 388.5 334.5 Q372 353 347.5 363.5 Q323 374 293 374 Q263 374 242 363.5 Q221 353 207 341 Q191 326 180 308 L180 166 Z " />
<glyph glyph-name="q" unicode="q" horiz-adv-x="573" d="M513 474 L513 -230 L393 -230 L393 49 Q387 41 376 31 Q365 21 348.5 11 Q332 1 309.5 -5.5 Q287 -12 259 -12 Q213 -12 171 6.5 Q129 25 97.5 58 Q66 91 47 136.5 Q28 182 28 237 Q28 292 47 337.5 Q66 383 97.5 416 Q129 449 171 467.5 Q213 486 259 486 Q296 486 322.5 474.5 Q349 463 367 449 Q387 432 402 412 L402 474 L513 474 Z M393 308 Q382 326 366 341 Q352 353 330.5 363.5 Q309 374 280 374 Q250 374 225.5 363.5 Q201 353 184.5 334.5 Q168 316 159 291 Q150 266 150 237 Q150 208 159 183 Q168 158 184.5 139.5 Q201 121 225.5 110.5 Q250 100 280 100 Q309 100 330.5 110 Q352 120 366 133 Q382 147 393 166 L393 308 Z " />
<glyph glyph-name="r" unicode="r" horiz-adv-x="387" d="M303 486 Q319 486 334 483.5 Q349 481 360 478 Q373 474 385 471 L343 363 Q337 365 328 368 Q320 370 309.5 372 Q299 374 286 374 Q258 374 238.5 364 Q219 354 206 342 Q191 328 180 310 L180 0 L60 0 L60 474 L174 474 L174 405 Q187 427 205 445 Q221 460 245.5 473 Q270 486 303 486 Z " />
<glyph glyph-name="s" unicode="s" horiz-adv-x="483" d="M97 161 Q115 142 138 127 Q158 114 184 103.5 Q210 93 240 93 Q278 93 304 103.5 Q330 114 330 136 Q330 148 325.5 155 Q321 162 309.5 167.5 Q298 173 280 177 Q262 181 235 186 Q200 193 168 203.5 Q136 214 112 231.5 Q88 249 73.5 275.5 Q59 302 59 341 Q59 407 108 446.5 Q157 486 257 486 Q299 486 332.5 477.5 Q366 469 391 458 Q420 446 443 430 L387 337 Q368 349 347 359 Q329 367 305.5 374 Q282 381 257 381 Q223 381 200 371 Q177 361 177 339 Q177 317 204 309 Q231 301 291 288 Q326 280 355.5 269.5 Q385 259 406 241 Q427 223 439 197 Q451 171 451 134 Q451 104 437 77 Q423 50 397 30.5 Q371 11 332 -0.5 Q293 -12 244 -12 Q191 -12 151.5 1 Q112 14 85 31 Q53 49 30 74 L97 161 Z " />
<glyph glyph-name="t" unicode="t" horiz-adv-x="416" d="M22 474 L115 474 L115 615 L235 615 L235 474 L378 474 L378 366 L235 366 L235 175 Q235 153 240 138.5 Q245 124 254 115.5 Q263 107 274 103.5 Q285 100 297 100 Q307 100 316 102.5 Q325 105 332 108 Q340 112 347 117 L391 19 Q378 10 360 3 Q345 -3 324 -7.5 Q303 -12 277 -12 Q242 -12 212.5 0 Q183 12 161.5 34 Q140 56 127.5 87 Q115 118 115 156 L115 366 L22 366 L22 474 Z " />
<glyph glyph-name="u" unicode="u" horiz-adv-x="548" d="M234 -12 Q200 -12 168.5 0 Q137 12 113 35 Q89 58 74.5 91 Q60 124 60 167 L60 474 L180 474 L180 200 Q180 147 204 123.5 Q228 100 274 100 Q297 100 314.5 109 Q332 118 344 129 Q358 141 368 158 L368 474 L488 474 L488 0 L376 0 L376 69 Q361 46 341 28 Q324 13 297 0.5 Q270 -12 234 -12 Z " />
<glyph glyph-name="v" unicode="v" horiz-adv-x="506" d="M135 474 L255 216 L375 474 L504 474 L253 -24 L2 474 L135 474 Z " />
<glyph glyph-name="w" unicode="w" horiz-adv-x="768" d="M138 474 L236 231 L339 474 L440 474 L540 231 L642 474 L764 474 L535 -24 L383 314 L233 -24 L4 474 L138 474 Z " />
<glyph glyph-name="x" unicode="x" horiz-adv-x="525" d="M29 474 L170 474 L267 328 L362 474 L499 474 L334 245 L509 0 L366 0 L259 162 L152 0 L16 0 L192 245 L29 474 Z " />
<glyph glyph-name="y" unicode="y" horiz-adv-x="557" d="M76 -99 Q85 -108 96 -115 Q105 -121 116 -125.5 Q127 -130 139 -130 Q154 -130 165.5 -127 Q177 -124 186 -116.5 Q195 -109 203 -95.5 Q211 -82 220 -60 L239 -11 L8 474 L141 474 L301 127 L426 474 L555 474 L325 -106 Q294 -184 247 -213 Q200 -242 147 -242 Q120 -242 96.5 -234.5 Q73 -227 56 -217 Q36 -206 20 -192 L76 -99 Z " />
<glyph glyph-name="z" unicode="z" horiz-adv-x="495" d="M469 474 L234 112 L458 112 L458 0 L30 0 L265 362 L47 362 L47 474 L469 474 Z " />
<glyph glyph-name="dollar" unicode="&#x24;" horiz-adv-x="580" d="M271 -11 Q212 -6 169.5 16.5 Q127 39 98 64 Q65 93 41 129 L134 203 Q149 178 169 158 Q186 141 211.5 124 Q237 107 271 102 L271 301 Q234 314 198.5 332 Q163 350 135 375.5 Q107 401 89.5 435 Q72 469 72 514 Q72 548 85.5 581.5 Q99 615 125 642 Q151 669 187.5 687 Q224 705 271 710 L271 794 L334 794 L334 710 Q380 705 415.5 688.5 Q451 672 475 654 Q503 633 524 608 L434 533 Q423 547 408 559 Q395 570 376 580.5 Q357 591 334 596 L334 400 Q337 398 345 396 Q385 381 421 363.5 Q457 346 484 321.5 Q511 297 526.5 263.5 Q542 230 542 183 Q542 140 525.5 106 Q509 72 481 47.5 Q453 23 415 8.5 Q377 -6 334 -10 L334 -94 L271 -94 L271 -11 Z M420 183 Q420 219 398 240 Q376 261 334 278 L334 103 Q369 109 394.5 128.5 Q420 148 420 183 Z M194 514 Q194 482 213.5 462 Q233 442 271 425 L271 596 Q236 588 215 565.5 Q194 543 194 514 Z " />
<glyph glyph-name="cent" unicode="&#xa2;" horiz-adv-x="580" d="M287 -9 Q240 -3 200.5 18.5 Q161 40 132 72.5 Q103 105 86.5 147 Q70 189 70 237 Q70 285 86.5 327 Q103 369 132 401.5 Q161 434 200.5 455.5 Q240 477 287 483 L287 570 L350 570 L350 485 Q392 480 423 466 Q454 452 476 437 Q501 419 519 398 L436 324 Q427 334 414 344 Q403 352 386.5 360 Q370 368 350 372 L350 102 Q373 106 391 115 Q409 124 420 134 Q433 145 442 158 L521 78 Q503 56 477 38 Q455 22 423.5 7.5 Q392 -7 350 -11 L350 -94 L287 -94 L287 -9 Z M192 237 Q192 190 217 153.5 Q242 117 287 105 L287 369 Q242 356 217 319.5 Q192 283 192 237 Z " />
<glyph glyph-name="sterling" unicode="&#xa3;" horiz-adv-x="580" d="M194 500 Q194 486 200.5 468 Q207 450 216.5 431.5 Q226 413 236.5 396 Q247 379 255 367 L440 367 L440 283 L297 283 Q302 268 304.5 255 Q307 242 307 224 Q307 208 304 194.5 Q301 181 298 170 Q294 158 289 147 Q306 141 320.5 133 Q335 125 348.5 117.5 Q362 110 375 105 Q388 100 402 100 Q424 100 437.5 109.5 Q451 119 459 131 Q468 144 472 162 L565 110 Q552 75 529 49 Q509 26 478 7 Q447 -12 401 -12 Q365 -12 342 -3.5 Q319 5 300.5 15.5 Q282 26 264 35 Q246 44 222 44 Q199 44 183.5 34 Q168 24 157 12 Q145 -2 137 -20 L45 44 Q59 69 77 91 Q92 110 113.5 127.5 Q135 145 162 152 Q170 161 178.5 182.5 Q187 204 187 227 Q187 241 182 254.5 Q177 268 169 283 L45 283 L45 367 L123 367 Q116 380 107.5 396 Q99 412 91.5 430 Q84 448 79 468 Q74 488 74 508 Q74 542 87 578.5 Q100 615 128 644.5 Q156 674 200 693 Q244 712 306 712 Q360 712 398.5 694.5 Q437 677 463 656 Q493 631 513 600 L426 530 Q414 549 397 565 Q382 578 360 589 Q338 600 306 600 Q253 600 223.5 571 Q194 542 194 500 Z " />
<glyph glyph-name="yen" unicode="&#xa5;" horiz-adv-x="580" d="M25 469 L121 469 L-9 700 L123 700 L294 387 L465 700 L589 700 L459 469 L555 469 L555 385 L411 385 L372 315 L555 315 L555 231 L350 231 L350 0 L230 0 L230 231 L25 231 L25 315 L208 315 L168 385 L25 385 L25 469 Z " />
<glyph glyph-name="Euro" unicode="&#x20ac;" horiz-adv-x="580" d="M22 469 L110 469 Q126 523 156 568 Q186 613 228 645 Q270 677 322.5 694.5 Q375 712 435 712 Q459 712 482 708.5 Q505 705 522 700 Q542 695 561 688 L525 586 Q513 590 499 594 Q487 597 471 599.5 Q455 602 435 602 Q357 602 308 565 Q259 528 235 469 L444 469 L444 385 L215 385 Q212 367 212 350 Q212 341 212 332 Q212 323 214 315 L444 315 L444 231 L229 231 Q253 172 302.5 136 Q352 100 429 100 Q449 100 466 102 Q483 104 495 107 Q509 110 519 114 L554 12 Q539 5 520 0 Q503 -5 480.5 -8.5 Q458 -12 429 -12 Q363 -12 309.5 5.5 Q256 23 215.5 55 Q175 87 146.5 132 Q118 177 102 231 L22 231 L22 315 L98 315 Q97 323 97 332 Q97 341 97 350 Q97 359 97.5 368 Q98 377 99 385 L22 385 L22 469 Z " />
<glyph glyph-name="florin" unicode="&#x192;" horiz-adv-x="580" d="M293 36 Q277 -58 218.5 -102.5 Q160 -147 74 -147 L22 -147 L22 -35 L62 -35 Q95 -35 117 -26 Q139 -17 152.5 -2 Q166 13 173 33 Q180 53 184 75 L235 366 L145 366 L163 474 L253 474 L280 621 Q294 695 344 731.5 Q394 768 463 768 Q483 768 501.5 764 Q520 760 534 755 Q551 750 566 743 L521 640 Q515 644 507 648 Q500 651 491 653.5 Q482 656 471 656 Q431 656 413 636 Q395 616 389 582 L369 474 L483 474 L465 366 L351 366 L293 36 Z " />
<glyph glyph-name="currency" unicode="&#xa4;" horiz-adv-x="580" d="M58 323 Q58 392 95 449 L24 520 L94 590 L164 519 Q192 537 224 547 Q256 557 291 557 Q326 557 357.5 547 Q389 537 416 519 L487 590 L557 520 L486 449 Q504 422 514 390 Q524 358 524 323 Q524 288 514 256 Q504 224 486 196 L557 126 L487 56 L416 127 Q359 90 291 90 Q220 90 165 127 L94 56 L24 126 L95 197 Q58 252 58 323 Z M170 322 Q170 297 179.5 275 Q189 253 205.5 236.5 Q222 220 244 210.5 Q266 201 291 201 Q316 201 338 210 Q360 219 376.5 235.5 Q393 252 402.5 274 Q412 296 412 322 Q412 346 402.5 368 Q393 390 376.5 407 Q360 424 338 434 Q316 444 291 444 Q266 444 244 434 Q222 424 205.5 407.5 Q189 391 179.5 369 Q170 347 170 322 Z " />
<glyph glyph-name="section" unicode="&#xa7;" horiz-adv-x="508" d="M448 264 Q448 233 437.5 208 Q427 183 411.5 164 Q396 145 377.5 132 Q359 119 344 112 Q427 54 427 -39 Q427 -71 413.5 -99 Q400 -127 375 -148 Q350 -169 316 -181.5 Q282 -194 240 -194 Q199 -194 167 -181.5 Q135 -169 113 -154 Q87 -136 68 -113 L144 -34 Q154 -48 169 -59 Q181 -69 199 -76.5 Q217 -84 240 -84 Q269 -84 288 -66.5 Q307 -49 307 -25 Q307 -11 301 0 Q295 11 282 21.5 Q269 32 249 44 Q229 56 202 72 Q174 88 146.5 105 Q119 122 97.5 143 Q76 164 63 191 Q50 218 50 254 Q50 285 60.5 310 Q71 335 86.5 353.5 Q102 372 120.5 385 Q139 398 154 405 Q112 434 91.5 467.5 Q71 501 71 547 Q71 580 84.5 610 Q98 640 123 662.5 Q148 685 182 698.5 Q216 712 258 712 Q300 712 331.5 699 Q363 686 385 671 Q411 653 429 630 L350 556 Q339 568 326 579 Q314 587 297.5 594.5 Q281 602 258 602 Q229 602 210 584.5 Q191 567 191 543 Q191 529 197 518 Q203 507 216 496.5 Q229 486 249 474 Q269 462 296 446 Q324 430 351.5 413 Q379 396 400.5 375 Q422 354 435 327 Q448 300 448 264 Z M254 169 Q267 171 280 177 Q293 183 303.5 193.5 Q314 204 321 217.5 Q328 231 328 248 Q328 263 326 274.5 Q324 286 315.5 297 Q307 308 291.5 319.5 Q276 331 249 346 L244 348 Q231 346 218 340 Q205 334 194.5 324 Q184 314 177 300.5 Q170 287 170 270 Q170 255 172 243.5 Q174 232 182.5 221 Q191 210 206.5 198.5 Q222 187 249 172 L254 169 Z " />
<glyph glyph-name="copyright" unicode="&#xa9;" horiz-adv-x="819" d="M48 350 Q48 425 76.5 491 Q105 557 154 606 Q203 655 269 683.5 Q335 712 410 712 Q485 712 551 683.5 Q617 655 665.5 606 Q714 557 742.5 491 Q771 425 771 350 Q771 275 742.5 209 Q714 143 665.5 94 Q617 45 551 16.5 Q485 -12 410 -12 Q335 -12 269 16.5 Q203 45 154 94 Q105 143 76.5 209 Q48 275 48 350 Z M134 350 Q134 293 156 243 Q178 193 215.5 155.5 Q253 118 303 96 Q353 74 410 74 Q467 74 517 96 Q567 118 604.5 155.5 Q642 193 663.5 243 Q685 293 685 350 Q685 407 663.5 457 Q642 507 604.5 544.5 Q567 582 517 604 Q467 626 410 626 Q353 626 303 604 Q253 582 215.5 544.5 Q178 507 156 457 Q134 407 134 350 Z M418 241 Q442 241 459.5 248 Q477 255 488 264 Q501 274 511 287 L573 224 Q556 204 533 188 Q513 174 484.5 163.5 Q456 153 418 153 Q376 153 339 168.5 Q302 184 275 210.5 Q248 237 232 273 Q216 309 216 350 Q216 391 232 427 Q248 463 275 489.5 Q302 516 339 531.5 Q376 547 418 547 Q456 547 484.5 536 Q513 525 533 512 Q556 496 572 477 L506 418 Q496 429 483 438 Q472 446 455.5 452 Q439 458 418 458 Q394 458 374.5 449.5 Q355 441 341.5 426 Q328 411 320.5 391.5 Q313 372 313 350 Q313 328 320.5 308 Q328 288 341.5 273 Q355 258 374.5 249.5 Q394 241 418 241 Z " />
<glyph glyph-name="registered" unicode="&#xae;" horiz-adv-x="425" d="M137 607 L235 607 Q264 607 281 589 Q298 571 298 545 Q298 524 286.5 508.5 Q275 493 255 487 L305 417 L245 417 L205 478 L191 478 L191 417 L137 417 L137 607 Z M211 524 Q225 524 235.5 527 Q246 530 246 545 Q246 560 235.5 563 Q225 566 211 566 L191 566 L191 524 L211 524 Z M5 510 Q5 553 21.5 591.5 Q38 630 66 658.5 Q94 687 132 703.5 Q170 720 213 720 Q256 720 294.5 703.5 Q333 687 361.5 658.5 Q390 630 406.5 591.5 Q423 553 423 510 Q423 467 406.5 429 Q390 391 361.5 363 Q333 335 294.5 318.5 Q256 302 213 302 Q170 302 132 318.5 Q94 335 66 363 Q38 391 21.5 429 Q5 467 5 510 Z M70 510 Q70 480 81 454 Q92 428 111.5 408.5 Q131 389 157 378 Q183 367 213 367 Q243 367 269 378 Q295 389 314.5 408.5 Q334 428 345.5 454 Q357 480 357 510 Q357 540 345.5 566 Q334 592 314.5 611.5 Q295 631 269 642.5 Q243 654 213 654 Q183 654 157 642.5 Q131 631 111.5 611.5 Q92 592 81 566 Q70 540 70 510 Z " />
<glyph glyph-name="trademark" unicode="&#x2122;" horiz-adv-x="805" d="M124 617 L21 617 L21 700 L314 700 L314 617 L211 617 L211 330 L124 330 L124 617 Z M443 700 L558 516 L672 700 L753 700 L753 330 L666 330 L666 546 L556 373 L446 546 L446 330 L359 330 L359 700 L443 700 Z " />
<glyph glyph-name="ordfeminine" unicode="&#xaa;" horiz-adv-x="325" d="M147 464 Q164 464 176.5 469.5 Q189 475 198 482 Q209 490 217 500 L217 522 Q208 526 197 530 Q188 533 175.5 535.5 Q163 538 148 538 Q131 538 113.5 530.5 Q96 523 96 501 Q96 480 113 472 Q130 464 147 464 Z M159 712 Q224 712 258 680.5 Q292 649 292 601 L292 406 L222 406 L222 445 Q212 432 198 422 Q186 413 168 406 Q150 399 124 399 Q105 399 86 405.5 Q67 412 52 425 Q37 438 27.5 456 Q18 474 18 498 Q18 543 50.5 570 Q83 597 132 597 Q152 597 168 593 Q184 589 195 584 Q207 578 217 571 L217 590 Q217 603 211 612 Q205 621 195.5 627 Q186 633 174 636 Q162 639 151 639 Q134 639 119 635.5 Q104 632 92 628 Q78 624 65 618 L40 684 Q55 692 73 698 Q89 703 111 707.5 Q133 712 159 712 Z " />
<glyph glyph-name="ordmasculine" unicode="&#xba;" horiz-adv-x="357" d="M22 555 Q22 588 34.5 616.5 Q47 645 68 666 Q89 687 117.5 699.5 Q146 712 179 712 Q212 712 240.5 699.5 Q269 687 290 666 Q311 645 323.5 616.5 Q336 588 336 555 Q336 522 323.5 493.5 Q311 465 290 444 Q269 423 240.5 410.5 Q212 398 179 398 Q146 398 117.5 410.5 Q89 423 68 444 Q47 465 34.5 493.5 Q22 522 22 555 Z M108 555 Q108 526 129 505 Q150 484 179 484 Q208 484 229 505 Q250 526 250 555 Q250 584 229 605 Q208 626 179 626 Q150 626 129 605 Q108 584 108 555 Z " />
<glyph glyph-name="slash" unicode="&#x2f;" horiz-adv-x="520" d="M102 -141 L6 -98 L406 800 L502 757 L102 -141 Z " />
<glyph glyph-name="backslash" unicode="&#x5c;" horiz-adv-x="520" d="M18 757 L114 800 L514 -98 L418 -141 L18 757 Z " />
<glyph glyph-name="bar" unicode="&#x7c;" horiz-adv-x="260" d="M72 740 L188 740 L188 -230 L72 -230 L72 740 Z " />
<glyph glyph-name="brokenbar" unicode="&#xa6;" horiz-adv-x="260" d="M72 740 L188 740 L188 350 L72 350 L72 740 Z M72 160 L188 160 L188 -230 L72 -230 L72 160 Z " />
<glyph glyph-name="bracketleft" unicode="&#x5b;" horiz-adv-x="330" d="M184 -134 L298 -134 L298 -230 L74 -230 L74 756 L298 756 L298 660 L184 660 L184 -134 Z " />
<glyph glyph-name="bracketright" unicode="&#x5d;" horiz-adv-x="330" d="M146 660 L32 660 L32 756 L256 756 L256 -230 L32 -230 L32 -134 L146 -134 L146 660 Z " />
<glyph glyph-name="parenleft" unicode="&#x28;" horiz-adv-x="312" d="M166 295 Q166 206 186 132 Q206 58 230 4 Q258 -59 294 -110 L196 -170 Q155 -112 122 -39 Q94 23 71 108 Q48 193 48 295 Q48 397 71 481.5 Q94 566 122 628 Q155 700 196 759 L294 700 Q258 649 230 586 Q206 532 186 458 Q166 384 166 295 Z " />
<glyph glyph-name="parenright" unicode="&#x29;" horiz-adv-x="312" d="M146 295 Q146 384 126 458 Q106 532 82 586 Q54 649 18 700 L116 759 Q157 700 190 628 Q218 566 241 481.5 Q264 397 264 295 Q264 193 241 108 Q218 23 190 -39 Q157 -112 116 -170 L18 -110 Q54 -59 82 4 Q106 58 126 132 Q146 206 146 295 Z " />
<glyph glyph-name="braceleft" unicode="&#x7b;" horiz-adv-x="350" d="M314 648 Q299 648 286.5 645.5 Q274 643 265 635.5 Q256 628 251 613.5 Q246 599 246 574 L246 388 Q246 349 237.5 324 Q229 299 215 285 Q201 271 183.5 266 Q166 261 147 260 L147 256 Q166 255 183.5 250 Q201 245 215 231 Q229 217 237.5 192 Q246 167 246 128 L246 -48 Q246 -73 251 -87.5 Q256 -102 265 -109.5 Q274 -117 286.5 -119.5 Q299 -122 314 -122 L314 -230 L260 -230 Q231 -230 206.5 -220 Q182 -210 164 -192.5 Q146 -175 136 -150 Q126 -125 126 -95 L126 113 Q126 147 117.5 167 Q109 187 95 197.5 Q81 208 63 211 Q45 214 26 214 L26 302 Q45 302 63 305 Q81 308 95 318.5 Q109 329 117.5 349 Q126 369 126 403 L126 621 Q126 651 136 676 Q146 701 164 718.5 Q182 736 206.5 746 Q231 756 260 756 L314 756 L314 648 Z " />
<glyph glyph-name="braceright" unicode="&#x7d;" horiz-adv-x="350" d="M36 756 L90 756 Q119 756 143.5 746 Q168 736 186 718.5 Q204 701 214 676 Q224 651 224 621 L224 403 Q224 369 232.5 349 Q241 329 255 318.5 Q269 308 287 305 Q305 302 324 302 L324 214 Q305 214 287 211 Q269 208 255 197.5 Q241 187 232.5 167 Q224 147 224 113 L224 -95 Q224 -125 214 -150 Q204 -175 186 -192.5 Q168 -210 143.5 -220 Q119 -230 90 -230 L36 -230 L36 -122 Q51 -122 63.5 -119.5 Q76 -117 85 -109.5 Q94 -102 99 -87.5 Q104 -73 104 -48 L104 128 Q104 167 112.5 192 Q121 217 135 231 Q149 245 166.5 250 Q184 255 203 256 L203 260 Q184 261 166.5 266 Q149 271 135 285 Q121 299 112.5 324 Q104 349 104 388 L104 574 Q104 599 99 613.5 Q94 628 85 635.5 Q76 643 63.5 645.5 Q51 648 36 648 L36 756 Z " />
<glyph glyph-name="guilsinglleft" unicode="&#x2039;" horiz-adv-x="322" d="M192 481 L274 418 L136 245 L274 72 L192 9 L9 245 L192 481 Z " />
<glyph glyph-name="guilsinglright" unicode="&#x203a;" horiz-adv-x="322" d="M319 245 L136 9 L54 72 L192 245 L54 418 L136 481 L319 245 Z " />
<glyph glyph-name="guillemotleft" unicode="&#xab;" horiz-adv-x="529" d="M189 481 L271 418 L133 245 L271 72 L189 9 L6 245 L189 481 Z M404 481 L486 418 L348 245 L486 72 L404 9 L221 245 L404 481 Z " />
<glyph glyph-name="guillemotright" unicode="&#xbb;" horiz-adv-x="529" d="M523 245 L340 9 L258 72 L396 245 L258 418 L340 481 L523 245 Z M308 245 L125 9 L43 72 L181 245 L43 418 L125 481 L308 245 Z " />
<glyph glyph-name="quotesingle" unicode="&#x27;" horiz-adv-x="186" d="M40 700 L146 700 L146 454 L40 454 L40 700 Z " />
<glyph glyph-name="quotedbl" unicode="&#x22;" horiz-adv-x="400" d="M60 700 L166 700 L166 452 L60 452 L60 700 Z M234 700 L340 700 L340 452 L234 452 L234 700 Z " />
<glyph glyph-name="quotesinglbase" unicode="&#x201a;" horiz-adv-x="186" d="M40 108 L146 108 L146 -140 L40 -140 L40 108 Z " />
<glyph glyph-name="quoteleft" unicode="&#x2018;" horiz-adv-x="186" d="M40 700 L146 700 L146 454 L40 454 L40 700 Z " />
<glyph glyph-name="quoteright" unicode="&#x2019;" horiz-adv-x="186" d="M40 700 L146 700 L146 454 L40 454 L40 700 Z " />
<glyph glyph-name="quotedblbase" unicode="&#x201e;" horiz-adv-x="400" d="M60 108 L166 108 L166 -140 L60 -140 L60 108 Z M234 108 L340 108 L340 -140 L234 -140 L234 108 Z " />
<glyph glyph-name="quotedblleft" unicode="&#x201c;" horiz-adv-x="400" d="M60 700 L166 700 L166 452 L60 452 L60 700 Z M234 700 L340 700 L340 452 L234 452 L234 700 Z " />
<glyph glyph-name="quotedblright" unicode="&#x201d;" horiz-adv-x="400" d="M60 700 L166 700 L166 452 L60 452 L60 700 Z M234 700 L340 700 L340 452 L234 452 L234 700 Z " />
<glyph glyph-name="periodcentered" unicode="&#xb7;" horiz-adv-x="262" d="M52 350 Q52 383 75 406 Q98 429 131 429 Q164 429 187 406 Q210 383 210 350 Q210 317 187 294 Q164 271 131 271 Q98 271 75 294 Q52 317 52 350 Z " />
<glyph glyph-name="bullet" unicode="&#x2022;" horiz-adv-x="500" d="M106 350 Q106 380 117.5 406 Q129 432 148.5 451.5 Q168 471 194 482.5 Q220 494 250 494 Q280 494 306 482.5 Q332 471 351.5 451.5 Q371 432 382.5 406 Q394 380 394 350 Q394 320 382.5 294 Q371 268 351.5 248.5 Q332 229 306 217.5 Q280 206 250 206 Q220 206 194 217.5 Q168 229 148.5 248.5 Q129 268 117.5 294 Q106 320 106 350 Z " />
<glyph glyph-name="paragraph" unicode="&#xb6;" horiz-adv-x="672" d="M386 -188 L274 -188 L274 226 Q225 226 181.5 244.5 Q138 263 106 295 Q74 327 55 370 Q36 413 36 462 Q36 511 55 554.5 Q74 598 106 630 Q138 662 181.5 681 Q225 700 274 700 L598 700 L598 -188 L486 -188 L486 598 L386 598 L386 -188 Z " />
<glyph glyph-name="ff" unicode="&#xfb00;" horiz-adv-x="691" d="M230 474 L422 474 L422 586 Q422 637 438 672 Q454 707 479 728.5 Q504 750 534.5 759 Q565 768 594 768 Q619 768 639 763.5 Q659 759 674 754 Q691 748 705 740 L660 639 Q654 643 646 647 Q639 650 629 653 Q619 656 606 656 Q581 656 561.5 637 Q542 618 542 572 L542 474 L662 474 L662 368 L542 368 L542 0 L422 0 L422 368 L230 368 L230 0 L110 0 L110 368 L16 368 L16 474 L110 474 L110 586 Q110 637 126 672 Q142 707 167 728.5 Q192 750 222.5 759 Q253 768 282 768 Q307 768 327 763.5 Q347 759 362 754 Q379 748 393 740 L348 639 Q342 643 334 647 Q327 650 317 653 Q307 656 294 656 Q269 656 249.5 637 Q230 618 230 572 L230 474 Z " />
<glyph glyph-name="fi" unicode="&#xfb01;" horiz-adv-x="582" d="M16 474 L110 474 L110 585 Q110 629 125.5 663 Q141 697 168.5 720.5 Q196 744 232.5 756 Q269 768 311 768 Q360 768 396.5 753.5 Q433 739 458 716 Q483 693 495.5 662.5 Q508 632 508 601 L508 590 Q508 565 490 548 Q472 531 447 531 Q422 531 405 547.5 Q388 564 388 590 L388 597 Q388 625 366.5 642.5 Q345 660 311 660 Q281 660 255.5 639.5 Q230 619 230 575 L230 474 L327 474 L327 368 L230 368 L230 0 L110 0 L110 368 L16 368 L16 474 Z M388 474 L508 474 L508 0 L388 0 L388 474 Z " />
<glyph glyph-name="ffi" unicode="&#xfb03;" horiz-adv-x="860" d="M388 590 L388 597 Q388 625 366.5 642.5 Q345 660 311 660 Q281 660 255.5 639.5 Q230 619 230 575 L230 474 L325 474 L325 368 L230 368 L230 0 L110 0 L110 368 L16 368 L16 474 L110 474 L110 585 Q110 629 125.5 663 Q141 697 168.5 720.5 Q196 744 232.5 756 Q269 768 311 768 Q356 768 391 756 Q426 744 450 724 Q476 746 512 757 Q548 768 589 768 Q638 768 674.5 753.5 Q711 739 736 716 Q761 693 773.5 662.5 Q786 632 786 601 L786 590 Q786 565 768 548 Q750 531 725 531 Q700 531 683 547.5 Q666 564 666 590 L666 597 Q666 625 644.5 642.5 Q623 660 589 660 Q559 660 533.5 639.5 Q508 619 508 575 L508 474 L603 474 L603 368 L508 368 L508 0 L388 0 L388 590 Z M666 474 L786 474 L786 0 L666 0 L666 474 Z " />
<glyph glyph-name="ffj" unicode="&#xe773;" horiz-adv-x="860" d="M16 474 L110 474 L110 585 Q110 629 125.5 663 Q141 697 168.5 720.5 Q196 744 232.5 756 Q269 768 311 768 Q356 768 390.5 755.5 Q425 743 450 723 Q506 768 589 768 Q638 768 674.5 753.5 Q711 739 736 716 Q761 693 773.5 662.5 Q786 632 786 601 L786 590 Q786 565 768 548 Q750 531 725 531 Q700 531 683 547.5 Q666 564 666 590 L666 597 Q666 625 644.5 642.5 Q623 660 589 660 Q559 660 533.5 639.5 Q508 619 508 575 L508 474 L600 474 L600 368 L508 368 L508 0 L388 0 L388 597 Q388 625 366.5 642.5 Q345 660 311 660 Q281 660 255.5 639.5 Q230 619 230 575 L230 474 L327 474 L327 368 L230 368 L230 0 L110 0 L110 368 L16 368 L16 474 Z M542 -111 Q549 -117 558 -121 Q565 -125 574 -127.5 Q583 -130 591 -130 Q603 -130 616 -127.5 Q629 -125 640.5 -115.5 Q652 -106 659 -86.5 Q666 -67 666 -32 L666 474 L786 474 L786 -43 Q786 -101 768.5 -139.5 Q751 -178 724.5 -200.5 Q698 -223 667.5 -232.5 Q637 -242 610 -242 Q585 -242 556.5 -235.5 Q528 -229 498 -211 L542 -111 Z " />
<glyph glyph-name="fl" unicode="&#xfb02;" horiz-adv-x="583" d="M389 575 Q389 619 365 639.5 Q341 660 311 660 Q281 660 255 639 Q229 618 229 575 L229 474 L326 474 L326 368 L229 368 L229 0 L109 0 L109 368 L16 368 L16 474 L109 474 L109 585 Q109 629 125 663 Q141 697 168 720.5 Q195 744 232 756 Q269 768 311 768 Q353 768 389 756 Q425 744 452 720.5 Q479 697 494 663 Q509 629 509 585 L509 0 L389 0 L389 575 Z " />
<glyph glyph-name="ffl" unicode="&#xfb04;" horiz-adv-x="853" d="M659 575 Q659 619 635 639.5 Q611 660 581 660 Q551 660 525 639 Q499 618 499 575 L499 474 L596 474 L596 368 L499 368 L499 0 L379 0 L379 368 L221 368 L221 0 L101 0 L101 368 L16 368 L16 474 L101 474 L101 585 Q101 629 116.5 663 Q132 697 159.5 720.5 Q187 744 223.5 756 Q260 768 302 768 Q346 768 381 756 Q416 744 440 724 Q466 746 503 757 Q540 768 581 768 Q623 768 659 756 Q695 744 722 720.5 Q749 697 764 663 Q779 629 779 585 L779 0 L659 0 L659 575 Z M379 474 L379 597 Q379 625 357.5 642.5 Q336 660 302 660 Q272 660 246.5 639.5 Q221 619 221 575 L221 474 L379 474 Z " />
<glyph glyph-name="fft" unicode="&#xe776;" horiz-adv-x="1001" d="M222 474 L414 474 L414 586 Q414 637 430 672 Q446 707 471 728.5 Q496 750 526.5 759 Q557 768 586 768 Q611 768 631 763.5 Q651 759 666 754 Q683 748 697 740 L652 639 Q646 643 638 647 Q631 650 621 653 Q611 656 598 656 Q573 656 553.5 637 Q534 618 534 572 L534 474 L700 474 L700 603 L820 603 L820 474 L963 474 L963 368 L820 368 L820 175 Q820 130 839.5 115 Q859 100 883 100 Q893 100 902 102.5 Q911 105 918 108 Q926 112 933 117 L976 19 Q963 10 945 3 Q930 -3 909 -7.5 Q888 -12 862 -12 Q827 -12 797.5 -1 Q768 10 746.5 31 Q725 52 712.5 83 Q700 114 700 154 L700 368 L534 368 L534 0 L414 0 L414 368 L222 368 L222 0 L102 0 L102 368 L16 368 L16 474 L102 474 L102 586 Q102 637 118 672 Q134 707 159 728.5 Q184 750 214.5 759 Q245 768 274 768 Q299 768 319 763.5 Q339 759 354 754 Q371 748 385 740 L340 639 Q334 643 326 647 Q319 650 309 653 Q299 656 286 656 Q261 656 241.5 637 Q222 618 222 572 L222 474 Z " />
<glyph glyph-name="germandbls" unicode="&#xdf;" horiz-adv-x="601" d="M64 543 Q64 594 81 636 Q98 678 128.5 707 Q159 736 202 752 Q245 768 298 768 Q339 768 378.5 755 Q418 742 448.5 715.5 Q479 689 497.5 649 Q516 609 516 556 Q516 516 503 490 Q490 464 474 447 Q456 428 433 416 Q470 408 499 385 Q524 365 544.5 327.5 Q565 290 565 226 Q565 161 543.5 115.5 Q522 70 484 41.5 Q446 13 394.5 0.5 Q343 -12 283 -12 L263 -12 L263 100 L278 100 Q324 100 355.5 110 Q387 120 406.5 137 Q426 154 434.5 177 Q443 200 443 226 Q443 252 435 275 Q427 298 407 315 Q387 332 354 342 Q321 352 271 352 L271 458 Q313 458 337.5 469.5 Q362 481 374.5 496.5 Q387 512 390.5 529 Q394 546 394 557 Q394 572 388 589 Q382 606 370 620.5 Q358 635 339.5 644.5 Q321 654 296 654 Q243 654 213.5 624 Q184 594 184 543 L184 0 L64 0 L64 543 Z " />
<glyph glyph-name="dieresis" unicode="&#xa8;" horiz-adv-x="392" d="M14 621 Q14 654 37 677 Q60 700 93 700 Q126 700 149 677 Q172 654 172 621 Q172 588 149 565 Q126 542 93 542 Q60 542 37 565 Q14 588 14 621 Z M220 621 Q220 654 243 677 Q266 700 299 700 Q332 700 355 677 Q378 654 378 621 Q378 588 355 565 Q332 542 299 542 Q266 542 243 565 Q220 588 220 621 Z " />
<glyph glyph-name="acute" unicode="&#xb4;" horiz-adv-x="272" d="M272 674 L97 506 L20 579 L191 753 L272 674 Z " />
<glyph glyph-name="grave" unicode="&#x60;" horiz-adv-x="272" d="M81 754 L252 580 L175 507 L0 675 L81 754 Z " />
<glyph glyph-name="circumflex" unicode="&#x2c6;" horiz-adv-x="424" d="M212 730 L398 596 L332 514 L212 605 L90 514 L26 596 L212 730 Z " />
<glyph glyph-name="caron" unicode="&#x2c7;" horiz-adv-x="424" d="M26 647 L92 729 L212 638 L332 729 L398 647 L212 513 L26 647 Z " />
<glyph glyph-name="breve" unicode="&#x2d8;" horiz-adv-x="410" d="M134 700 Q134 680 142 664 Q149 650 163.5 639 Q178 628 205 628 Q232 628 246 639 Q260 650 267 664 Q275 680 276 700 L384 700 Q381 654 362 618 Q354 603 341 588 Q328 573 309 561.5 Q290 550 264.5 543 Q239 536 205 536 Q171 536 145.5 543 Q120 550 101 561.5 Q82 573 69 588 Q56 603 48 618 Q29 654 26 700 L134 700 Z " />
<glyph glyph-name="dotaccent" unicode="&#x2d9;" horiz-adv-x="240" d="M41 623 Q41 656 64 679 Q87 702 120 702 Q153 702 176 679 Q199 656 199 623 Q199 590 176 567 Q153 544 120 544 Q87 544 64 567 Q41 590 41 623 Z " />
<glyph glyph-name="ring" unicode="&#x2da;" horiz-adv-x="256" d="M6 643 Q6 668 16 689.5 Q26 711 42.5 727.5 Q59 744 81 753.5 Q103 763 128 763 Q153 763 175 753.5 Q197 744 213.5 727.5 Q230 711 240 689.5 Q250 668 250 643 Q250 618 240 596.5 Q230 575 213.5 558.5 Q197 542 175 532.5 Q153 523 128 523 Q103 523 81 532.5 Q59 542 42.5 558.5 Q26 575 16 596.5 Q6 618 6 643 Z M74 643 Q74 620 89.5 604.5 Q105 589 128 589 Q151 589 166.5 604.5 Q182 620 182 643 Q182 666 166.5 681.5 Q151 697 128 697 Q105 697 89.5 681.5 Q74 666 74 643 Z " />
<glyph glyph-name="cedilla" unicode="&#xb8;" horiz-adv-x="315" d="M173 -271 L62 -239 L134 -45 L241 -57 L173 -271 Z " />
<glyph glyph-name="ogonek" unicode="&#x2db;" horiz-adv-x="256" d="M196 0 Q170 -9 151 -21 Q134 -32 120.5 -46.5 Q107 -61 107 -80 Q107 -101 120.5 -114 Q134 -127 158 -127 Q174 -127 185 -124 Q191 -122 196 -120 L196 -215 Q184 -219 172 -221 Q160 -223 145 -223 Q114 -223 90 -213 Q66 -203 49 -187 Q32 -171 23 -150.5 Q14 -130 14 -109 Q14 -80 24.5 -60 Q35 -40 49 -26 Q65 -10 85 0 L196 0 Z " />
<glyph glyph-name="tilde" unicode="&#x2dc;" horiz-adv-x="425" d="M9 598 Q21 627 39 650 Q55 670 80 686 Q105 702 143 702 Q165 702 184 693 Q203 684 219.5 673 Q236 662 251 653 Q266 644 280 644 Q296 644 306.5 654 Q317 664 323 676 Q330 690 334 709 L416 644 Q405 614 387 591 Q372 571 347 554.5 Q322 538 286 538 Q264 538 245.5 547 Q227 556 210 566.5 Q193 577 178 586 Q163 595 149 595 Q132 595 122 586 Q112 577 105 566 Q97 553 93 537 L9 598 Z " />
<glyph glyph-name="hungarumlaut" unicode="&#x2dd;" horiz-adv-x="382" d="M211 691 L83 514 L7 561 L127 745 L211 691 Z M380 691 L252 514 L176 561 L296 745 L380 691 Z " />
<glyph glyph-name="macron" unicode="&#xaf;" horiz-adv-x="334" d="M6 680 L328 680 L328 572 L6 572 L6 680 Z " />
<glyph glyph-name="logicalnot" unicode="&#xac;" horiz-adv-x="674" d="M18 508 L618 508 L618 192 L500 192 L500 394 L18 394 L18 508 Z " />
<glyph glyph-name="&amp;#x394;" unicode="&#x394;" horiz-adv-x="836" d="M418 756 L832 0 L4 0 L418 756 Z M645 114 L418 528 L191 114 L645 114 Z " />
<glyph glyph-name="&amp;#x2206;" unicode="&#x2206;" horiz-adv-x="836" d="M418 756 L832 0 L4 0 L418 756 Z M645 114 L418 528 L191 114 L645 114 Z " />
<glyph glyph-name="&amp;#x3a9;" unicode="&#x3a9;" horiz-adv-x="788" d="M394 712 Q464 712 528 686.5 Q592 661 640 615 Q688 569 716.5 505 Q745 441 745 363 Q745 320 734.5 282.5 Q724 245 705.5 213.5 Q687 182 662 157 Q637 132 607 114 L720 114 L720 0 L461 0 L461 114 Q497 127 527 151.5 Q557 176 578 209 Q599 242 611 281.5 Q623 321 623 363 Q623 414 606.5 457.5 Q590 501 560 533 Q530 565 488 583.5 Q446 602 394 602 Q342 602 300 583.5 Q258 565 228 533 Q198 501 181.5 457.5 Q165 414 165 363 Q165 321 176.5 281.5 Q188 242 209.5 209 Q231 176 261 151.5 Q291 127 327 114 L327 0 L68 0 L68 114 L181 114 Q121 150 82 213 Q43 276 43 363 Q43 441 71.5 505 Q100 569 148 615 Q196 661 259.5 686.5 Q323 712 394 712 Z " />
<glyph glyph-name="&amp;#x2126;" unicode="&#x2126;" horiz-adv-x="788" d="M394 712 Q464 712 528 686.5 Q592 661 640 615 Q688 569 716.5 505 Q745 441 745 363 Q745 320 734.5 282.5 Q724 245 705.5 213.5 Q687 182 662 157 Q637 132 607 114 L720 114 L720 0 L461 0 L461 114 Q497 127 527 151.5 Q557 176 578 209 Q599 242 611 281.5 Q623 321 623 363 Q623 414 606.5 457.5 Q590 501 560 533 Q530 565 488 583.5 Q446 602 394 602 Q342 602 300 583.5 Q258 565 228 533 Q198 501 181.5 457.5 Q165 414 165 363 Q165 321 176.5 281.5 Q188 242 209.5 209 Q231 176 261 151.5 Q291 127 327 114 L327 0 L68 0 L68 114 L181 114 Q121 150 82 213 Q43 276 43 363 Q43 441 71.5 505 Q100 569 148 615 Q196 661 259.5 686.5 Q323 712 394 712 Z " />
<glyph glyph-name="&amp;#xb5;" unicode="&#xb5;" horiz-adv-x="548" d="M234 -12 Q207 -12 180 -4 L180 -230 L60 -230 L60 474 L180 474 L180 200 Q180 147 204 123.5 Q228 100 274 100 Q297 100 314.5 109 Q332 118 344 129 Q358 141 368 158 L368 474 L488 474 L488 0 L376 0 L376 69 Q361 46 341 28 Q324 13 297 0.5 Q270 -12 234 -12 Z " />
<glyph glyph-name="&amp;#x3bc;" unicode="&#x3bc;" horiz-adv-x="548" d="M234 -12 Q207 -12 180 -4 L180 -230 L60 -230 L60 474 L180 474 L180 200 Q180 147 204 123.5 Q228 100 274 100 Q297 100 314.5 109 Q332 118 344 129 Q358 141 368 158 L368 474 L488 474 L488 0 L376 0 L376 69 Q361 46 341 28 Q324 13 297 0.5 Q270 -12 234 -12 Z " />
<glyph glyph-name="pi" unicode="&#x3c0;" horiz-adv-x="571" d="M320 360 L230 360 L230 0 L110 0 L110 360 L26 360 L26 474 L539 474 L539 360 L440 360 L440 153 Q440 126 451 113 Q462 100 482 100 Q498 100 506 105 Q510 107 514 110 L553 11 Q531 -2 506.5 -7 Q482 -12 465 -12 Q443 -12 417.5 -5 Q392 2 370.5 19.5 Q349 37 334.5 65.5 Q320 94 320 138 L320 360 Z " />
<glyph glyph-name="partialdiff" unicode="&#x2202;" horiz-adv-x="544" d="M272 486 Q298 486 325.5 479.5 Q353 473 371 463 Q356 487 335.5 507.5 Q315 528 292 544.5 Q269 561 244.5 574 Q220 587 196 597 Q141 620 81 633 L106 733 Q223 714 315 660 Q354 637 391.5 604 Q429 571 458.5 526 Q488 481 506 422.5 Q524 364 524 290 L524 277 Q524 224 510 172 Q496 120 466 79 Q436 38 388 13 Q340 -12 272 -12 Q217 -12 170.5 7.5 Q124 27 90.5 60.5 Q57 94 38.5 139.5 Q20 185 20 237 Q20 289 38.5 334.5 Q57 380 90.5 414 Q124 448 170.5 467 Q217 486 272 486 Z M272 100 Q302 100 326 111 Q350 122 367 140.5 Q384 159 393 184 Q402 209 402 237 Q402 265 393 289.5 Q384 314 367 333 Q350 352 326 363 Q302 374 272 374 Q242 374 218 363 Q194 352 177 333 Q160 314 151 289.5 Q142 265 142 237 Q142 209 151 184 Q160 159 177 140.5 Q194 122 218 111 Q242 100 272 100 Z " />
<glyph glyph-name="product" unicode="&#x220f;" horiz-adv-x="707" d="M635 -230 L515 -230 L515 586 L192 586 L192 -230 L72 -230 L72 700 L635 700 L635 -230 Z " />
<glyph glyph-name="summation" unicode="&#x2211;" horiz-adv-x="738" d="M349 236 L26 700 L690 700 L690 586 L253 586 L497 236 L250 -116 L690 -116 L690 -230 L24 -230 L349 236 Z " />
<glyph glyph-name="radical" unicode="&#x221a;" horiz-adv-x="625" d="M542 960 L656 960 L340 -20 L141 360 L30 360 L30 474 L206 474 L318 257 L542 960 Z " />
<glyph glyph-name="infinity" unicode="&#x221e;" horiz-adv-x="838" d="M726 252 Q726 274 717.5 293 Q709 312 694.5 325 Q680 338 661.5 345.5 Q643 353 623 353 Q599 353 577.5 341.5 Q556 330 537.5 314 Q519 298 504 281 Q489 264 478 252 Q489 240 504 223 Q519 206 537.5 190 Q556 174 577.5 162.5 Q599 151 623 151 Q643 151 661.5 158.5 Q680 166 694.5 179 Q709 192 717.5 210.5 Q726 229 726 252 Z M112 252 Q112 229 120.5 210.5 Q129 192 143 179 Q157 166 176 158.5 Q195 151 215 151 Q239 151 260.5 162.5 Q282 174 300.5 190 Q319 206 334 223 Q349 240 360 252 Q349 264 334 281 Q319 298 300.5 314 Q282 330 260.5 341.5 Q239 353 215 353 Q195 353 176 345.5 Q157 338 143 325 Q129 312 120.5 293 Q112 274 112 252 Z M25 252 Q25 288 38 322.5 Q51 357 78 384 Q107 413 142.5 427 Q178 441 215 441 Q252 441 289 424 Q326 407 355 378 L419 312 L483 378 Q512 407 549 424 Q586 441 623 441 Q660 441 695.5 427 Q731 413 760 384 Q787 357 800 322.5 Q813 288 813 252 Q813 216 800 181.5 Q787 147 760 120 Q731 91 695.5 77 Q660 63 623 63 Q586 63 549 80 Q512 97 483 126 L419 192 L355 126 Q326 97 289 80 Q252 63 215 63 Q178 63 142.5 77 Q107 91 78 120 Q51 147 38 181.5 Q25 216 25 252 Z " />
<glyph glyph-name="integral" unicode="&#x222b;" horiz-adv-x="418" d="M269 -71 Q269 -114 256 -146 Q243 -178 221 -199.5 Q199 -221 169.5 -231.5 Q140 -242 108 -242 Q85 -242 65 -237.5 Q45 -233 31 -227 Q13 -221 0 -212 L46 -114 Q53 -118 60 -122 Q66 -125 74 -127.5 Q82 -130 92 -130 Q118 -130 133.5 -114 Q149 -98 149 -66 L149 599 Q149 642 162 674 Q175 706 197 727 Q219 748 248 758 Q277 768 309 768 Q332 768 351.5 763 Q371 758 385 753 Q402 746 416 738 L371 640 Q364 644 357 648 Q351 651 342.5 653.5 Q334 656 325 656 Q299 656 284 640 Q269 624 269 592 L269 -71 Z " />
<glyph glyph-name="lozenge" unicode="&#x25ca;" horiz-adv-x="488" d="M365 357 L244 537 L120 357 L244 169 L365 357 Z M244 712 L486 357 L244 -12 L2 357 L244 712 Z " />
<glyph glyph-name="asterisk" unicode="&#x2a;" horiz-adv-x="398" d="M125 348 L56 397 L133 502 L6 542 L33 621 L157 580 L157 712 L241 712 L241 580 L365 621 L392 542 L265 502 L342 397 L273 348 L199 453 L125 348 Z " />
<glyph glyph-name="asciicircum" unicode="&#x5e;" horiz-adv-x="537" d="M216 756 L321 756 L527 350 L402 350 L269 624 L134 350 L10 350 L216 756 Z " />
<glyph glyph-name="degree" unicode="&#xb0;" horiz-adv-x="357" d="M22 555 Q22 588 34 616.5 Q46 645 67 666 Q88 687 116.5 699.5 Q145 712 178 712 Q211 712 239.5 699.5 Q268 687 289 666 Q310 645 322.5 616.5 Q335 588 335 555 Q335 522 322.5 493.5 Q310 465 289 444 Q268 423 239.5 411 Q211 399 178 399 Q145 399 116.5 411 Q88 423 67 444 Q46 465 34 493.5 Q22 522 22 555 Z M108 555 Q108 525 129 504.5 Q150 484 179 484 Q208 484 229 504.5 Q250 525 250 555 Q250 585 229 605.5 Q208 626 179 626 Q150 626 129 605.5 Q108 585 108 555 Z " />
<glyph glyph-name="dagger" unicode="&#x2020;" horiz-adv-x="520" d="M63 526 L199 526 L199 700 L319 700 L319 526 L457 526 L457 412 L319 412 L319 -80 L199 -80 L199 412 L63 412 L63 526 Z " />
<glyph glyph-name="daggerdbl" unicode="&#x2021;" horiz-adv-x="520" d="M63 208 L199 208 L199 412 L63 412 L63 526 L199 526 L199 700 L319 700 L319 526 L457 526 L457 412 L319 412 L319 208 L457 208 L457 94 L319 94 L319 -80 L199 -80 L199 94 L63 94 L63 208 Z " />
<glyph glyph-name="plus" unicode="&#x2b;" horiz-adv-x="520" d="M497 190 L320 190 L320 0 L200 0 L200 190 L23 190 L23 302 L200 302 L200 486 L320 486 L320 302 L497 302 L497 190 Z " />
<glyph glyph-name="plusminus" unicode="&#xb1;" horiz-adv-x="520" d="M38 102 L482 102 L482 0 L38 0 L38 102 Z M38 371 L205 371 L205 501 L315 501 L315 371 L482 371 L482 269 L315 269 L315 146 L205 146 L205 269 L38 269 L38 371 Z " />
<glyph glyph-name="minus" unicode="&#x2212;" horiz-adv-x="520" d="M35 302 L485 302 L485 190 L35 190 L35 302 Z " />
<glyph glyph-name="divide" unicode="&#xf7;" horiz-adv-x="520" d="M180 67 Q180 100 203 123 Q226 146 259 146 Q292 146 315 123 Q338 100 338 67 Q338 34 315 11 Q292 -12 259 -12 Q226 -12 203 11 Q180 34 180 67 Z M180 407 Q180 440 203 463 Q226 486 259 486 Q292 486 315 463 Q338 440 338 407 Q338 374 315 351 Q292 328 259 328 Q226 328 203 351 Q180 374 180 407 Z M35 292 L485 292 L485 182 L35 182 L35 292 Z " />
<glyph glyph-name="multiply" unicode="&#xd7;" horiz-adv-x="520" d="M29 102 L182 255 L29 408 L107 486 L260 333 L413 486 L491 408 L338 255 L491 102 L413 24 L260 177 L107 24 L29 102 Z " />
<glyph glyph-name="equal" unicode="&#x3d;" horiz-adv-x="520" d="M45 226 L475 226 L475 116 L45 116 L45 226 Z M45 412 L475 412 L475 302 L45 302 L45 412 Z " />
<glyph glyph-name="notequal" unicode="&#x2260;" horiz-adv-x="520" d="M485 628 L369 409 L472 409 L472 299 L310 299 L273 229 L472 229 L472 119 L215 119 L89 -119 L35 -88 L144 119 L42 119 L42 229 L203 229 L240 299 L42 299 L42 409 L298 409 L431 659 L485 628 Z " />
<glyph glyph-name="approxequal" unicode="&#x2248;" horiz-adv-x="520" d="M45 339 Q56 364 74 383 Q89 400 112.5 414 Q136 428 170 428 Q191 428 211.5 420 Q232 412 251 403 Q270 394 287 386 Q304 378 319 378 Q340 378 353 386 Q366 394 373 405 Q381 416 384 432 L456 367 Q443 341 425 321 Q409 304 384 289.5 Q359 275 324 275 Q304 275 283 282.5 Q262 290 242.5 299.5 Q223 309 205 316.5 Q187 324 172 324 Q155 324 144.5 316.5 Q134 309 128 300 Q121 289 117 276 L45 339 Z M65 155 Q76 180 94 199 Q109 216 132 230 Q155 244 189 244 Q209 244 229.5 236 Q250 228 269.5 219 Q289 210 306.5 202 Q324 194 339 194 Q360 194 373 202 Q386 210 393 221 Q401 232 404 248 L476 183 Q463 157 445 137 Q429 120 404 105.5 Q379 91 344 91 Q323 91 302 98.5 Q281 106 261.5 115.5 Q242 125 225 132.5 Q208 140 193 140 Q176 140 165 132.5 Q154 125 148 116 Q141 105 137 92 L65 155 Z " />
<glyph glyph-name="less" unicode="&#x3c;" horiz-adv-x="520" d="M18 321 L480 518 L480 395 L177 271 L480 146 L480 23 L18 221 L18 321 Z " />
<glyph glyph-name="greater" unicode="&#x3e;" horiz-adv-x="520" d="M506 221 L44 23 L44 146 L347 271 L44 395 L44 518 L506 321 L506 221 Z " />
<glyph glyph-name="lessequal" unicode="&#x2264;" horiz-adv-x="520" d="M19 102 L481 102 L481 0 L19 0 L19 102 Z M19 427 L481 624 L481 509 L178 385 L481 260 L481 145 L19 343 L19 427 Z " />
<glyph glyph-name="greaterequal" unicode="&#x2265;" horiz-adv-x="520" d="M504 0 L42 0 L42 102 L504 102 L504 0 Z M504 343 L42 145 L42 260 L345 385 L42 509 L42 624 L504 427 L504 343 Z " />
<glyph glyph-name="Agrave" unicode="&#xc0;" horiz-adv-x="678" d="M278 700 L400 700 L672 0 L551 0 L487 166 L191 166 L127 0 L6 0 L278 700 Z M234 276 L444 276 L339 549 L234 276 Z M272 992 L443 818 L366 745 L191 913 L272 992 Z " />
<glyph glyph-name="agrave" unicode="&#xe0;" horiz-adv-x="536" d="M246 88 Q273 88 293.5 96 Q314 104 328 115 Q344 127 356 143 L356 192 Q343 199 326 204 Q312 209 292 212.5 Q272 216 248 216 Q234 216 218.5 212.5 Q203 209 190 201.5 Q177 194 168.5 181 Q160 168 160 149 Q160 130 168 118 Q176 106 189 99.5 Q202 93 217 90.5 Q232 88 246 88 Z M260 486 Q363 486 419.5 438 Q476 390 476 309 L476 0 L365 0 L365 60 Q350 40 327 24 Q307 10 278 -1 Q249 -12 209 -12 Q176 -12 145 -1.5 Q114 9 90 29.5 Q66 50 52 79.5 Q38 109 38 147 Q38 181 52.5 210 Q67 239 92.5 260 Q118 281 151.5 292.5 Q185 304 224 304 Q256 304 281 298.5 Q306 293 323 287 Q342 279 356 270 L356 297 Q356 320 346 336 Q336 352 321 361.5 Q306 371 288 375 Q270 379 254 379 Q228 379 202.5 373.5 Q177 368 157 361 Q133 353 112 344 L73 443 Q99 454 129 464 Q155 472 188.5 479 Q222 486 260 486 Z M214 783 L385 609 L308 536 L133 704 L214 783 Z " />
<glyph glyph-name="Aacute" unicode="&#xc1;" horiz-adv-x="678" d="M278 700 L400 700 L672 0 L551 0 L487 166 L191 166 L127 0 L6 0 L278 700 Z M234 276 L444 276 L339 549 L234 276 Z M490 912 L315 744 L238 817 L409 991 L490 912 Z " />
<glyph glyph-name="aacute" unicode="&#xe1;" horiz-adv-x="536" d="M425 704 L250 536 L173 609 L344 783 L425 704 Z M246 88 Q273 88 293.5 96 Q314 104 328 115 Q344 127 356 143 L356 192 Q343 199 326 204 Q312 209 292 212.5 Q272 216 248 216 Q234 216 218.5 212.5 Q203 209 190 201.5 Q177 194 168.5 181 Q160 168 160 149 Q160 130 168 118 Q176 106 189 99.5 Q202 93 217 90.5 Q232 88 246 88 Z M260 486 Q363 486 419.5 438 Q476 390 476 309 L476 0 L365 0 L365 60 Q350 40 327 24 Q307 10 278 -1 Q249 -12 209 -12 Q176 -12 145 -1.5 Q114 9 90 29.5 Q66 50 52 79.5 Q38 109 38 147 Q38 181 52.5 210 Q67 239 92.5 260 Q118 281 151.5 292.5 Q185 304 224 304 Q256 304 281 298.5 Q306 293 323 287 Q342 279 356 270 L356 297 Q356 320 346 336 Q336 352 321 361.5 Q306 371 288 375 Q270 379 254 379 Q228 379 202.5 373.5 Q177 368 157 361 Q133 353 112 344 L73 443 Q99 454 129 464 Q155 472 188.5 479 Q222 486 260 486 Z " />
<glyph glyph-name="Acircumflex" unicode="&#xc2;" horiz-adv-x="678" d="M278 700 L400 700 L672 0 L551 0 L487 166 L191 166 L127 0 L6 0 L278 700 Z M234 276 L444 276 L339 549 L234 276 Z M339 958 L525 824 L459 742 L339 833 L217 742 L153 824 L339 958 Z " />
<glyph glyph-name="acircumflex" unicode="&#xe2;" horiz-adv-x="536" d="M246 88 Q273 88 293.5 96 Q314 104 328 115 Q344 127 356 143 L356 192 Q343 199 326 204 Q312 209 292 212.5 Q272 216 248 216 Q234 216 218.5 212.5 Q203 209 190 201.5 Q177 194 168.5 181 Q160 168 160 149 Q160 130 168 118 Q176 106 189 99.5 Q202 93 217 90.5 Q232 88 246 88 Z M260 486 Q363 486 419.5 438 Q476 390 476 309 L476 0 L365 0 L365 60 Q350 40 327 24 Q307 10 278 -1 Q249 -12 209 -12 Q176 -12 145 -1.5 Q114 9 90 29.5 Q66 50 52 79.5 Q38 109 38 147 Q38 181 52.5 210 Q67 239 92.5 260 Q118 281 151.5 292.5 Q185 304 224 304 Q256 304 281 298.5 Q306 293 323 287 Q342 279 356 270 L356 297 Q356 320 346 336 Q336 352 321 361.5 Q306 371 288 375 Q270 379 254 379 Q228 379 202.5 373.5 Q177 368 157 361 Q133 353 112 344 L73 443 Q99 454 129 464 Q155 472 188.5 479 Q222 486 260 486 Z M285 740 L471 606 L405 524 L285 615 L163 524 L99 606 L285 740 Z " />
<glyph glyph-name="Atilde" unicode="&#xc3;" horiz-adv-x="678" d="M278 700 L400 700 L672 0 L551 0 L487 166 L191 166 L127 0 L6 0 L278 700 Z M234 276 L444 276 L339 549 L234 276 Z M136 836 Q148 865 166 888 Q182 908 207 924 Q232 940 270 940 Q292 940 311 931 Q330 922 346.5 911 Q363 900 378 891 Q393 882 407 882 Q423 882 433.5 892 Q444 902 450 914 Q457 928 461 947 L543 882 Q532 852 514 829 Q499 809 474 792.5 Q449 776 413 776 Q391 776 372.5 785 Q354 794 337 804.5 Q320 815 305 824 Q290 833 276 833 Q259 833 249 824 Q239 815 232 804 Q224 791 220 775 L136 836 Z " />
<glyph glyph-name="atilde" unicode="&#xe3;" horiz-adv-x="536" d="M246 88 Q273 88 293.5 96 Q314 104 328 115 Q344 127 356 143 L356 192 Q343 199 326 204 Q312 209 292 212.5 Q272 216 248 216 Q234 216 218.5 212.5 Q203 209 190 201.5 Q177 194 168.5 181 Q160 168 160 149 Q160 130 168 118 Q176 106 189 99.5 Q202 93 217 90.5 Q232 88 246 88 Z M260 486 Q363 486 419.5 438 Q476 390 476 309 L476 0 L365 0 L365 60 Q350 40 327 24 Q307 10 278 -1 Q249 -12 209 -12 Q176 -12 145 -1.5 Q114 9 90 29.5 Q66 50 52 79.5 Q38 109 38 147 Q38 181 52.5 210 Q67 239 92.5 260 Q118 281 151.5 292.5 Q185 304 224 304 Q256 304 281 298.5 Q306 293 323 287 Q342 279 356 270 L356 297 Q356 320 346 336 Q336 352 321 361.5 Q306 371 288 375 Q270 379 254 379 Q228 379 202.5 373.5 Q177 368 157 361 Q133 353 112 344 L73 443 Q99 454 129 464 Q155 472 188.5 479 Q222 486 260 486 Z M66 615 Q78 644 96 667 Q112 687 137 703 Q162 719 200 719 Q222 719 241 710 Q260 701 276.5 690 Q293 679 308 670 Q323 661 337 661 Q353 661 363.5 671 Q374 681 380 693 Q387 707 391 726 L473 661 Q462 631 444 608 Q429 588 404 571.5 Q379 555 343 555 Q321 555 302.5 564 Q284 573 267 583.5 Q250 594 235 603 Q220 612 206 612 Q189 612 179 603 Q169 594 162 583 Q154 570 150 554 L66 615 Z " />
<glyph glyph-name="Adieresis" unicode="&#xc4;" horiz-adv-x="678" d="M278 700 L400 700 L672 0 L551 0 L487 166 L191 166 L127 0 L6 0 L278 700 Z M234 276 L444 276 L339 549 L234 276 Z M157 859 Q157 892 180 915 Q203 938 236 938 Q269 938 292 915 Q315 892 315 859 Q315 826 292 803 Q269 780 236 780 Q203 780 180 803 Q157 826 157 859 Z M363 859 Q363 892 386 915 Q409 938 442 938 Q475 938 498 915 Q521 892 521 859 Q521 826 498 803 Q475 780 442 780 Q409 780 386 803 Q363 826 363 859 Z " />
<glyph glyph-name="adieresis" unicode="&#xe4;" horiz-adv-x="536" d="M246 88 Q273 88 293.5 96 Q314 104 328 115 Q344 127 356 143 L356 192 Q343 199 326 204 Q312 209 292 212.5 Q272 216 248 216 Q234 216 218.5 212.5 Q203 209 190 201.5 Q177 194 168.5 181 Q160 168 160 149 Q160 130 168 118 Q176 106 189 99.5 Q202 93 217 90.5 Q232 88 246 88 Z M260 486 Q363 486 419.5 438 Q476 390 476 309 L476 0 L365 0 L365 60 Q350 40 327 24 Q307 10 278 -1 Q249 -12 209 -12 Q176 -12 145 -1.5 Q114 9 90 29.5 Q66 50 52 79.5 Q38 109 38 147 Q38 181 52.5 210 Q67 239 92.5 260 Q118 281 151.5 292.5 Q185 304 224 304 Q256 304 281 298.5 Q306 293 323 287 Q342 279 356 270 L356 297 Q356 320 346 336 Q336 352 321 361.5 Q306 371 288 375 Q270 379 254 379 Q228 379 202.5 373.5 Q177 368 157 361 Q133 353 112 344 L73 443 Q99 454 129 464 Q155 472 188.5 479 Q222 486 260 486 Z M95 631 Q95 664 118 687 Q141 710 174 710 Q207 710 230 687 Q253 664 253 631 Q253 598 230 575 Q207 552 174 552 Q141 552 118 575 Q95 598 95 631 Z M301 631 Q301 664 324 687 Q347 710 380 710 Q413 710 436 687 Q459 664 459 631 Q459 598 436 575 Q413 552 380 552 Q347 552 324 575 Q301 598 301 631 Z " />
<glyph glyph-name="Aring" unicode="&#xc5;" horiz-adv-x="678" d="M278 700 L400 700 L672 0 L551 0 L487 166 L191 166 L127 0 L6 0 L278 700 Z M234 276 L444 276 L339 549 L234 276 Z M217 863 Q217 888 227 909.5 Q237 931 253.5 947.5 Q270 964 292 973.5 Q314 983 339 983 Q364 983 386 973.5 Q408 964 424.5 947.5 Q441 931 451 909.5 Q461 888 461 863 Q461 838 451 816.5 Q441 795 424.5 778.5 Q408 762 386 752.5 Q364 743 339 743 Q314 743 292 752.5 Q270 762 253.5 778.5 Q237 795 227 816.5 Q217 838 217 863 Z M285 863 Q285 840 300.5 824.5 Q316 809 339 809 Q362 809 377.5 824.5 Q393 840 393 863 Q393 886 377.5 901.5 Q362 917 339 917 Q316 917 300.5 901.5 Q285 886 285 863 Z " />
<glyph glyph-name="aring" unicode="&#xe5;" horiz-adv-x="536" d="M246 88 Q273 88 293.5 96 Q314 104 328 115 Q344 127 356 143 L356 192 Q343 199 326 204 Q312 209 292 212.5 Q272 216 248 216 Q234 216 218.5 212.5 Q203 209 190 201.5 Q177 194 168.5 181 Q160 168 160 149 Q160 130 168 118 Q176 106 189 99.5 Q202 93 217 90.5 Q232 88 246 88 Z M260 486 Q363 486 419.5 438 Q476 390 476 309 L476 0 L365 0 L365 60 Q350 40 327 24 Q307 10 278 -1 Q249 -12 209 -12 Q176 -12 145 -1.5 Q114 9 90 29.5 Q66 50 52 79.5 Q38 109 38 147 Q38 181 52.5 210 Q67 239 92.5 260 Q118 281 151.5 292.5 Q185 304 224 304 Q256 304 281 298.5 Q306 293 323 287 Q342 279 356 270 L356 297 Q356 320 346 336 Q336 352 321 361.5 Q306 371 288 375 Q270 379 254 379 Q228 379 202.5 373.5 Q177 368 157 361 Q133 353 112 344 L73 443 Q99 454 129 464 Q155 472 188.5 479 Q222 486 260 486 Z M146 647 Q146 672 156 693.5 Q166 715 182.5 731.5 Q199 748 221 757.5 Q243 767 268 767 Q293 767 315 757.5 Q337 748 353.5 731.5 Q370 715 380 693.5 Q390 672 390 647 Q390 622 380 600.5 Q370 579 353.5 562.5 Q337 546 315 536.5 Q293 527 268 527 Q243 527 221 536.5 Q199 546 182.5 562.5 Q166 579 156 600.5 Q146 622 146 647 Z M214 647 Q214 624 229.5 608.5 Q245 593 268 593 Q291 593 306.5 608.5 Q322 624 322 647 Q322 670 306.5 685.5 Q291 701 268 701 Q245 701 229.5 685.5 Q214 670 214 647 Z " />
<glyph glyph-name="Amacron" unicode="&#x100;" horiz-adv-x="678" d="M278 700 L400 700 L672 0 L551 0 L487 166 L191 166 L127 0 L6 0 L278 700 Z M234 276 L444 276 L339 549 L234 276 Z M178 898 L500 898 L500 790 L178 790 L178 898 Z " />
<glyph glyph-name="amacron" unicode="&#x101;" horiz-adv-x="536" d="M246 88 Q273 88 293.5 96 Q314 104 328 115 Q344 127 356 143 L356 192 Q343 199 326 204 Q312 209 292 212.5 Q272 216 248 216 Q234 216 218.5 212.5 Q203 209 190 201.5 Q177 194 168.5 181 Q160 168 160 149 Q160 130 168 118 Q176 106 189 99.5 Q202 93 217 90.5 Q232 88 246 88 Z M260 486 Q363 486 419.5 438 Q476 390 476 309 L476 0 L365 0 L365 60 Q350 40 327 24 Q307 10 278 -1 Q249 -12 209 -12 Q176 -12 145 -1.5 Q114 9 90 29.5 Q66 50 52 79.5 Q38 109 38 147 Q38 181 52.5 210 Q67 239 92.5 260 Q118 281 151.5 292.5 Q185 304 224 304 Q256 304 281 298.5 Q306 293 323 287 Q342 279 356 270 L356 297 Q356 320 346 336 Q336 352 321 361.5 Q306 371 288 375 Q270 379 254 379 Q228 379 202.5 373.5 Q177 368 157 361 Q133 353 112 344 L73 443 Q99 454 129 464 Q155 472 188.5 479 Q222 486 260 486 Z M110 675 L432 675 L432 567 L110 567 L110 675 Z " />
<glyph glyph-name="Abreve" unicode="&#x102;" horiz-adv-x="678" d="M278 700 L400 700 L672 0 L551 0 L487 166 L191 166 L127 0 L6 0 L278 700 Z M234 276 L444 276 L339 549 L234 276 Z M268 918 Q268 898 276 882 Q283 868 297.5 857 Q312 846 339 846 Q366 846 380 857 Q394 868 401 882 Q409 898 410 918 L518 918 Q515 872 496 836 Q488 821 475 806 Q462 791 443 779.5 Q424 768 398.5 761 Q373 754 339 754 Q305 754 279.5 761 Q254 768 235 779.5 Q216 791 203 806 Q190 821 182 836 Q163 872 160 918 L268 918 Z " />
<glyph glyph-name="abreve" unicode="&#x103;" horiz-adv-x="536" d="M246 88 Q273 88 293.5 96 Q314 104 328 115 Q344 127 356 143 L356 192 Q343 199 326 204 Q312 209 292 212.5 Q272 216 248 216 Q234 216 218.5 212.5 Q203 209 190 201.5 Q177 194 168.5 181 Q160 168 160 149 Q160 130 168 118 Q176 106 189 99.5 Q202 93 217 90.5 Q232 88 246 88 Z M260 486 Q363 486 419.5 438 Q476 390 476 309 L476 0 L365 0 L365 60 Q350 40 327 24 Q307 10 278 -1 Q249 -12 209 -12 Q176 -12 145 -1.5 Q114 9 90 29.5 Q66 50 52 79.5 Q38 109 38 147 Q38 181 52.5 210 Q67 239 92.5 260 Q118 281 151.5 292.5 Q185 304 224 304 Q256 304 281 298.5 Q306 293 323 287 Q342 279 356 270 L356 297 Q356 320 346 336 Q336 352 321 361.5 Q306 371 288 375 Q270 379 254 379 Q228 379 202.5 373.5 Q177 368 157 361 Q133 353 112 344 L73 443 Q99 454 129 464 Q155 472 188.5 479 Q222 486 260 486 Z M197 712 Q197 692 205 676 Q212 662 226.5 651 Q241 640 268 640 Q295 640 309 651 Q323 662 330 676 Q338 692 339 712 L447 712 Q444 666 425 630 Q417 615 404 600 Q391 585 372 573.5 Q353 562 327.5 555 Q302 548 268 548 Q234 548 208.5 555 Q183 562 164 573.5 Q145 585 132 600 Q119 615 111 630 Q92 666 89 712 L197 712 Z " />
<glyph glyph-name="Aogonek" unicode="&#x104;" horiz-adv-x="678" d="M278 700 L400 700 L672 0 Q644 -5 622 -16 Q603 -25 588 -40 Q573 -55 573 -78 Q573 -99 586.5 -113 Q600 -127 624 -127 Q640 -127 651 -124 Q657 -122 662 -120 L662 -215 Q650 -219 638 -221 Q626 -223 611 -223 Q580 -223 556 -213 Q532 -203 515 -186.5 Q498 -170 489 -149 Q480 -128 480 -107 Q480 -78 489 -56.5 Q498 -35 509.5 -21 Q521 -7 532 1 Q543 9 547 11 L487 166 L191 166 L127 0 L6 0 L278 700 Z M234 276 L444 276 L339 549 L234 276 Z " />
<glyph glyph-name="aogonek" unicode="&#x105;" horiz-adv-x="536" d="M260 486 Q311 486 351 472 Q391 458 419 434 Q447 410 461.5 378 Q476 346 476 309 L476 0 Q450 -9 431 -20 Q414 -30 400.5 -44.5 Q387 -59 387 -78 Q387 -99 400.5 -113 Q414 -127 438 -127 Q454 -127 465 -124 Q471 -122 476 -120 L476 -215 Q464 -219 452 -221 Q440 -223 425 -223 Q394 -223 370 -213 Q346 -203 329 -186.5 Q312 -170 303 -149 Q294 -128 294 -107 Q294 -76 304.5 -53.5 Q315 -31 329 -17 Q345 0 365 10 L365 60 Q350 40 327 24 Q307 10 278 -1 Q249 -12 209 -12 Q178 -12 147.5 -1.5 Q117 9 92.5 29.5 Q68 50 53 79.5 Q38 109 38 147 Q38 182 52 211 Q66 240 91 260.5 Q116 281 149 292.5 Q182 304 221 304 Q254 304 279.5 298.5 Q305 293 322 287 Q342 279 356 270 L356 297 Q356 320 345 336 Q334 352 317.5 361.5 Q301 371 282.5 375 Q264 379 248 379 Q220 379 196 373 Q172 367 154 360 Q133 351 116 341 L71 435 Q93 449 121 460 Q145 470 180 478 Q215 486 260 486 Z M246 88 Q273 88 293.5 96 Q314 104 328 115 Q344 127 356 143 L356 194 Q343 200 326 205 Q312 209 292 212.5 Q272 216 248 216 Q234 216 218.5 213 Q203 210 190 203 Q177 196 168.5 183.5 Q160 171 160 152 Q160 133 168 121 Q176 109 189 101.5 Q202 94 217 91 Q232 88 246 88 Z " />
<glyph glyph-name="AE" unicode="&#xc6;" horiz-adv-x="915" d="M287 257 L493 257 L493 605 L287 257 Z M613 416 L843 416 L843 302 L613 302 L613 112 L873 112 L873 0 L493 0 L493 143 L221 143 L136 0 L6 0 L419 700 L867 700 L867 588 L613 588 L613 416 Z " />
<glyph glyph-name="ae" unicode="&#xe6;" horiz-adv-x="865" d="M602 486 Q653 486 696.5 468 Q740 450 771 417.5 Q802 385 819.5 339.5 Q837 294 837 239 Q837 232 837 220.5 Q837 209 836 195 L485 195 Q488 179 498.5 162 Q509 145 526 130.5 Q543 116 566 107 Q589 98 617 98 Q648 98 672 105.5 Q696 113 713 122 Q732 133 747 146 L807 56 Q784 37 755 22 Q730 9 695 -1.5 Q660 -12 617 -12 Q554 -12 502.5 13 Q451 38 416 80 Q387 41 342 14.5 Q297 -12 223 -12 Q183 -12 149 -0.5 Q115 11 90.5 31 Q66 51 52 78.5 Q38 106 38 138 Q38 168 47.5 193.5 Q57 219 78.5 238.5 Q100 258 133.5 269 Q167 280 215 280 L364 280 Q364 303 352.5 321 Q341 339 323 351 Q305 363 283.5 369.5 Q262 376 241 376 Q213 376 189.5 369.5 Q166 363 149 355 Q129 345 111 334 L58 428 Q82 444 111 457 Q136 468 170 477 Q204 486 246 486 Q284 486 314 477.5 Q344 469 366 456.5 Q388 444 402.5 430 Q417 416 425 406 Q457 443 502.5 464.5 Q548 486 602 486 Z M718 280 Q717 295 710 312.5 Q703 330 689 344 Q675 358 653.5 367.5 Q632 377 602 377 Q573 377 551.5 367.5 Q530 358 516 344 Q502 330 494 313 Q486 296 485 280 L718 280 Z M239 94 Q304 94 336.5 124 Q369 154 369 194 L232 194 Q193 194 175.5 180.5 Q158 167 158 144 Q158 128 165.5 118.5 Q173 109 185 103.5 Q197 98 211.5 96 Q226 94 239 94 Z " />
<glyph glyph-name="Cacute" unicode="&#x106;" horiz-adv-x="676" d="M389 100 Q435 100 470.5 113 Q506 126 530 143 Q558 161 578 186 L658 107 Q630 73 590 47 Q556 24 505.5 6 Q455 -12 389 -12 Q313 -12 248 15.5 Q183 43 135.5 91.5 Q88 140 61 206 Q34 272 34 350 Q34 428 61 494 Q88 560 135.5 608.5 Q183 657 248 684.5 Q313 712 389 712 Q452 712 500 694.5 Q548 677 581 657 Q620 632 648 602 L567 523 Q547 544 521 561 Q498 575 465 587.5 Q432 600 389 600 Q337 600 294 580 Q251 560 220.5 525.5 Q190 491 173 446 Q156 401 156 350 Q156 299 173 254 Q190 209 220.5 174.5 Q251 140 294 120 Q337 100 389 100 Z M538 912 L363 744 L286 817 L457 991 L538 912 Z " />
<glyph glyph-name="cacute" unicode="&#x107;" horiz-adv-x="494" d="M418 694 L243 526 L166 599 L337 773 L418 694 Z M283 100 Q313 100 335.5 109 Q358 118 372 129 Q389 141 400 158 L479 78 Q458 52 429 33 Q404 16 367.5 2 Q331 -12 283 -12 Q230 -12 183.5 7.5 Q137 27 102.5 60.5 Q68 94 48 139.5 Q28 185 28 237 Q28 289 48 334.5 Q68 380 102.5 414 Q137 448 183.5 467 Q230 486 283 486 Q331 486 367 472.5 Q403 459 428 442 Q457 423 477 398 L394 324 Q382 338 365 349 Q351 358 330.5 366 Q310 374 283 374 Q253 374 228 363 Q203 352 186 333 Q169 314 159.5 289.5 Q150 265 150 237 Q150 209 159.5 184 Q169 159 186 140.5 Q203 122 228 111 Q253 100 283 100 Z " />
<glyph glyph-name="Ccircumflex" unicode="&#x108;" horiz-adv-x="676" d="M389 100 Q435 100 470.5 113 Q506 126 530 143 Q558 161 578 186 L658 107 Q630 73 590 47 Q556 24 505.5 6 Q455 -12 389 -12 Q313 -12 248 15.5 Q183 43 135.5 91.5 Q88 140 61 206 Q34 272 34 350 Q34 428 61 494 Q88 560 135.5 608.5 Q183 657 248 684.5 Q313 712 389 712 Q452 712 500 694.5 Q548 677 581 657 Q620 632 648 602 L567 523 Q547 544 521 561 Q498 575 465 587.5 Q432 600 389 600 Q337 600 294 580 Q251 560 220.5 525.5 Q190 491 173 446 Q156 401 156 350 Q156 299 173 254 Q190 209 220.5 174.5 Q251 140 294 120 Q337 100 389 100 Z M390 958 L576 824 L510 742 L390 833 L268 742 L204 824 L390 958 Z " />
<glyph glyph-name="ccircumflex" unicode="&#x109;" horiz-adv-x="497" d="M281 740 L467 606 L401 524 L281 615 L159 524 L95 606 L281 740 Z M283 100 Q313 100 335.5 109 Q358 118 372 129 Q389 141 400 158 L479 78 Q458 52 429 33 Q404 16 367.5 2 Q331 -12 283 -12 Q230 -12 183.5 7.5 Q137 27 102.5 60.5 Q68 94 48 139.5 Q28 185 28 237 Q28 289 48 334.5 Q68 380 102.5 414 Q137 448 183.5 467 Q230 486 283 486 Q331 486 367 472.5 Q403 459 428 442 Q457 423 477 398 L394 324 Q382 338 365 349 Q351 358 330.5 366 Q310 374 283 374 Q253 374 228 363 Q203 352 186 333 Q169 314 159.5 289.5 Q150 265 150 237 Q150 209 159.5 184 Q169 159 186 140.5 Q203 122 228 111 Q253 100 283 100 Z " />
<glyph glyph-name="Ccaron" unicode="&#x10c;" horiz-adv-x="676" d="M389 100 Q435 100 470.5 113 Q506 126 530 143 Q558 161 578 186 L658 107 Q630 73 590 47 Q556 24 505.5 6 Q455 -12 389 -12 Q313 -12 248 15.5 Q183 43 135.5 91.5 Q88 140 61 206 Q34 272 34 350 Q34 428 61 494 Q88 560 135.5 608.5 Q183 657 248 684.5 Q313 712 389 712 Q452 712 500 694.5 Q548 677 581 657 Q620 632 648 602 L567 523 Q547 544 521 561 Q498 575 465 587.5 Q432 600 389 600 Q337 600 294 580 Q251 560 220.5 525.5 Q190 491 173 446 Q156 401 156 350 Q156 299 173 254 Q190 209 220.5 174.5 Q251 140 294 120 Q337 100 389 100 Z M195 879 L261 961 L381 870 L501 961 L567 879 L381 745 L195 879 Z " />
<glyph glyph-name="ccaron" unicode="&#x10d;" horiz-adv-x="497" d="M77 670 L143 752 L263 661 L383 752 L449 670 L263 536 L77 670 Z M283 100 Q313 100 335.5 109 Q358 118 372 129 Q389 141 400 158 L479 78 Q458 52 429 33 Q404 16 367.5 2 Q331 -12 283 -12 Q230 -12 183.5 7.5 Q137 27 102.5 60.5 Q68 94 48 139.5 Q28 185 28 237 Q28 289 48 334.5 Q68 380 102.5 414 Q137 448 183.5 467 Q230 486 283 486 Q331 486 367 472.5 Q403 459 428 442 Q457 423 477 398 L394 324 Q382 338 365 349 Q351 358 330.5 366 Q310 374 283 374 Q253 374 228 363 Q203 352 186 333 Q169 314 159.5 289.5 Q150 265 150 237 Q150 209 159.5 184 Q169 159 186 140.5 Q203 122 228 111 Q253 100 283 100 Z " />
<glyph glyph-name="Ccedilla" unicode="&#xc7;" horiz-adv-x="676" d="M341 -276 L230 -244 L302 -50 L409 -62 L341 -276 Z M389 100 Q435 100 470.5 113 Q506 126 530 143 Q558 161 578 186 L658 107 Q630 73 590 47 Q556 24 505.5 6 Q455 -12 389 -12 Q313 -12 248 15.5 Q183 43 135.5 91.5 Q88 140 61 206 Q34 272 34 350 Q34 428 61 494 Q88 560 135.5 608.5 Q183 657 248 684.5 Q313 712 389 712 Q452 712 500 694.5 Q548 677 581 657 Q620 632 648 602 L567 523 Q547 544 521 561 Q498 575 465 587.5 Q432 600 389 600 Q337 600 294 580 Q251 560 220.5 525.5 Q190 491 173 446 Q156 401 156 350 Q156 299 173 254 Q190 209 220.5 174.5 Q251 140 294 120 Q337 100 389 100 Z " />
<glyph glyph-name="ccedilla" unicode="&#xe7;" horiz-adv-x="497" d="M251 -276 L140 -244 L212 -50 L319 -62 L251 -276 Z M283 100 Q313 100 335.5 109 Q358 118 372 129 Q389 141 400 158 L479 78 Q458 52 429 33 Q404 16 367.5 2 Q331 -12 283 -12 Q230 -12 183.5 7.5 Q137 27 102.5 60.5 Q68 94 48 139.5 Q28 185 28 237 Q28 289 48 334.5 Q68 380 102.5 414 Q137 448 183.5 467 Q230 486 283 486 Q331 486 367 472.5 Q403 459 428 442 Q457 423 477 398 L394 324 Q382 338 365 349 Q351 358 330.5 366 Q310 374 283 374 Q253 374 228 363 Q203 352 186 333 Q169 314 159.5 289.5 Q150 265 150 237 Q150 209 159.5 184 Q169 159 186 140.5 Q203 122 228 111 Q253 100 283 100 Z " />
<glyph glyph-name="Cdotaccent" unicode="&#x10a;" horiz-adv-x="676" d="M389 100 Q435 100 470.5 113 Q506 126 530 143 Q558 161 578 186 L658 107 Q630 73 590 47 Q556 24 505.5 6 Q455 -12 389 -12 Q313 -12 248 15.5 Q183 43 135.5 91.5 Q88 140 61 206 Q34 272 34 350 Q34 428 61 494 Q88 560 135.5 608.5 Q183 657 248 684.5 Q313 712 389 712 Q452 712 500 694.5 Q548 677 581 657 Q620 632 648 602 L567 523 Q547 544 521 561 Q498 575 465 587.5 Q432 600 389 600 Q337 600 294 580 Q251 560 220.5 525.5 Q190 491 173 446 Q156 401 156 350 Q156 299 173 254 Q190 209 220.5 174.5 Q251 140 294 120 Q337 100 389 100 Z M291 851 Q291 884 314 907 Q337 930 370 930 Q403 930 426 907 Q449 884 449 851 Q449 818 426 795 Q403 772 370 772 Q337 772 314 795 Q291 818 291 851 Z " />
<glyph glyph-name="cdotaccent" unicode="&#x10b;" horiz-adv-x="494" d="M185 627 Q185 660 208 683 Q231 706 264 706 Q297 706 320 683 Q343 660 343 627 Q343 594 320 571 Q297 548 264 548 Q231 548 208 571 Q185 594 185 627 Z M283 100 Q313 100 335.5 109 Q358 118 372 129 Q389 141 400 158 L479 78 Q458 52 429 33 Q404 16 367.5 2 Q331 -12 283 -12 Q230 -12 183.5 7.5 Q137 27 102.5 60.5 Q68 94 48 139.5 Q28 185 28 237 Q28 289 48 334.5 Q68 380 102.5 414 Q137 448 183.5 467 Q230 486 283 486 Q331 486 367 472.5 Q403 459 428 442 Q457 423 477 398 L394 324 Q382 338 365 349 Q351 358 330.5 366 Q310 374 283 374 Q253 374 228 363 Q203 352 186 333 Q169 314 159.5 289.5 Q150 265 150 237 Q150 209 159.5 184 Q169 159 186 140.5 Q203 122 228 111 Q253 100 283 100 Z " />
<glyph glyph-name="Eth" unicode="&#xd0;" horiz-adv-x="708" d="M328 700 Q404 700 468 673.5 Q532 647 577.5 600.5 Q623 554 648.5 490 Q674 426 674 350 Q674 274 648.5 210 Q623 146 577.5 99.5 Q532 53 468 26.5 Q404 0 328 0 L102 0 L102 305 L12 305 L12 409 L102 409 L102 700 L328 700 Z M330 114 Q381 114 422 133 Q463 152 492 184.5 Q521 217 536.5 259.5 Q552 302 552 350 Q552 398 536.5 441 Q521 484 492 516 Q463 548 422 567 Q381 586 330 586 L222 586 L222 409 L424 409 L424 305 L222 305 L222 114 L330 114 Z " />
<glyph glyph-name="eth" unicode="&#xf0;" horiz-adv-x="577" d="M81 590 L182 637 Q155 653 130 665.5 Q105 678 82 690 L129 779 Q166 761 207 738.5 Q248 716 289 687 L416 746 L452 668 L364 627 Q398 595 428.5 557.5 Q459 520 481 476 Q503 432 516 381 Q529 330 529 272 Q529 208 509.5 156 Q490 104 456.5 66.5 Q423 29 377 8.5 Q331 -12 279 -12 Q226 -12 180.5 7 Q135 26 101 60 Q67 94 47.5 139 Q28 184 28 237 Q28 289 47.5 334.5 Q67 380 101 414 Q135 448 180.5 467 Q226 486 279 486 Q301 486 322.5 482 Q344 478 365 467 Q345 498 318 526.5 Q291 555 263 579 L117 512 L81 590 Z M279 100 Q309 100 333 111 Q357 122 374.5 140.5 Q392 159 401 184 Q410 209 410 237 Q410 265 401 289.5 Q392 314 374.5 333 Q357 352 333 363 Q309 374 279 374 Q249 374 225 363 Q201 352 183.5 333 Q166 314 157 289.5 Q148 265 148 237 Q148 209 157 184 Q166 159 183.5 140.5 Q201 122 225 111 Q249 100 279 100 Z " />
<glyph glyph-name="Dcaron" unicode="&#x10e;" horiz-adv-x="680" d="M300 700 Q376 700 440 673.5 Q504 647 549.5 600.5 Q595 554 620.5 490 Q646 426 646 350 Q646 274 620.5 210 Q595 146 549.5 99.5 Q504 53 440 26.5 Q376 0 300 0 L74 0 L74 700 L300 700 Z M302 114 Q353 114 394 133 Q435 152 464 184.5 Q493 217 508.5 259.5 Q524 302 524 350 Q524 398 508.5 441 Q493 484 464 516 Q435 548 394 567 Q353 586 302 586 L194 586 L194 114 L302 114 Z M130 877 L196 959 L316 868 L436 959 L502 877 L316 743 L130 877 Z " />
<glyph glyph-name="dcaron" unicode="&#x10f;" horiz-adv-x="705" d="M513 0 L402 0 L402 62 Q389 41 369 25 Q352 11 324.5 -0.5 Q297 -12 259 -12 Q213 -12 171 6.5 Q129 25 97.5 58 Q66 91 47 136.5 Q28 182 28 237 Q28 292 47 337.5 Q66 383 97.5 416 Q129 449 171 467.5 Q213 486 259 486 Q293 486 318 476 Q343 466 360 455 Q379 441 393 424 L393 756 L513 756 L513 0 Z M393 308 Q382 326 366 341 Q352 353 330.5 363.5 Q309 374 280 374 Q250 374 225.5 363.5 Q201 353 184.5 334.5 Q168 316 159 291 Q150 266 150 237 Q150 208 159 183 Q168 158 184.5 139.5 Q201 121 225.5 110.5 Q250 100 280 100 Q309 100 330.5 110 Q352 120 366 133 Q382 147 393 166 L393 308 Z M583 700 L689 700 L689 454 L583 454 L583 700 Z " />
<glyph glyph-name="Dcroat" unicode="&#x110;" horiz-adv-x="703" d="M323 700 Q399 700 463 673.5 Q527 647 572.5 600.5 Q618 554 643.5 490 Q669 426 669 350 Q669 274 643.5 210 Q618 146 572.5 99.5 Q527 53 463 26.5 Q399 0 323 0 L97 0 L97 305 L7 305 L7 409 L97 409 L97 700 L323 700 Z M325 114 Q376 114 417 133 Q458 152 487 184.5 Q516 217 531.5 259.5 Q547 302 547 350 Q547 398 531.5 441 Q516 484 487 516 Q458 548 417 567 Q376 586 325 586 L217 586 L217 409 L419 409 L419 305 L217 305 L217 114 L325 114 Z " />
<glyph glyph-name="dcroat" unicode="&#x111;" horiz-adv-x="605" d="M513 655 L593 655 L593 555 L513 555 L513 0 L402 0 L402 62 Q389 41 369 25 Q352 11 324.5 -0.5 Q297 -12 259 -12 Q213 -12 171 6.5 Q129 25 97.5 58 Q66 91 47 136.5 Q28 182 28 237 Q28 292 47 337.5 Q66 383 97.5 416 Q129 449 171 467.5 Q213 486 259 486 Q293 486 318 476 Q343 466 360 455 Q379 441 393 424 L393 555 L238 555 L238 655 L393 655 L393 756 L513 756 L513 655 Z M393 308 Q382 326 366 341 Q352 353 330.5 363.5 Q309 374 280 374 Q250 374 225.5 363.5 Q201 353 184.5 334.5 Q168 316 159 291 Q150 266 150 237 Q150 208 159 183 Q168 158 184.5 139.5 Q201 121 225.5 110.5 Q250 100 280 100 Q309 100 330.5 110 Q352 120 366 133 Q382 147 393 166 L393 308 Z " />
<glyph glyph-name="Egrave" unicode="&#xc8;" horiz-adv-x="546" d="M194 416 L474 416 L474 302 L194 302 L194 114 L504 114 L504 0 L74 0 L74 700 L498 700 L498 586 L194 586 L194 416 Z M228 992 L399 818 L322 745 L147 913 L228 992 Z " />
<glyph glyph-name="egrave" unicode="&#xe8;" horiz-adv-x="533" d="M266 486 Q315 486 358.5 468 Q402 450 434.5 417.5 Q467 385 486 339.5 Q505 294 505 239 Q505 232 505 220 Q505 208 504 194 L150 194 Q153 178 164 161 Q175 144 192 130 Q209 116 232 107 Q255 98 283 98 Q314 98 338 105.5 Q362 113 379 122 Q398 133 413 146 L473 56 Q450 37 421 22 Q396 9 361 -1.5 Q326 -12 283 -12 Q229 -12 182.5 7.5 Q136 27 101.5 60.5 Q67 94 47.5 139.5 Q28 185 28 237 Q28 289 46 334.5 Q64 380 95.5 413.5 Q127 447 171 466.5 Q215 486 266 486 Z M385 281 Q384 296 376.5 313 Q369 330 354.5 344.5 Q340 359 318 368 Q296 377 266 377 Q237 377 216 368 Q195 359 180.5 345 Q166 331 158.5 314 Q151 297 150 281 L385 281 Z M213 773 L384 599 L307 526 L132 694 L213 773 Z " />
<glyph glyph-name="Eacute" unicode="&#xc9;" horiz-adv-x="546" d="M194 416 L474 416 L474 302 L194 302 L194 114 L504 114 L504 0 L74 0 L74 700 L498 700 L498 586 L194 586 L194 416 Z M442 912 L267 744 L190 817 L361 991 L442 912 Z " />
<glyph glyph-name="eacute" unicode="&#xe9;" horiz-adv-x="533" d="M266 486 Q315 486 358.5 468 Q402 450 434.5 417.5 Q467 385 486 339.5 Q505 294 505 239 Q505 232 505 220 Q505 208 504 194 L150 194 Q153 178 164 161 Q175 144 192 130 Q209 116 232 107 Q255 98 283 98 Q314 98 338 105.5 Q362 113 379 122 Q398 133 413 146 L473 56 Q450 37 421 22 Q396 9 361 -1.5 Q326 -12 283 -12 Q229 -12 182.5 7.5 Q136 27 101.5 60.5 Q67 94 47.5 139.5 Q28 185 28 237 Q28 289 46 334.5 Q64 380 95.5 413.5 Q127 447 171 466.5 Q215 486 266 486 Z M385 281 Q384 296 376.5 313 Q369 330 354.5 344.5 Q340 359 318 368 Q296 377 266 377 Q237 377 216 368 Q195 359 180.5 345 Q166 331 158.5 314 Q151 297 150 281 L385 281 Z M416 694 L241 526 L164 599 L335 773 L416 694 Z " />
<glyph glyph-name="Ecircumflex" unicode="&#xca;" horiz-adv-x="546" d="M194 416 L474 416 L474 302 L194 302 L194 114 L504 114 L504 0 L74 0 L74 700 L498 700 L498 586 L194 586 L194 416 Z M285 958 L471 824 L405 742 L285 833 L163 742 L99 824 L285 958 Z " />
<glyph glyph-name="ecircumflex" unicode="&#xea;" horiz-adv-x="533" d="M271 752 L457 618 L391 536 L271 627 L149 536 L85 618 L271 752 Z M266 486 Q315 486 358.5 468 Q402 450 434.5 417.5 Q467 385 486 339.5 Q505 294 505 239 Q505 232 505 220 Q505 208 504 194 L150 194 Q153 178 164 161 Q175 144 192 130 Q209 116 232 107 Q255 98 283 98 Q314 98 338 105.5 Q362 113 379 122 Q398 133 413 146 L473 56 Q450 37 421 22 Q396 9 361 -1.5 Q326 -12 283 -12 Q229 -12 182.5 7.5 Q136 27 101.5 60.5 Q67 94 47.5 139.5 Q28 185 28 237 Q28 289 46 334.5 Q64 380 95.5 413.5 Q127 447 171 466.5 Q215 486 266 486 Z M385 281 Q384 296 376.5 313 Q369 330 354.5 344.5 Q340 359 318 368 Q296 377 266 377 Q237 377 216 368 Q195 359 180.5 345 Q166 331 158.5 314 Q151 297 150 281 L385 281 Z " />
<glyph glyph-name="Edieresis" unicode="&#xcb;" horiz-adv-x="546" d="M194 416 L474 416 L474 302 L194 302 L194 114 L504 114 L504 0 L74 0 L74 700 L498 700 L498 586 L194 586 L194 416 Z M109 859 Q109 892 132 915 Q155 938 188 938 Q221 938 244 915 Q267 892 267 859 Q267 826 244 803 Q221 780 188 780 Q155 780 132 803 Q109 826 109 859 Z M315 859 Q315 892 338 915 Q361 938 394 938 Q427 938 450 915 Q473 892 473 859 Q473 826 450 803 Q427 780 394 780 Q361 780 338 803 Q315 826 315 859 Z " />
<glyph glyph-name="edieresis" unicode="&#xeb;" horiz-adv-x="533" d="M84 631 Q84 664 107 687 Q130 710 163 710 Q196 710 219 687 Q242 664 242 631 Q242 598 219 575 Q196 552 163 552 Q130 552 107 575 Q84 598 84 631 Z M290 631 Q290 664 313 687 Q336 710 369 710 Q402 710 425 687 Q448 664 448 631 Q448 598 425 575 Q402 552 369 552 Q336 552 313 575 Q290 598 290 631 Z M266 486 Q315 486 358.5 468 Q402 450 434.5 417.5 Q467 385 486 339.5 Q505 294 505 239 Q505 232 505 220 Q505 208 504 194 L150 194 Q153 178 164 161 Q175 144 192 130 Q209 116 232 107 Q255 98 283 98 Q314 98 338 105.5 Q362 113 379 122 Q398 133 413 146 L473 56 Q450 37 421 22 Q396 9 361 -1.5 Q326 -12 283 -12 Q229 -12 182.5 7.5 Q136 27 101.5 60.5 Q67 94 47.5 139.5 Q28 185 28 237 Q28 289 46 334.5 Q64 380 95.5 413.5 Q127 447 171 466.5 Q215 486 266 486 Z M385 281 Q384 296 376.5 313 Q369 330 354.5 344.5 Q340 359 318 368 Q296 377 266 377 Q237 377 216 368 Q195 359 180.5 345 Q166 331 158.5 314 Q151 297 150 281 L385 281 Z " />
<glyph glyph-name="Ecaron" unicode="&#x11a;" horiz-adv-x="546" d="M194 416 L474 416 L474 302 L194 302 L194 114 L504 114 L504 0 L74 0 L74 700 L498 700 L498 586 L194 586 L194 416 Z M106 879 L172 961 L292 870 L412 961 L478 879 L292 745 L106 879 Z " />
<glyph glyph-name="ecaron" unicode="&#x11b;" horiz-adv-x="533" d="M266 486 Q315 486 358.5 468 Q402 450 434.5 417.5 Q467 385 486 339.5 Q505 294 505 239 Q505 232 505 220 Q505 208 504 194 L150 194 Q153 178 164 161 Q175 144 192 130 Q209 116 232 107 Q255 98 283 98 Q314 98 338 105.5 Q362 113 379 122 Q398 133 413 146 L473 56 Q450 37 421 22 Q396 9 361 -1.5 Q326 -12 283 -12 Q229 -12 182.5 7.5 Q136 27 101.5 60.5 Q67 94 47.5 139.5 Q28 185 28 237 Q28 289 46 334.5 Q64 380 95.5 413.5 Q127 447 171 466.5 Q215 486 266 486 Z M385 281 Q384 296 376.5 313 Q369 330 354.5 344.5 Q340 359 318 368 Q296 377 266 377 Q237 377 216 368 Q195 359 180.5 345 Q166 331 158.5 314 Q151 297 150 281 L385 281 Z M90 661 L156 743 L276 652 L396 743 L462 661 L276 527 L90 661 Z " />
<glyph glyph-name="Emacron" unicode="&#x112;" horiz-adv-x="546" d="M194 416 L474 416 L474 302 L194 302 L194 114 L504 114 L504 0 L74 0 L74 700 L498 700 L498 586 L194 586 L194 416 Z M130 903 L452 903 L452 795 L130 795 L130 903 Z " />
<glyph glyph-name="emacron" unicode="&#x113;" horiz-adv-x="533" d="M107 675 L429 675 L429 567 L107 567 L107 675 Z M266 486 Q315 486 358.5 468 Q402 450 434.5 417.5 Q467 385 486 339.5 Q505 294 505 239 Q505 232 505 220 Q505 208 504 194 L150 194 Q153 178 164 161 Q175 144 192 130 Q209 116 232 107 Q255 98 283 98 Q314 98 338 105.5 Q362 113 379 122 Q398 133 413 146 L473 56 Q450 37 421 22 Q396 9 361 -1.5 Q326 -12 283 -12 Q229 -12 182.5 7.5 Q136 27 101.5 60.5 Q67 94 47.5 139.5 Q28 185 28 237 Q28 289 46 334.5 Q64 380 95.5 413.5 Q127 447 171 466.5 Q215 486 266 486 Z M385 281 Q384 296 376.5 313 Q369 330 354.5 344.5 Q340 359 318 368 Q296 377 266 377 Q237 377 216 368 Q195 359 180.5 345 Q166 331 158.5 314 Q151 297 150 281 L385 281 Z " />
<glyph glyph-name="Ebreve" unicode="&#x114;" horiz-adv-x="546" d="M194 416 L474 416 L474 302 L194 302 L194 114 L504 114 L504 0 L74 0 L74 700 L498 700 L498 586 L194 586 L194 416 Z M215 918 Q215 898 223 882 Q230 868 244.5 857 Q259 846 286 846 Q313 846 327 857 Q341 868 348 882 Q356 898 357 918 L465 918 Q462 872 443 836 Q435 821 422 806 Q409 791 390 779.5 Q371 768 345.5 761 Q320 754 286 754 Q252 754 226.5 761 Q201 768 182 779.5 Q163 791 150 806 Q137 821 129 836 Q110 872 107 918 L215 918 Z " />
<glyph glyph-name="ebreve" unicode="&#x115;" horiz-adv-x="533" d="M195 712 Q195 692 203 676 Q210 662 224.5 651 Q239 640 266 640 Q293 640 307 651 Q321 662 328 676 Q336 692 337 712 L445 712 Q442 666 423 630 Q415 615 402 600 Q389 585 370 573.5 Q351 562 325.5 555 Q300 548 266 548 Q232 548 206.5 555 Q181 562 162 573.5 Q143 585 130 600 Q117 615 109 630 Q90 666 87 712 L195 712 Z M266 486 Q315 486 358.5 468 Q402 450 434.5 417.5 Q467 385 486 339.5 Q505 294 505 239 Q505 232 505 220 Q505 208 504 194 L150 194 Q153 178 164 161 Q175 144 192 130 Q209 116 232 107 Q255 98 283 98 Q314 98 338 105.5 Q362 113 379 122 Q398 133 413 146 L473 56 Q450 37 421 22 Q396 9 361 -1.5 Q326 -12 283 -12 Q229 -12 182.5 7.5 Q136 27 101.5 60.5 Q67 94 47.5 139.5 Q28 185 28 237 Q28 289 46 334.5 Q64 380 95.5 413.5 Q127 447 171 466.5 Q215 486 266 486 Z M385 281 Q384 296 376.5 313 Q369 330 354.5 344.5 Q340 359 318 368 Q296 377 266 377 Q237 377 216 368 Q195 359 180.5 345 Q166 331 158.5 314 Q151 297 150 281 L385 281 Z " />
<glyph glyph-name="Edotaccent" unicode="&#x116;" horiz-adv-x="546" d="M194 416 L474 416 L474 302 L194 302 L194 114 L504 114 L504 0 L74 0 L74 700 L498 700 L498 586 L194 586 L194 416 Z M211 851 Q211 884 234 907 Q257 930 290 930 Q323 930 346 907 Q369 884 369 851 Q369 818 346 795 Q323 772 290 772 Q257 772 234 795 Q211 818 211 851 Z " />
<glyph glyph-name="edotaccent" unicode="&#x117;" horiz-adv-x="533" d="M187 627 Q187 660 210 683 Q233 706 266 706 Q299 706 322 683 Q345 660 345 627 Q345 594 322 571 Q299 548 266 548 Q233 548 210 571 Q187 594 187 627 Z M266 486 Q315 486 358.5 468 Q402 450 434.5 417.5 Q467 385 486 339.5 Q505 294 505 239 Q505 232 505 220 Q505 208 504 194 L150 194 Q153 178 164 161 Q175 144 192 130 Q209 116 232 107 Q255 98 283 98 Q314 98 338 105.5 Q362 113 379 122 Q398 133 413 146 L473 56 Q450 37 421 22 Q396 9 361 -1.5 Q326 -12 283 -12 Q229 -12 182.5 7.5 Q136 27 101.5 60.5 Q67 94 47.5 139.5 Q28 185 28 237 Q28 289 46 334.5 Q64 380 95.5 413.5 Q127 447 171 466.5 Q215 486 266 486 Z M385 281 Q384 296 376.5 313 Q369 330 354.5 344.5 Q340 359 318 368 Q296 377 266 377 Q237 377 216 368 Q195 359 180.5 345 Q166 331 158.5 314 Q151 297 150 281 L385 281 Z " />
<glyph glyph-name="Eogonek" unicode="&#x118;" horiz-adv-x="546" d="M194 416 L474 416 L474 302 L194 302 L194 114 L504 114 L504 0 L74 0 L74 700 L498 700 L498 586 L194 586 L194 416 Z M504 0 Q478 -9 459 -21 Q442 -32 428.5 -46.5 Q415 -61 415 -80 Q415 -101 428.5 -114 Q442 -127 466 -127 Q482 -127 493 -124 Q499 -122 504 -120 L504 -215 Q492 -219 480 -221 Q468 -223 453 -223 Q422 -223 398 -213 Q374 -203 357 -187 Q340 -171 331 -150.5 Q322 -130 322 -109 Q322 -80 332.5 -60 Q343 -40 357 -26 Q373 -10 393 0 L504 0 Z " />
<glyph glyph-name="eogonek" unicode="&#x119;" horiz-adv-x="533" d="M266 486 Q315 486 358.5 468 Q402 450 434.5 417.5 Q467 385 486 339.5 Q505 294 505 239 Q505 232 505 220 Q505 208 504 194 L150 194 Q153 178 164 161 Q175 144 192 130 Q209 116 232 107 Q255 98 283 98 Q314 98 338 105.5 Q362 113 379 122 Q398 133 413 146 L473 56 Q460 46 443 35 Q429 26 408.5 16 Q388 6 363 -1 Q359 -2 345 -8 Q331 -14 316 -24 Q301 -34 289 -48 Q277 -62 277 -80 Q277 -101 290.5 -114 Q304 -127 328 -127 Q344 -127 355 -124 Q361 -122 366 -120 L366 -215 Q354 -219 342 -221 Q330 -223 315 -223 Q284 -223 260 -213 Q236 -203 219 -187 Q202 -171 193 -150.5 Q184 -130 184 -109 Q184 -89 190 -72.5 Q196 -56 204.5 -44 Q213 -32 222.5 -23 Q232 -14 240 -9 Q194 -2 155 20 Q116 42 88 74.5 Q60 107 44 148.5 Q28 190 28 237 Q28 289 46 334.5 Q64 380 95.5 413.5 Q127 447 171 466.5 Q215 486 266 486 Z M385 281 Q384 296 376.5 313 Q369 330 354.5 344.5 Q340 359 318 368 Q296 377 266 377 Q237 377 216 368 Q195 359 180.5 345 Q166 331 158.5 314 Q151 297 150 281 L385 281 Z " />
<glyph glyph-name="Gcircumflex" unicode="&#x11c;" horiz-adv-x="713" d="M402 100 Q440 100 466.5 105 Q493 110 510 117 Q530 124 543 134 L543 282 L384 282 L384 394 L661 394 L661 76 Q633 51 595 32 Q562 15 514 1.5 Q466 -12 402 -12 Q325 -12 258 15.5 Q191 43 141 91.5 Q91 140 62.5 206 Q34 272 34 350 Q34 428 62 494 Q90 560 138.5 608.5 Q187 657 253.5 684.5 Q320 712 397 712 Q462 712 510.5 695.5 Q559 679 591 659 Q629 636 656 607 L574 527 Q556 547 530 563 Q508 577 475 588.5 Q442 600 397 600 Q344 600 300 580 Q256 560 224 525.5 Q192 491 174 446 Q156 401 156 350 Q156 299 174.5 254 Q193 209 226 174.5 Q259 140 304 120 Q349 100 402 100 Z M395 958 L581 824 L515 742 L395 833 L273 742 L209 824 L395 958 Z " />
<glyph glyph-name="gcircumflex" unicode="&#x11d;" horiz-adv-x="573" d="M393 49 Q387 41 376 31 Q365 21 348.5 11 Q332 1 309.5 -5.5 Q287 -12 259 -12 Q213 -12 171 6.5 Q129 25 97.5 58 Q66 91 47 136.5 Q28 182 28 237 Q28 292 47 337.5 Q66 383 97.5 416 Q129 449 171 467.5 Q213 486 259 486 Q296 486 323.5 474.5 Q351 463 368 449 Q388 432 402 412 L402 474 L513 474 L513 -4 Q513 -66 492 -111 Q471 -156 435.5 -185 Q400 -214 354 -228 Q308 -242 258 -242 Q207 -242 165 -228 Q123 -214 94 -197 Q60 -178 33 -152 L101 -60 Q120 -80 145 -95 Q166 -109 194.5 -119.5 Q223 -130 258 -130 Q328 -130 360.5 -96 Q393 -62 393 -8 L393 49 Z M393 308 Q382 326 366 341 Q352 353 330.5 363.5 Q309 374 280 374 Q250 374 225.5 363.5 Q201 353 184.5 334.5 Q168 316 159 291 Q150 266 150 237 Q150 208 159 183 Q168 158 184.5 139.5 Q201 121 225.5 110.5 Q250 100 280 100 Q309 100 330.5 110 Q352 120 366 133 Q382 147 393 166 L393 308 Z M287 739 L473 605 L407 523 L287 614 L165 523 L101 605 L287 739 Z " />
<glyph glyph-name="Gbreve" unicode="&#x11e;" horiz-adv-x="713" d="M402 100 Q440 100 466.5 105 Q493 110 510 117 Q530 124 543 134 L543 282 L384 282 L384 394 L661 394 L661 76 Q633 51 595 32 Q562 15 514 1.5 Q466 -12 402 -12 Q325 -12 258 15.5 Q191 43 141 91.5 Q91 140 62.5 206 Q34 272 34 350 Q34 428 62 494 Q90 560 138.5 608.5 Q187 657 253.5 684.5 Q320 712 397 712 Q462 712 510.5 695.5 Q559 679 591 659 Q629 636 656 607 L574 527 Q556 547 530 563 Q508 577 475 588.5 Q442 600 397 600 Q344 600 300 580 Q256 560 224 525.5 Q192 491 174 446 Q156 401 156 350 Q156 299 174.5 254 Q193 209 226 174.5 Q259 140 304 120 Q349 100 402 100 Z M311 928 Q311 908 319 892 Q326 878 340.5 867 Q355 856 382 856 Q409 856 423 867 Q437 878 444 892 Q452 908 453 928 L561 928 Q558 882 539 846 Q531 831 518 816 Q505 801 486 789.5 Q467 778 441.5 771 Q416 764 382 764 Q348 764 322.5 771 Q297 778 278 789.5 Q259 801 246 816 Q233 831 225 846 Q206 882 203 928 L311 928 Z " />
<glyph glyph-name="gbreve" unicode="&#x11f;" horiz-adv-x="573" d="M393 49 Q387 41 376 31 Q365 21 348.5 11 Q332 1 309.5 -5.5 Q287 -12 259 -12 Q213 -12 171 6.5 Q129 25 97.5 58 Q66 91 47 136.5 Q28 182 28 237 Q28 292 47 337.5 Q66 383 97.5 416 Q129 449 171 467.5 Q213 486 259 486 Q296 486 323.5 474.5 Q351 463 368 449 Q388 432 402 412 L402 474 L513 474 L513 -4 Q513 -66 492 -111 Q471 -156 435.5 -185 Q400 -214 354 -228 Q308 -242 258 -242 Q207 -242 165 -228 Q123 -214 94 -197 Q60 -178 33 -152 L101 -60 Q120 -80 145 -95 Q166 -109 194.5 -119.5 Q223 -130 258 -130 Q328 -130 360.5 -96 Q393 -62 393 -8 L393 49 Z M393 308 Q382 326 366 341 Q352 353 330.5 363.5 Q309 374 280 374 Q250 374 225.5 363.5 Q201 353 184.5 334.5 Q168 316 159 291 Q150 266 150 237 Q150 208 159 183 Q168 158 184.5 139.5 Q201 121 225.5 110.5 Q250 100 280 100 Q309 100 330.5 110 Q352 120 366 133 Q382 147 393 166 L393 308 Z M208 712 Q208 692 216 676 Q223 662 237.5 651 Q252 640 279 640 Q306 640 320 651 Q334 662 341 676 Q349 692 350 712 L458 712 Q455 666 436 630 Q428 615 415 600 Q402 585 383 573.5 Q364 562 338.5 555 Q313 548 279 548 Q245 548 219.5 555 Q194 562 175 573.5 Q156 585 143 600 Q130 615 122 630 Q103 666 100 712 L208 712 Z " />
<glyph glyph-name="Gdotaccent" unicode="&#x120;" horiz-adv-x="713" d="M402 100 Q440 100 466.5 105 Q493 110 510 117 Q530 124 543 134 L543 282 L384 282 L384 394 L661 394 L661 76 Q633 51 595 32 Q562 15 514 1.5 Q466 -12 402 -12 Q325 -12 258 15.5 Q191 43 141 91.5 Q91 140 62.5 206 Q34 272 34 350 Q34 428 62 494 Q90 560 138.5 608.5 Q187 657 253.5 684.5 Q320 712 397 712 Q462 712 510.5 695.5 Q559 679 591 659 Q629 636 656 607 L574 527 Q556 547 530 563 Q508 577 475 588.5 Q442 600 397 600 Q344 600 300 580 Q256 560 224 525.5 Q192 491 174 446 Q156 401 156 350 Q156 299 174.5 254 Q193 209 226 174.5 Q259 140 304 120 Q349 100 402 100 Z M304 851 Q304 884 327 907 Q350 930 383 930 Q416 930 439 907 Q462 884 462 851 Q462 818 439 795 Q416 772 383 772 Q350 772 327 795 Q304 818 304 851 Z " />
<glyph glyph-name="gdotaccent" unicode="&#x121;" horiz-adv-x="573" d="M393 49 Q387 41 376 31 Q365 21 348.5 11 Q332 1 309.5 -5.5 Q287 -12 259 -12 Q213 -12 171 6.5 Q129 25 97.5 58 Q66 91 47 136.5 Q28 182 28 237 Q28 292 47 337.5 Q66 383 97.5 416 Q129 449 171 467.5 Q213 486 259 486 Q296 486 323.5 474.5 Q351 463 368 449 Q388 432 402 412 L402 474 L513 474 L513 -4 Q513 -66 492 -111 Q471 -156 435.5 -185 Q400 -214 354 -228 Q308 -242 258 -242 Q207 -242 165 -228 Q123 -214 94 -197 Q60 -178 33 -152 L101 -60 Q120 -80 145 -95 Q166 -109 194.5 -119.5 Q223 -130 258 -130 Q328 -130 360.5 -96 Q393 -62 393 -8 L393 49 Z M393 308 Q382 326 366 341 Q352 353 330.5 363.5 Q309 374 280 374 Q250 374 225.5 363.5 Q201 353 184.5 334.5 Q168 316 159 291 Q150 266 150 237 Q150 208 159 183 Q168 158 184.5 139.5 Q201 121 225.5 110.5 Q250 100 280 100 Q309 100 330.5 110 Q352 120 366 133 Q382 147 393 166 L393 308 Z M198 627 Q198 660 221 683 Q244 706 277 706 Q310 706 333 683 Q356 660 356 627 Q356 594 333 571 Q310 548 277 548 Q244 548 221 571 Q198 594 198 627 Z " />
<glyph glyph-name="Gcedilla" unicode="&#x122;" horiz-adv-x="713" d="M402 100 Q440 100 466.5 105 Q493 110 510 117 Q530 124 543 134 L543 282 L384 282 L384 394 L661 394 L661 76 Q633 51 595 32 Q562 15 514 1.5 Q466 -12 402 -12 Q325 -12 258 15.5 Q191 43 141 91.5 Q91 140 62.5 206 Q34 272 34 350 Q34 428 62 494 Q90 560 138.5 608.5 Q187 657 253.5 684.5 Q320 712 397 712 Q462 712 510.5 695.5 Q559 679 591 659 Q629 636 656 607 L574 527 Q556 547 530 563 Q508 577 475 588.5 Q442 600 397 600 Q344 600 300 580 Q256 560 224 525.5 Q192 491 174 446 Q156 401 156 350 Q156 299 174.5 254 Q193 209 226 174.5 Q259 140 304 120 Q349 100 402 100 Z M380 -271 L269 -239 L341 -45 L448 -57 L380 -271 Z " />
<glyph glyph-name="gcedilla" unicode="&#x123;" horiz-adv-x="573" d="M393 49 Q387 41 376 31 Q365 21 348.5 11 Q332 1 309.5 -5.5 Q287 -12 259 -12 Q213 -12 171 6.5 Q129 25 97.5 58 Q66 91 47 136.5 Q28 182 28 237 Q28 292 47 337.5 Q66 383 97.5 416 Q129 449 171 467.5 Q213 486 259 486 Q296 486 323.5 474.5 Q351 463 368 449 Q388 432 402 412 L402 474 L513 474 L513 -4 Q513 -66 492 -111 Q471 -156 435.5 -185 Q400 -214 354 -228 Q308 -242 258 -242 Q207 -242 165 -228 Q123 -214 94 -197 Q60 -178 33 -152 L101 -60 Q120 -80 145 -95 Q166 -109 194.5 -119.5 Q223 -130 258 -130 Q328 -130 360.5 -96 Q393 -62 393 -8 L393 49 Z M393 308 Q382 326 366 341 Q352 353 330.5 363.5 Q309 374 280 374 Q250 374 225.5 363.5 Q201 353 184.5 334.5 Q168 316 159 291 Q150 266 150 237 Q150 208 159 183 Q168 158 184.5 139.5 Q201 121 225.5 110.5 Q250 100 280 100 Q309 100 330.5 110 Q352 120 366 133 Q382 147 393 166 L393 308 Z M278 768 L389 736 L317 542 L210 554 L278 768 Z " />
<glyph glyph-name="Hcircumflex" unicode="&#x124;" horiz-adv-x="687" d="M493 700 L613 700 L613 0 L493 0 L493 301 L194 301 L194 0 L74 0 L74 700 L194 700 L194 415 L493 415 L493 700 Z M343 958 L529 824 L463 742 L343 833 L221 742 L157 824 L343 958 Z " />
<glyph glyph-name="hcircumflex" unicode="&#x125;" horiz-adv-x="562" d="M328 486 Q362 486 393.5 474 Q425 462 449 439 Q473 416 487.5 383 Q502 350 502 307 L502 0 L382 0 L382 277 Q382 328 354.5 351 Q327 374 288 374 Q265 374 247.5 364 Q230 354 218 343 Q204 329 194 312 L194 0 L74 0 L74 756 L194 756 L194 417 Q207 436 226 451 Q243 464 268 475 Q293 486 328 486 Z M134 998 L320 864 L254 782 L134 873 L12 782 L-52 864 L134 998 Z " />
<glyph glyph-name="Hbar" unicode="&#x126;" horiz-adv-x="701" d="M81 606 L81 700 L201 700 L201 606 L500 606 L500 700 L620 700 L620 606 L693 606 L693 506 L620 506 L620 0 L500 0 L500 301 L201 301 L201 0 L81 0 L81 506 L8 506 L8 606 L81 606 Z M500 506 L201 506 L201 415 L500 415 L500 506 Z " />
<glyph glyph-name="hbar" unicode="&#x127;" horiz-adv-x="576" d="M8 655 L88 655 L88 756 L208 756 L208 655 L353 655 L353 555 L208 555 L208 417 Q221 436 240 451 Q257 464 282 475 Q307 486 342 486 Q376 486 407.5 474 Q439 462 463 439 Q487 416 501.5 383 Q516 350 516 307 L516 0 L396 0 L396 277 Q396 328 368.5 351 Q341 374 302 374 Q279 374 261.5 364 Q244 354 232 342 Q218 328 208 311 L208 0 L88 0 L88 555 L8 555 L8 655 Z " />
<glyph glyph-name="dotlessi" unicode="&#x131;" horiz-adv-x="278" d="M79 462 L199 462 L199 0 L79 0 L79 462 Z " />
<glyph glyph-name="Igrave" unicode="&#xcc;" horiz-adv-x="296" d="M88 700 L208 700 L208 0 L88 0 L88 700 Z M85 992 L256 818 L179 745 L4 913 L85 992 Z " />
<glyph glyph-name="igrave" unicode="&#xec;" horiz-adv-x="278" d="M81 774 L252 600 L175 527 L0 695 L81 774 Z M77 462 L197 462 L197 0 L77 0 L77 462 Z " />
<glyph glyph-name="Iacute" unicode="&#xcd;" horiz-adv-x="296" d="M85 700 L205 700 L205 0 L85 0 L85 700 Z M292 912 L117 744 L40 817 L211 991 L292 912 Z " />
<glyph glyph-name="iacute" unicode="&#xed;" horiz-adv-x="278" d="M278 694 L103 526 L26 599 L197 773 L278 694 Z M73 462 L193 462 L193 0 L73 0 L73 462 Z " />
<glyph glyph-name="Icircumflex" unicode="&#xce;" horiz-adv-x="296" d="M88 700 L208 700 L208 0 L88 0 L88 700 Z M150 968 L336 834 L270 752 L150 843 L28 752 L-36 834 L150 968 Z " />
<glyph glyph-name="icircumflex" unicode="&#xee;" horiz-adv-x="308" d="M94 462 L214 462 L214 0 L94 0 L94 462 Z M154 752 L340 618 L274 536 L154 627 L32 536 L-32 618 L154 752 Z " />
<glyph glyph-name="Idieresis" unicode="&#xcf;" horiz-adv-x="296" d="M74 700 L194 700 L194 0 L74 0 L74 700 Z M-48 859 Q-48 892 -25 915 Q-2 938 31 938 Q64 938 87 915 Q110 892 110 859 Q110 826 87 803 Q64 780 31 780 Q-2 780 -25 803 Q-48 826 -48 859 Z M158 859 Q158 892 181 915 Q204 938 237 938 Q270 938 293 915 Q316 892 316 859 Q316 826 293 803 Q270 780 237 780 Q204 780 181 803 Q158 826 158 859 Z " />
<glyph glyph-name="idieresis" unicode="&#xef;" horiz-adv-x="278" d="M79 462 L199 462 L199 0 L79 0 L79 462 Z M-43 631 Q-43 664 -20 687 Q3 710 36 710 Q69 710 92 687 Q115 664 115 631 Q115 598 92 575 Q69 552 36 552 Q3 552 -20 575 Q-43 598 -43 631 Z M163 631 Q163 664 186 687 Q209 710 242 710 Q275 710 298 687 Q321 664 321 631 Q321 598 298 575 Q275 552 242 552 Q209 552 186 575 Q163 598 163 631 Z " />
<glyph glyph-name="Itilde" unicode="&#x128;" horiz-adv-x="296" d="M88 700 L208 700 L208 0 L88 0 L88 700 Z M-56 826 Q-44 855 -26 878 Q-10 898 15 914 Q40 930 78 930 Q100 930 119 921 Q138 912 154.5 901 Q171 890 186 881 Q201 872 215 872 Q231 872 241.5 882 Q252 892 258 904 Q265 918 269 937 L351 872 Q340 842 322 819 Q307 799 282 782.5 Q257 766 221 766 Q199 766 180.5 775 Q162 784 145 794.5 Q128 805 113 814 Q98 823 84 823 Q67 823 57 814 Q47 805 40 794 Q32 781 28 765 L-56 826 Z " />
<glyph glyph-name="itilde" unicode="&#x129;" horiz-adv-x="343" d="M112 462 L232 462 L232 0 L112 0 L112 462 Z M-32 588 Q-20 617 -2 640 Q14 660 39 676 Q64 692 102 692 Q124 692 143 683 Q162 674 178.5 663 Q195 652 210 643 Q225 634 239 634 Q255 634 265.5 644 Q276 654 282 666 Q289 680 293 699 L375 634 Q364 604 346 581 Q331 561 306 544.5 Q281 528 245 528 Q223 528 204.5 537 Q186 546 169 556.5 Q152 567 137 576 Q122 585 108 585 Q91 585 81 576 Q71 567 64 556 Q56 543 52 527 L-32 588 Z " />
<glyph glyph-name="Imacron" unicode="&#x12a;" horiz-adv-x="296" d="M88 700 L208 700 L208 0 L88 0 L88 700 Z M-13 898 L309 898 L309 790 L-13 790 L-13 898 Z " />
<glyph glyph-name="imacron" unicode="&#x12b;" horiz-adv-x="286" d="M82 462 L202 462 L202 0 L82 0 L82 462 Z M-18 676 L304 676 L304 568 L-18 568 L-18 676 Z " />
<glyph glyph-name="Ibreve" unicode="&#x12c;" horiz-adv-x="296" d="M88 700 L208 700 L208 0 L88 0 L88 700 Z M77 918 Q77 898 85 882 Q92 868 106.5 857 Q121 846 148 846 Q175 846 189 857 Q203 868 210 882 Q218 898 219 918 L327 918 Q324 872 305 836 Q297 821 284 806 Q271 791 252 779.5 Q233 768 207.5 761 Q182 754 148 754 Q114 754 88.5 761 Q63 768 44 779.5 Q25 791 12 806 Q-1 821 -9 836 Q-28 872 -31 918 L77 918 Z " />
<glyph glyph-name="ibreve" unicode="&#x12d;" horiz-adv-x="294" d="M85 462 L205 462 L205 0 L85 0 L85 462 Z M76 712 Q76 692 84 676 Q91 662 105.5 651 Q120 640 147 640 Q174 640 188 651 Q202 662 209 676 Q217 692 218 712 L326 712 Q323 666 304 630 Q296 615 283 600 Q270 585 251 573.5 Q232 562 206.5 555 Q181 548 147 548 Q113 548 87.5 555 Q62 562 43 573.5 Q24 585 11 600 Q-2 615 -10 630 Q-29 666 -32 712 L76 712 Z " />
<glyph glyph-name="Iogonek" unicode="&#x12e;" horiz-adv-x="296" d="M26 -107 Q26 -83 32.5 -64.5 Q39 -46 48.5 -32 Q58 -18 69 -9 Q80 0 88 5 L88 700 L208 700 L208 0 Q182 -9 163 -20 Q146 -30 132.5 -44.5 Q119 -59 119 -78 Q119 -99 132.5 -113 Q146 -127 170 -127 Q186 -127 197 -124 Q203 -122 208 -120 L208 -215 Q196 -219 184 -221 Q172 -223 157 -223 Q126 -223 102 -213 Q78 -203 61 -186.5 Q44 -170 35 -149 Q26 -128 26 -107 Z " />
<glyph glyph-name="iogonek" unicode="&#x12f;" horiz-adv-x="278" d="M17 -107 Q17 -83 24 -64.5 Q31 -46 41 -32 Q51 -18 61.5 -9 Q72 0 79 5 L79 474 L199 474 L199 0 L198 0 Q196 0 182.5 -5.5 Q169 -11 152.5 -20.5 Q136 -30 123 -44.5 Q110 -59 110 -78 Q110 -99 123.5 -113 Q137 -127 161 -127 Q177 -127 188 -124 Q194 -122 199 -120 L199 -215 Q187 -219 175 -221 Q163 -223 148 -223 Q117 -223 93 -213 Q69 -203 52 -186.5 Q35 -170 26 -149 Q17 -128 17 -107 Z M60 627 Q60 660 83 683 Q106 706 139 706 Q172 706 195 683 Q218 660 218 627 Q218 594 195 571 Q172 548 139 548 Q106 548 83 571 Q60 594 60 627 Z " />
<glyph glyph-name="Idotaccent" unicode="&#x130;" horiz-adv-x="296" d="M89 700 L209 700 L209 0 L89 0 L89 700 Z M69 835 Q69 868 92 891 Q115 914 148 914 Q181 914 204 891 Q227 868 227 835 Q227 802 204 779 Q181 756 148 756 Q115 756 92 779 Q69 802 69 835 Z " />
<glyph glyph-name="IJ" unicode="&#x132;" horiz-adv-x="748" d="M88 700 L208 700 L208 0 L88 0 L88 700 Z M554 700 L674 700 L674 220 Q674 109 610.5 48.5 Q547 -12 435 -12 Q382 -12 344 6 Q306 24 280 46 Q250 72 230 105 L318 179 Q331 157 349 140 Q364 126 385.5 114 Q407 102 435 102 Q469 102 492 112 Q515 122 529 138.5 Q543 155 548.5 175.5 Q554 196 554 216 L554 700 Z " />
<glyph glyph-name="ij" unicode="&#x133;" horiz-adv-x="494" d="M79 474 L199 474 L199 0 L79 0 L79 474 Z M60 627 Q60 660 83 683 Q106 706 139 706 Q172 706 195 683 Q218 660 218 627 Q218 594 195 571 Q172 548 139 548 Q106 548 83 571 Q60 594 60 627 Z M170 -110 Q179 -116 189 -120 Q197 -124 207 -127 Q217 -130 227 -130 Q237 -130 249 -127.5 Q261 -125 271.5 -115.5 Q282 -106 289 -86.5 Q296 -67 296 -32 L296 474 L416 474 L416 -43 Q416 -101 398.5 -139.5 Q381 -178 354.5 -200.5 Q328 -223 297.5 -232.5 Q267 -242 240 -242 Q215 -242 194.5 -237.5 Q174 -233 159 -227 Q141 -220 127 -211 L170 -110 Z M276 627 Q276 660 299 683 Q322 706 355 706 Q388 706 411 683 Q434 660 434 627 Q434 594 411 571 Q388 548 355 548 Q322 548 299 571 Q276 594 276 627 Z " />
<glyph glyph-name="Jcircumflex" unicode="&#x134;" horiz-adv-x="521" d="M327 700 L447 700 L447 220 Q447 109 383.5 48.5 Q320 -12 208 -12 Q155 -12 117 6 Q79 24 53 46 Q23 72 3 105 L91 179 Q104 157 122 140 Q137 126 158.5 114 Q180 102 208 102 Q242 102 265 112 Q288 122 302 138.5 Q316 155 321.5 175.5 Q327 196 327 216 L327 700 Z M387 955 L573 821 L507 739 L387 830 L265 739 L201 821 L387 955 Z " />
<glyph glyph-name="jcircumflex" unicode="&#x135;" horiz-adv-x="331" d="M9 -111 Q17 -117 26 -121 Q34 -125 42.5 -127.5 Q51 -130 59 -130 Q71 -130 84 -127.5 Q97 -125 108 -115.5 Q119 -106 126 -86.5 Q133 -67 133 -32 L133 474 L253 474 L253 -43 Q253 -101 235.5 -139.5 Q218 -178 191.5 -200.5 Q165 -223 134.5 -232.5 Q104 -242 77 -242 Q52 -242 23.5 -235.5 Q-5 -229 -35 -211 L9 -111 Z M193 752 L379 618 L313 536 L193 627 L71 536 L7 618 L193 752 Z " />
<glyph glyph-name="Kcedilla" unicode="&#x136;" horiz-adv-x="628" d="M194 386 L444 700 L594 700 L320 356 L628 0 L469 0 L194 316 L194 0 L74 0 L74 700 L194 700 L194 386 Z M306 -261 L195 -229 L267 -35 L374 -47 L306 -261 Z " />
<glyph glyph-name="kcedilla" unicode="&#x137;" horiz-adv-x="535" d="M194 287 L364 474 L519 474 L311 250 L533 0 L375 0 L194 207 L194 0 L74 0 L74 756 L194 756 L194 287 Z M281 -271 L170 -239 L242 -45 L349 -57 L281 -271 Z " />
<glyph glyph-name="kgreenlandic" unicode="&#x138;" horiz-adv-x="521" d="M180 207 L180 0 L60 0 L60 474 L180 474 L180 288 L350 474 L505 474 L297 250 L519 0 L361 0 L180 207 Z " />
<glyph glyph-name="Lacute" unicode="&#x139;" horiz-adv-x="500" d="M74 700 L194 700 L194 114 L492 114 L492 0 L74 0 L74 700 Z M272 912 L97 744 L20 817 L191 991 L272 912 Z " />
<glyph glyph-name="lacute" unicode="&#x13a;" horiz-adv-x="268" d="M74 756 L194 756 L194 0 L74 0 L74 756 Z M272 954 L97 786 L20 859 L191 1033 L272 954 Z " />
<glyph glyph-name="Lcedilla" unicode="&#x13b;" horiz-adv-x="500" d="M74 700 L194 700 L194 114 L492 114 L492 0 L74 0 L74 700 Z M274 -271 L163 -239 L235 -45 L342 -57 L274 -271 Z " />
<glyph glyph-name="lcedilla" unicode="&#x13c;" horiz-adv-x="268" d="M74 756 L194 756 L194 0 L74 0 L74 756 Z M145 -271 L34 -239 L106 -45 L213 -57 L145 -271 Z " />
<glyph glyph-name="Lcaron" unicode="&#x13d;" horiz-adv-x="500" d="M74 700 L194 700 L194 114 L492 114 L492 0 L74 0 L74 700 Z M281 700 L387 700 L387 454 L281 454 L281 700 Z " />
<glyph glyph-name="lcaron" unicode="&#x13e;" horiz-adv-x="387" d="M74 756 L194 756 L194 0 L74 0 L74 756 Z M265 700 L371 700 L371 454 L265 454 L265 700 Z " />
<glyph glyph-name="Ldot" unicode="&#x13f;" horiz-adv-x="500" d="M74 700 L194 700 L194 114 L492 114 L492 0 L74 0 L74 700 Z M263 370 Q263 403 286 426 Q309 449 342 449 Q375 449 398 426 Q421 403 421 370 Q421 337 398 314 Q375 291 342 291 Q309 291 286 314 Q263 337 263 370 Z " />
<glyph glyph-name="ldot" unicode="&#x140;" horiz-adv-x="394" d="M74 756 L194 756 L194 0 L74 0 L74 756 Z M230 370 Q230 403 253 426 Q276 449 309 449 Q342 449 365 426 Q388 403 388 370 Q388 337 365 314 Q342 291 309 291 Q276 291 253 314 Q230 337 230 370 Z " />
<glyph glyph-name="Lslash" unicode="&#x141;" horiz-adv-x="541" d="M6 214 L116 300 L116 700 L236 700 L236 393 L406 526 L456 459 L236 287 L236 114 L533 114 L533 0 L116 0 L116 194 L56 147 L6 214 Z " />
<glyph glyph-name="lslash" unicode="&#x142;" horiz-adv-x="360" d="M6 280 L118 367 L118 756 L238 756 L238 460 L304 512 L354 445 L238 354 L238 0 L118 0 L118 261 L56 213 L6 280 Z " />
<glyph glyph-name="Nacute" unicode="&#x143;" horiz-adv-x="726" d="M182 700 L532 218 L532 700 L652 700 L652 0 L544 0 L194 481 L194 0 L74 0 L74 700 L182 700 Z M545 912 L370 744 L293 817 L464 991 L545 912 Z " />
<glyph glyph-name="nacute" unicode="&#x144;" horiz-adv-x="548" d="M314 486 Q348 486 379.5 474 Q411 462 435 439 Q459 416 473.5 383 Q488 350 488 307 L488 0 L368 0 L368 277 Q368 328 340.5 351 Q313 374 274 374 Q251 374 233.5 364 Q216 354 204 343 Q190 330 180 313 L180 0 L60 0 L60 474 L172 474 L172 405 Q185 427 205 445 Q222 460 249 473 Q276 486 314 486 Z M419 694 L244 526 L167 599 L338 773 L419 694 Z " />
<glyph glyph-name="Ncedilla" unicode="&#x145;" horiz-adv-x="726" d="M182 700 L532 218 L532 700 L652 700 L652 0 L544 0 L194 481 L194 0 L74 0 L74 700 L182 700 Z M348 -261 L237 -229 L309 -35 L416 -47 L348 -261 Z " />
<glyph glyph-name="ncedilla" unicode="&#x146;" horiz-adv-x="548" d="M314 486 Q348 486 379.5 474 Q411 462 435 439 Q459 416 473.5 383 Q488 350 488 307 L488 0 L368 0 L368 277 Q368 328 340.5 351 Q313 374 274 374 Q251 374 233.5 364 Q216 354 204 343 Q190 330 180 313 L180 0 L60 0 L60 474 L172 474 L172 405 Q185 427 205 445 Q222 460 249 473 Q276 486 314 486 Z M282 -261 L171 -229 L243 -35 L350 -47 L282 -261 Z " />
<glyph glyph-name="Ntilde" unicode="&#xd1;" horiz-adv-x="726" d="M182 700 L532 218 L532 700 L652 700 L652 0 L544 0 L194 481 L194 0 L74 0 L74 700 L182 700 Z M163 836 Q175 865 193 888 Q209 908 234 924 Q259 940 297 940 Q319 940 338 931 Q357 922 373.5 911 Q390 900 405 891 Q420 882 434 882 Q450 882 460.5 892 Q471 902 477 914 Q484 928 488 947 L570 882 Q559 852 541 829 Q526 809 501 792.5 Q476 776 440 776 Q418 776 399.5 785 Q381 794 364 804.5 Q347 815 332 824 Q317 833 303 833 Q286 833 276 824 Q266 815 259 804 Q251 791 247 775 L163 836 Z " />
<glyph glyph-name="ntilde" unicode="&#xf1;" horiz-adv-x="548" d="M314 486 Q348 486 379.5 474 Q411 462 435 439 Q459 416 473.5 383 Q488 350 488 307 L488 0 L368 0 L368 277 Q368 328 340.5 351 Q313 374 274 374 Q251 374 233.5 364 Q216 354 204 343 Q190 330 180 313 L180 0 L60 0 L60 474 L172 474 L172 405 Q185 427 205 445 Q222 460 249 473 Q276 486 314 486 Z M76 615 Q88 644 106 667 Q122 687 147 703 Q172 719 210 719 Q232 719 251 710 Q270 701 286.5 690 Q303 679 318 670 Q333 661 347 661 Q363 661 373.5 671 Q384 681 390 693 Q397 707 401 726 L483 661 Q472 631 454 608 Q439 588 414 571.5 Q389 555 353 555 Q331 555 312.5 564 Q294 573 277 583.5 Q260 594 245 603 Q230 612 216 612 Q199 612 189 603 Q179 594 172 583 Q164 570 160 554 L76 615 Z " />
<glyph glyph-name="Ncaron" unicode="&#x147;" horiz-adv-x="726" d="M182 700 L532 218 L532 700 L652 700 L652 0 L544 0 L194 481 L194 0 L74 0 L74 700 L182 700 Z M181 875 L247 957 L367 866 L487 957 L553 875 L367 741 L181 875 Z " />
<glyph glyph-name="ncaron" unicode="&#x148;" horiz-adv-x="548" d="M314 486 Q348 486 379.5 474 Q411 462 435 439 Q459 416 473.5 383 Q488 350 488 307 L488 0 L368 0 L368 277 Q368 328 340.5 351 Q313 374 274 374 Q251 374 233.5 364 Q216 354 204 343 Q190 330 180 313 L180 0 L60 0 L60 474 L172 474 L172 405 Q185 427 205 445 Q222 460 249 473 Q276 486 314 486 Z M92 661 L158 743 L278 652 L398 743 L464 661 L278 527 L92 661 Z " />
<glyph glyph-name="napostrophe" unicode="&#x149;" horiz-adv-x="656" d="M422 486 Q456 486 487.5 474 Q519 462 543 439 Q567 416 581.5 383 Q596 350 596 307 L596 0 L476 0 L476 277 Q476 328 448.5 351 Q421 374 382 374 Q359 374 341.5 364 Q324 354 312 343 Q298 330 288 313 L288 0 L168 0 L168 474 L280 474 L280 405 Q293 427 313 445 Q330 460 357 473 Q384 486 422 486 Z M12 700 L118 700 L118 454 L12 454 L12 700 Z " />
<glyph glyph-name="Eng" unicode="&#x14a;" horiz-adv-x="726" d="M182 700 L532 218 L532 700 L652 700 L652 -43 Q652 -101 634.5 -139.5 Q617 -178 590.5 -200.5 Q564 -223 533.5 -232.5 Q503 -242 476 -242 Q451 -242 422.5 -235.5 Q394 -229 364 -211 L408 -111 Q416 -117 425 -121 Q433 -125 441.5 -127.5 Q450 -130 458 -130 Q470 -130 483 -127.5 Q496 -125 507 -115.5 Q518 -106 525 -86.5 Q532 -67 532 -32 L532 16 L194 481 L194 0 L74 0 L74 700 L182 700 Z " />
<glyph glyph-name="eng" unicode="&#x14b;" horiz-adv-x="548" d="M314 486 Q348 486 379.5 474 Q411 462 435 439 Q459 416 473.5 383 Q488 350 488 307 L488 -43 Q488 -101 470.5 -139.5 Q453 -178 426.5 -200.5 Q400 -223 369.5 -232.5 Q339 -242 312 -242 Q287 -242 258.5 -235.5 Q230 -229 200 -211 L244 -111 Q252 -117 261 -121 Q269 -125 277.5 -127.5 Q286 -130 294 -130 Q306 -130 319 -127.5 Q332 -125 343 -115.5 Q354 -106 361 -86.5 Q368 -67 368 -32 L368 277 Q368 328 340.5 351 Q313 374 274 374 Q251 374 233.5 364 Q216 354 204 342 Q190 328 180 311 L180 0 L60 0 L60 474 L172 474 L172 405 Q185 427 205 445 Q222 460 249 473 Q276 486 314 486 Z " />
<glyph glyph-name="Ograve" unicode="&#xd2;" horiz-adv-x="776" d="M388 712 Q464 712 529 684.5 Q594 657 641.5 608.5 Q689 560 715.5 494 Q742 428 742 350 Q742 272 715.5 206 Q689 140 641.5 91.5 Q594 43 529 15.5 Q464 -12 388 -12 Q311 -12 246.5 15.5 Q182 43 134.5 91.5 Q87 140 60.5 206 Q34 272 34 350 Q34 428 60.5 494 Q87 560 134.5 608.5 Q182 657 246.5 684.5 Q311 712 388 712 Z M388 102 Q441 102 484 122 Q527 142 557 175.5 Q587 209 603.5 254 Q620 299 620 350 Q620 401 603.5 446 Q587 491 557 524.5 Q527 558 484 578 Q441 598 388 598 Q335 598 292 578 Q249 558 219 524.5 Q189 491 172.5 446 Q156 401 156 350 Q156 299 172.5 254 Q189 209 219 175.5 Q249 142 292 122 Q335 102 388 102 Z M330 992 L501 818 L424 745 L249 913 L330 992 Z " />
<glyph glyph-name="ograve" unicode="&#xf2;" horiz-adv-x="562" d="M281 486 Q334 486 380 467 Q426 448 460.5 414 Q495 380 514.5 334.5 Q534 289 534 237 Q534 185 514.5 139.5 Q495 94 460.5 60.5 Q426 27 380 7.5 Q334 -12 281 -12 Q228 -12 182 7.5 Q136 27 101.5 60.5 Q67 94 47.5 139.5 Q28 185 28 237 Q28 289 47.5 334.5 Q67 380 101.5 414 Q136 448 182 467 Q228 486 281 486 Z M281 100 Q311 100 335.5 111 Q360 122 377 140.5 Q394 159 403 184 Q412 209 412 237 Q412 265 403 289.5 Q394 314 377 333 Q360 352 335.5 363 Q311 374 281 374 Q251 374 226.5 363 Q202 352 185 333 Q168 314 159 289.5 Q150 265 150 237 Q150 209 159 184 Q168 159 185 140.5 Q202 122 226.5 111 Q251 100 281 100 Z M206 774 L377 600 L300 527 L125 695 L206 774 Z " />
<glyph glyph-name="Oacute" unicode="&#xd3;" horiz-adv-x="776" d="M522 912 L347 744 L270 817 L441 991 L522 912 Z M388 712 Q464 712 529 684.5 Q594 657 641.5 608.5 Q689 560 715.5 494 Q742 428 742 350 Q742 272 715.5 206 Q689 140 641.5 91.5 Q594 43 529 15.5 Q464 -12 388 -12 Q311 -12 246.5 15.5 Q182 43 134.5 91.5 Q87 140 60.5 206 Q34 272 34 350 Q34 428 60.5 494 Q87 560 134.5 608.5 Q182 657 246.5 684.5 Q311 712 388 712 Z M388 102 Q441 102 484 122 Q527 142 557 175.5 Q587 209 603.5 254 Q620 299 620 350 Q620 401 603.5 446 Q587 491 557 524.5 Q527 558 484 578 Q441 598 388 598 Q335 598 292 578 Q249 558 219 524.5 Q189 491 172.5 446 Q156 401 156 350 Q156 299 172.5 254 Q189 209 219 175.5 Q249 142 292 122 Q335 102 388 102 Z " />
<glyph glyph-name="oacute" unicode="&#xf3;" horiz-adv-x="562" d="M437 694 L262 526 L185 599 L356 773 L437 694 Z M281 486 Q334 486 380 467 Q426 448 460.5 414 Q495 380 514.5 334.5 Q534 289 534 237 Q534 185 514.5 139.5 Q495 94 460.5 60.5 Q426 27 380 7.5 Q334 -12 281 -12 Q228 -12 182 7.5 Q136 27 101.5 60.5 Q67 94 47.5 139.5 Q28 185 28 237 Q28 289 47.5 334.5 Q67 380 101.5 414 Q136 448 182 467 Q228 486 281 486 Z M281 100 Q311 100 335.5 111 Q360 122 377 140.5 Q394 159 403 184 Q412 209 412 237 Q412 265 403 289.5 Q394 314 377 333 Q360 352 335.5 363 Q311 374 281 374 Q251 374 226.5 363 Q202 352 185 333 Q168 314 159 289.5 Q150 265 150 237 Q150 209 159 184 Q168 159 185 140.5 Q202 122 226.5 111 Q251 100 281 100 Z " />
<glyph glyph-name="Ocircumflex" unicode="&#xd4;" horiz-adv-x="776" d="M388 712 Q464 712 529 684.5 Q594 657 641.5 608.5 Q689 560 715.5 494 Q742 428 742 350 Q742 272 715.5 206 Q689 140 641.5 91.5 Q594 43 529 15.5 Q464 -12 388 -12 Q311 -12 246.5 15.5 Q182 43 134.5 91.5 Q87 140 60.5 206 Q34 272 34 350 Q34 428 60.5 494 Q87 560 134.5 608.5 Q182 657 246.5 684.5 Q311 712 388 712 Z M388 102 Q441 102 484 122 Q527 142 557 175.5 Q587 209 603.5 254 Q620 299 620 350 Q620 401 603.5 446 Q587 491 557 524.5 Q527 558 484 578 Q441 598 388 598 Q335 598 292 578 Q249 558 219 524.5 Q189 491 172.5 446 Q156 401 156 350 Q156 299 172.5 254 Q189 209 219 175.5 Q249 142 292 122 Q335 102 388 102 Z M390 958 L576 824 L510 742 L390 833 L268 742 L204 824 L390 958 Z " />
<glyph glyph-name="ocircumflex" unicode="&#xf4;" horiz-adv-x="562" d="M281 486 Q334 486 380 467 Q426 448 460.5 414 Q495 380 514.5 334.5 Q534 289 534 237 Q534 185 514.5 139.5 Q495 94 460.5 60.5 Q426 27 380 7.5 Q334 -12 281 -12 Q228 -12 182 7.5 Q136 27 101.5 60.5 Q67 94 47.5 139.5 Q28 185 28 237 Q28 289 47.5 334.5 Q67 380 101.5 414 Q136 448 182 467 Q228 486 281 486 Z M281 100 Q311 100 335.5 111 Q360 122 377 140.5 Q394 159 403 184 Q412 209 412 237 Q412 265 403 289.5 Q394 314 377 333 Q360 352 335.5 363 Q311 374 281 374 Q251 374 226.5 363 Q202 352 185 333 Q168 314 159 289.5 Q150 265 150 237 Q150 209 159 184 Q168 159 185 140.5 Q202 122 226.5 111 Q251 100 281 100 Z M281 740 L467 606 L401 524 L281 615 L159 524 L95 606 L281 740 Z " />
<glyph glyph-name="Otilde" unicode="&#xd5;" horiz-adv-x="776" d="M388 712 Q464 712 529 684.5 Q594 657 641.5 608.5 Q689 560 715.5 494 Q742 428 742 350 Q742 272 715.5 206 Q689 140 641.5 91.5 Q594 43 529 15.5 Q464 -12 388 -12 Q311 -12 246.5 15.5 Q182 43 134.5 91.5 Q87 140 60.5 206 Q34 272 34 350 Q34 428 60.5 494 Q87 560 134.5 608.5 Q182 657 246.5 684.5 Q311 712 388 712 Z M388 102 Q441 102 484 122 Q527 142 557 175.5 Q587 209 603.5 254 Q620 299 620 350 Q620 401 603.5 446 Q587 491 557 524.5 Q527 558 484 578 Q441 598 388 598 Q335 598 292 578 Q249 558 219 524.5 Q189 491 172.5 446 Q156 401 156 350 Q156 299 172.5 254 Q189 209 219 175.5 Q249 142 292 122 Q335 102 388 102 Z M186 836 Q198 865 216 888 Q232 908 257 924 Q282 940 320 940 Q342 940 361 931 Q380 922 396.5 911 Q413 900 428 891 Q443 882 457 882 Q473 882 483.5 892 Q494 902 500 914 Q507 928 511 947 L593 882 Q582 852 564 829 Q549 809 524 792.5 Q499 776 463 776 Q441 776 422.5 785 Q404 794 387 804.5 Q370 815 355 824 Q340 833 326 833 Q309 833 299 824 Q289 815 282 804 Q274 791 270 775 L186 836 Z " />
<glyph glyph-name="otilde" unicode="&#xf5;" horiz-adv-x="562" d="M281 486 Q334 486 380 467 Q426 448 460.5 414 Q495 380 514.5 334.5 Q534 289 534 237 Q534 185 514.5 139.5 Q495 94 460.5 60.5 Q426 27 380 7.5 Q334 -12 281 -12 Q228 -12 182 7.5 Q136 27 101.5 60.5 Q67 94 47.5 139.5 Q28 185 28 237 Q28 289 47.5 334.5 Q67 380 101.5 414 Q136 448 182 467 Q228 486 281 486 Z M281 100 Q311 100 335.5 111 Q360 122 377 140.5 Q394 159 403 184 Q412 209 412 237 Q412 265 403 289.5 Q394 314 377 333 Q360 352 335.5 363 Q311 374 281 374 Q251 374 226.5 363 Q202 352 185 333 Q168 314 159 289.5 Q150 265 150 237 Q150 209 159 184 Q168 159 185 140.5 Q202 122 226.5 111 Q251 100 281 100 Z M80 611 Q92 640 110 663 Q126 683 151 699 Q176 715 214 715 Q236 715 255 706 Q274 697 290.5 686 Q307 675 322 666 Q337 657 351 657 Q367 657 377.5 667 Q388 677 394 689 Q401 703 405 722 L487 657 Q476 627 458 604 Q443 584 418 567.5 Q393 551 357 551 Q335 551 316.5 560 Q298 569 281 579.5 Q264 590 249 599 Q234 608 220 608 Q203 608 193 599 Q183 590 176 579 Q168 566 164 550 L80 611 Z " />
<glyph glyph-name="Odieresis" unicode="&#xd6;" horiz-adv-x="776" d="M388 712 Q464 712 529 684.5 Q594 657 641.5 608.5 Q689 560 715.5 494 Q742 428 742 350 Q742 272 715.5 206 Q689 140 641.5 91.5 Q594 43 529 15.5 Q464 -12 388 -12 Q311 -12 246.5 15.5 Q182 43 134.5 91.5 Q87 140 60.5 206 Q34 272 34 350 Q34 428 60.5 494 Q87 560 134.5 608.5 Q182 657 246.5 684.5 Q311 712 388 712 Z M388 102 Q441 102 484 122 Q527 142 557 175.5 Q587 209 603.5 254 Q620 299 620 350 Q620 401 603.5 446 Q587 491 557 524.5 Q527 558 484 578 Q441 598 388 598 Q335 598 292 578 Q249 558 219 524.5 Q189 491 172.5 446 Q156 401 156 350 Q156 299 172.5 254 Q189 209 219 175.5 Q249 142 292 122 Q335 102 388 102 Z M206 859 Q206 892 229 915 Q252 938 285 938 Q318 938 341 915 Q364 892 364 859 Q364 826 341 803 Q318 780 285 780 Q252 780 229 803 Q206 826 206 859 Z M412 859 Q412 892 435 915 Q458 938 491 938 Q524 938 547 915 Q570 892 570 859 Q570 826 547 803 Q524 780 491 780 Q458 780 435 803 Q412 826 412 859 Z " />
<glyph glyph-name="odieresis" unicode="&#xf6;" horiz-adv-x="562" d="M281 486 Q334 486 380 467 Q426 448 460.5 414 Q495 380 514.5 334.5 Q534 289 534 237 Q534 185 514.5 139.5 Q495 94 460.5 60.5 Q426 27 380 7.5 Q334 -12 281 -12 Q228 -12 182 7.5 Q136 27 101.5 60.5 Q67 94 47.5 139.5 Q28 185 28 237 Q28 289 47.5 334.5 Q67 380 101.5 414 Q136 448 182 467 Q228 486 281 486 Z M281 100 Q311 100 335.5 111 Q360 122 377 140.5 Q394 159 403 184 Q412 209 412 237 Q412 265 403 289.5 Q394 314 377 333 Q360 352 335.5 363 Q311 374 281 374 Q251 374 226.5 363 Q202 352 185 333 Q168 314 159 289.5 Q150 265 150 237 Q150 209 159 184 Q168 159 185 140.5 Q202 122 226.5 111 Q251 100 281 100 Z M99 631 Q99 664 122 687 Q145 710 178 710 Q211 710 234 687 Q257 664 257 631 Q257 598 234 575 Q211 552 178 552 Q145 552 122 575 Q99 598 99 631 Z M305 631 Q305 664 328 687 Q351 710 384 710 Q417 710 440 687 Q463 664 463 631 Q463 598 440 575 Q417 552 384 552 Q351 552 328 575 Q305 598 305 631 Z " />
<glyph glyph-name="Oslash" unicode="&#xd8;" horiz-adv-x="784" d="M135 95 Q89 143 63.5 208 Q38 273 38 350 Q38 428 64.5 494 Q91 560 138.5 608.5 Q186 657 250.5 684.5 Q315 712 392 712 Q452 712 504.5 695 Q557 678 600 647 L670 729 L719 688 L649 605 Q695 556 720.5 491 Q746 426 746 350 Q746 272 719.5 206 Q693 140 645.5 91.5 Q598 43 533 15.5 Q468 -12 392 -12 Q332 -12 279.5 5 Q227 22 183 53 L114 -29 L65 12 L135 95 Z M160 350 Q160 303 173.5 261.5 Q187 220 213 187 L525 557 Q498 577 464 587.5 Q430 598 392 598 Q339 598 296 578 Q253 558 223 524.5 Q193 491 176.5 446 Q160 401 160 350 Z M392 102 Q445 102 488 122 Q531 142 561 175.5 Q591 209 607.5 254 Q624 299 624 350 Q624 396 610.5 437.5 Q597 479 571 512 L259 143 Q286 123 319.5 112.5 Q353 102 392 102 Z " />
<glyph glyph-name="oslash" unicode="&#xf8;" horiz-adv-x="570" d="M285 486 Q323 486 357.5 476 Q392 466 421 448 L464 499 L512 459 L469 408 Q501 375 519.5 331.5 Q538 288 538 237 Q538 185 518.5 139.5 Q499 94 464.5 60.5 Q430 27 384 7.5 Q338 -12 285 -12 Q247 -12 211.5 -2 Q176 8 147 27 L101 -27 L53 13 L99 67 Q67 100 49.5 143.5 Q32 187 32 237 Q32 289 51.5 334.5 Q71 380 105.5 414 Q140 448 186 467 Q232 486 285 486 Z M285 100 Q315 100 339.5 111 Q364 122 381 140.5 Q398 159 407 184 Q416 209 416 237 Q416 283 393 318 L221 115 Q248 100 285 100 Z M154 237 Q154 215 159.5 195 Q165 175 176 158 L346 360 Q320 374 285 374 Q255 374 230.5 363 Q206 352 189 333 Q172 314 163 289.5 Q154 265 154 237 Z " />
<glyph glyph-name="Omacron" unicode="&#x14c;" horiz-adv-x="776" d="M388 712 Q464 712 529 684.5 Q594 657 641.5 608.5 Q689 560 715.5 494 Q742 428 742 350 Q742 272 715.5 206 Q689 140 641.5 91.5 Q594 43 529 15.5 Q464 -12 388 -12 Q311 -12 246.5 15.5 Q182 43 134.5 91.5 Q87 140 60.5 206 Q34 272 34 350 Q34 428 60.5 494 Q87 560 134.5 608.5 Q182 657 246.5 684.5 Q311 712 388 712 Z M388 102 Q441 102 484 122 Q527 142 557 175.5 Q587 209 603.5 254 Q620 299 620 350 Q620 401 603.5 446 Q587 491 557 524.5 Q527 558 484 578 Q441 598 388 598 Q335 598 292 578 Q249 558 219 524.5 Q189 491 172.5 446 Q156 401 156 350 Q156 299 172.5 254 Q189 209 219 175.5 Q249 142 292 122 Q335 102 388 102 Z M227 898 L549 898 L549 790 L227 790 L227 898 Z " />
<glyph glyph-name="omacron" unicode="&#x14d;" horiz-adv-x="562" d="M281 486 Q334 486 380 467 Q426 448 460.5 414 Q495 380 514.5 334.5 Q534 289 534 237 Q534 185 514.5 139.5 Q495 94 460.5 60.5 Q426 27 380 7.5 Q334 -12 281 -12 Q228 -12 182 7.5 Q136 27 101.5 60.5 Q67 94 47.5 139.5 Q28 185 28 237 Q28 289 47.5 334.5 Q67 380 101.5 414 Q136 448 182 467 Q228 486 281 486 Z M281 100 Q311 100 335.5 111 Q360 122 377 140.5 Q394 159 403 184 Q412 209 412 237 Q412 265 403 289.5 Q394 314 377 333 Q360 352 335.5 363 Q311 374 281 374 Q251 374 226.5 363 Q202 352 185 333 Q168 314 159 289.5 Q150 265 150 237 Q150 209 159 184 Q168 159 185 140.5 Q202 122 226.5 111 Q251 100 281 100 Z M120 676 L442 676 L442 568 L120 568 L120 676 Z " />
<glyph glyph-name="Obreve" unicode="&#x14e;" horiz-adv-x="776" d="M388 712 Q464 712 529 684.5 Q594 657 641.5 608.5 Q689 560 715.5 494 Q742 428 742 350 Q742 272 715.5 206 Q689 140 641.5 91.5 Q594 43 529 15.5 Q464 -12 388 -12 Q311 -12 246.5 15.5 Q182 43 134.5 91.5 Q87 140 60.5 206 Q34 272 34 350 Q34 428 60.5 494 Q87 560 134.5 608.5 Q182 657 246.5 684.5 Q311 712 388 712 Z M388 102 Q441 102 484 122 Q527 142 557 175.5 Q587 209 603.5 254 Q620 299 620 350 Q620 401 603.5 446 Q587 491 557 524.5 Q527 558 484 578 Q441 598 388 598 Q335 598 292 578 Q249 558 219 524.5 Q189 491 172.5 446 Q156 401 156 350 Q156 299 172.5 254 Q189 209 219 175.5 Q249 142 292 122 Q335 102 388 102 Z M317 928 Q317 908 325 892 Q332 878 346.5 867 Q361 856 388 856 Q415 856 429 867 Q443 878 450 892 Q458 908 459 928 L567 928 Q564 882 545 846 Q537 831 524 816 Q511 801 492 789.5 Q473 778 447.5 771 Q422 764 388 764 Q354 764 328.5 771 Q303 778 284 789.5 Q265 801 252 816 Q239 831 231 846 Q212 882 209 928 L317 928 Z " />
<glyph glyph-name="obreve" unicode="&#x14f;" horiz-adv-x="562" d="M281 486 Q334 486 380 467 Q426 448 460.5 414 Q495 380 514.5 334.5 Q534 289 534 237 Q534 185 514.5 139.5 Q495 94 460.5 60.5 Q426 27 380 7.5 Q334 -12 281 -12 Q228 -12 182 7.5 Q136 27 101.5 60.5 Q67 94 47.5 139.5 Q28 185 28 237 Q28 289 47.5 334.5 Q67 380 101.5 414 Q136 448 182 467 Q228 486 281 486 Z M281 100 Q311 100 335.5 111 Q360 122 377 140.5 Q394 159 403 184 Q412 209 412 237 Q412 265 403 289.5 Q394 314 377 333 Q360 352 335.5 363 Q311 374 281 374 Q251 374 226.5 363 Q202 352 185 333 Q168 314 159 289.5 Q150 265 150 237 Q150 209 159 184 Q168 159 185 140.5 Q202 122 226.5 111 Q251 100 281 100 Z M210 712 Q210 692 218 676 Q225 662 239.5 651 Q254 640 281 640 Q308 640 322 651 Q336 662 343 676 Q351 692 352 712 L460 712 Q457 666 438 630 Q430 615 417 600 Q404 585 385 573.5 Q366 562 340.5 555 Q315 548 281 548 Q247 548 221.5 555 Q196 562 177 573.5 Q158 585 145 600 Q132 615 124 630 Q105 666 102 712 L210 712 Z " />
<glyph glyph-name="Ohungarumlaut" unicode="&#x150;" horiz-adv-x="776" d="M388 712 Q464 712 529 684.5 Q594 657 641.5 608.5 Q689 560 715.5 494 Q742 428 742 350 Q742 272 715.5 206 Q689 140 641.5 91.5 Q594 43 529 15.5 Q464 -12 388 -12 Q311 -12 246.5 15.5 Q182 43 134.5 91.5 Q87 140 60.5 206 Q34 272 34 350 Q34 428 60.5 494 Q87 560 134.5 608.5 Q182 657 246.5 684.5 Q311 712 388 712 Z M388 102 Q441 102 484 122 Q527 142 557 175.5 Q587 209 603.5 254 Q620 299 620 350 Q620 401 603.5 446 Q587 491 557 524.5 Q527 558 484 578 Q441 598 388 598 Q335 598 292 578 Q249 558 219 524.5 Q189 491 172.5 446 Q156 401 156 350 Q156 299 172.5 254 Q189 209 219 175.5 Q249 142 292 122 Q335 102 388 102 Z M451 927 L323 750 L247 797 L367 981 L451 927 Z M620 927 L492 750 L416 797 L536 981 L620 927 Z " />
<glyph glyph-name="ohungarumlaut" unicode="&#x151;" horiz-adv-x="562" d="M281 486 Q334 486 380 467 Q426 448 460.5 414 Q495 380 514.5 334.5 Q534 289 534 237 Q534 185 514.5 139.5 Q495 94 460.5 60.5 Q426 27 380 7.5 Q334 -12 281 -12 Q228 -12 182 7.5 Q136 27 101.5 60.5 Q67 94 47.5 139.5 Q28 185 28 237 Q28 289 47.5 334.5 Q67 380 101.5 414 Q136 448 182 467 Q228 486 281 486 Z M281 100 Q311 100 335.5 111 Q360 122 377 140.5 Q394 159 403 184 Q412 209 412 237 Q412 265 403 289.5 Q394 314 377 333 Q360 352 335.5 363 Q311 374 281 374 Q251 374 226.5 363 Q202 352 185 333 Q168 314 159 289.5 Q150 265 150 237 Q150 209 159 184 Q168 159 185 140.5 Q202 122 226.5 111 Q251 100 281 100 Z M323 693 L195 516 L119 563 L239 747 L323 693 Z M492 693 L364 516 L288 563 L408 747 L492 693 Z " />
<glyph glyph-name="OE" unicode="&#x152;" horiz-adv-x="826" d="M524 416 L754 416 L754 302 L524 302 L524 112 L784 112 L784 0 L379 0 Q306 0 242.5 26.5 Q179 53 131.5 100 Q84 147 57 211 Q30 275 30 350 Q30 425 57 489 Q84 553 131.5 600 Q179 647 242.5 673.5 Q306 700 379 700 L778 700 L778 588 L524 588 L524 416 Z M404 588 L379 588 Q329 588 287.5 569 Q246 550 216 517.5 Q186 485 169 441.5 Q152 398 152 350 Q152 302 169 259 Q186 216 216 183 Q246 150 287.5 131 Q329 112 379 112 L404 112 L404 588 Z " />
<glyph glyph-name="oe" unicode="&#x153;" horiz-adv-x="916" d="M653 486 Q704 486 747.5 468 Q791 450 822 417.5 Q853 385 870.5 339.5 Q888 294 888 239 Q888 232 888 220.5 Q888 209 887 195 L536 195 Q539 179 549.5 162 Q560 145 577 130.5 Q594 116 617 107 Q640 98 668 98 Q699 98 723 105.5 Q747 113 764 122 Q783 133 798 146 L858 56 Q835 37 806 22 Q781 9 746 -1.5 Q711 -12 668 -12 Q608 -12 557.5 11 Q507 34 472 74 Q437 33 387.5 10.5 Q338 -12 280 -12 Q227 -12 181.5 7.5 Q136 27 101.5 60.5 Q67 94 47.5 139.5 Q28 185 28 237 Q28 289 47.5 334.5 Q67 380 101.5 414 Q136 448 181.5 467 Q227 486 280 486 Q337 486 386 463 Q435 440 470 401 Q502 440 549 463 Q596 486 653 486 Z M280 100 Q310 100 334.5 111 Q359 122 376 140.5 Q393 159 402.5 184 Q412 209 412 237 Q412 265 402.5 289.5 Q393 314 376 333 Q359 352 334.5 363 Q310 374 280 374 Q250 374 225.5 363 Q201 352 184 333 Q167 314 157.5 289.5 Q148 265 148 237 Q148 209 157.5 184 Q167 159 184 140.5 Q201 122 225.5 111 Q250 100 280 100 Z M769 280 Q768 295 761 312.5 Q754 330 740 344 Q726 358 704.5 367.5 Q683 377 653 377 Q624 377 602.5 367.5 Q581 358 567 344 Q553 330 545 313 Q537 296 536 280 L769 280 Z " />
<glyph glyph-name="Racute" unicode="&#x154;" horiz-adv-x="583" d="M74 700 L304 700 Q356 700 399 684 Q442 668 472.5 639 Q503 610 519.5 570 Q536 530 536 482 Q536 403 495.5 347 Q455 291 380 272 L555 0 L415 0 L249 264 L194 264 L194 0 L74 0 L74 700 Z M289 378 Q347 378 380.5 404 Q414 430 414 482 Q414 534 380.5 560 Q347 586 289 586 L194 586 L194 378 L289 378 Z M436 912 L261 744 L184 817 L355 991 L436 912 Z " />
<glyph glyph-name="racute" unicode="&#x155;" horiz-adv-x="387" d="M303 486 Q319 486 334 483.5 Q349 481 360 478 Q373 474 385 471 L343 363 Q337 365 328 368 Q320 370 309.5 372 Q299 374 286 374 Q258 374 238.5 364 Q219 354 206 342 Q191 328 180 310 L180 0 L60 0 L60 474 L174 474 L174 405 Q187 427 205 445 Q221 460 245.5 473 Q270 486 303 486 Z M334 694 L159 526 L82 599 L253 773 L334 694 Z " />
<glyph glyph-name="Rcedilla" unicode="&#x156;" horiz-adv-x="583" d="M74 700 L304 700 Q356 700 399 684 Q442 668 472.5 639 Q503 610 519.5 570 Q536 530 536 482 Q536 403 495.5 347 Q455 291 380 272 L555 0 L415 0 L249 264 L194 264 L194 0 L74 0 L74 700 Z M289 378 Q347 378 380.5 404 Q414 430 414 482 Q414 534 380.5 560 Q347 586 289 586 L194 586 L194 378 L289 378 Z M301 -261 L190 -229 L262 -35 L369 -47 L301 -261 Z " />
<glyph glyph-name="rcedilla" unicode="&#x157;" horiz-adv-x="387" d="M303 486 Q319 486 334 483.5 Q349 481 360 478 Q373 474 385 471 L343 363 Q337 365 328 368 Q320 370 309.5 372 Q299 374 286 374 Q258 374 238.5 364 Q219 354 206 342 Q191 328 180 310 L180 0 L60 0 L60 474 L174 474 L174 405 Q187 427 205 445 Q221 460 245.5 473 Q270 486 303 486 Z M142 -271 L31 -239 L103 -45 L210 -57 L142 -271 Z " />
<glyph glyph-name="Rcaron" unicode="&#x158;" horiz-adv-x="583" d="M74 700 L304 700 Q356 700 399 684 Q442 668 472.5 639 Q503 610 519.5 570 Q536 530 536 482 Q536 403 495.5 347 Q455 291 380 272 L555 0 L415 0 L249 264 L194 264 L194 0 L74 0 L74 700 Z M289 378 Q347 378 380.5 404 Q414 430 414 482 Q414 534 380.5 560 Q347 586 289 586 L194 586 L194 378 L289 378 Z M111 885 L177 967 L297 876 L417 967 L483 885 L297 751 L111 885 Z " />
<glyph glyph-name="rcaron" unicode="&#x159;" horiz-adv-x="387" d="M303 486 Q319 486 334 483.5 Q349 481 360 478 Q373 474 385 471 L343 363 Q337 365 328 368 Q320 370 309.5 372 Q299 374 286 374 Q258 374 238.5 364 Q219 354 206 342 Q191 328 180 310 L180 0 L60 0 L60 474 L174 474 L174 405 Q187 427 205 445 Q221 460 245.5 473 Q270 486 303 486 Z M20 661 L86 743 L206 652 L326 743 L392 661 L206 527 L20 661 Z " />
<glyph glyph-name="Sacute" unicode="&#x15a;" horiz-adv-x="595" d="M424 183 Q424 205 415.5 221 Q407 237 391 249 Q375 261 351 271 Q327 281 296 292 Q257 305 218 323.5 Q179 342 147.5 368 Q116 394 96.5 429.5 Q77 465 77 514 Q77 551 93 586.5 Q109 622 138.5 650 Q168 678 210.5 695 Q253 712 306 712 Q361 712 403.5 694.5 Q446 677 475 656 Q509 631 534 601 L451 519 Q433 540 411 558 Q392 573 365 585.5 Q338 598 306 598 Q283 598 263.5 591.5 Q244 585 230 573.5 Q216 562 207.5 547 Q199 532 199 514 Q199 491 209 475 Q219 459 238.5 446.5 Q258 434 286 422.5 Q314 411 350 398 Q390 383 425.5 365.5 Q461 348 488 323 Q515 298 530.5 264.5 Q546 231 546 183 Q546 135 526.5 99 Q507 63 473.5 38 Q440 13 395.5 0.5 Q351 -12 302 -12 Q236 -12 188 10 Q140 32 108 59 Q71 91 46 131 L136 207 Q154 177 179 154 Q200 134 231 118 Q262 102 302 102 Q324 102 346 106.5 Q368 111 385.5 121 Q403 131 413.5 146.5 Q424 162 424 183 Z M452 912 L277 744 L200 817 L371 991 L452 912 Z " />
<glyph glyph-name="sacute" unicode="&#x15b;" horiz-adv-x="483" d="M97 161 Q115 142 138 127 Q158 114 184 103.5 Q210 93 240 93 Q277 93 303.5 103.5 Q330 114 330 136 Q330 159 310 168 Q290 177 236 188 Q201 195 169 207 Q137 219 113 237 Q89 255 74.5 279.5 Q60 304 60 338 Q60 366 73.5 392.5 Q87 419 113 440 Q139 461 177 473.5 Q215 486 264 486 Q304 486 337 477 Q370 468 393 457 Q420 444 442 428 L382 340 Q365 351 347 360 Q330 368 309 374.5 Q288 381 264 381 Q230 381 204 369.5 Q178 358 178 336 Q178 314 204 305 Q230 296 290 283 Q325 275 354.5 265 Q384 255 405.5 238 Q427 221 439 196 Q451 171 451 134 Q451 104 435.5 77 Q420 50 392.5 30.5 Q365 11 327 -0.5 Q289 -12 244 -12 Q191 -12 151.5 1 Q112 14 85 31 Q53 49 30 74 L97 161 Z M406 694 L231 526 L154 599 L325 773 L406 694 Z " />
<glyph glyph-name="Scircumflex" unicode="&#x15c;" horiz-adv-x="595" d="M424 183 Q424 205 415.5 221 Q407 237 391 249 Q375 261 351 271 Q327 281 296 292 Q257 305 218 323.5 Q179 342 147.5 368 Q116 394 96.5 429.5 Q77 465 77 514 Q77 551 93 586.5 Q109 622 138.5 650 Q168 678 210.5 695 Q253 712 306 712 Q361 712 403.5 694.5 Q446 677 475 656 Q509 631 534 601 L451 519 Q433 540 411 558 Q392 573 365 585.5 Q338 598 306 598 Q283 598 263.5 591.5 Q244 585 230 573.5 Q216 562 207.5 547 Q199 532 199 514 Q199 491 209 475 Q219 459 238.5 446.5 Q258 434 286 422.5 Q314 411 350 398 Q390 383 425.5 365.5 Q461 348 488 323 Q515 298 530.5 264.5 Q546 231 546 183 Q546 135 526.5 99 Q507 63 473.5 38 Q440 13 395.5 0.5 Q351 -12 302 -12 Q236 -12 188 10 Q140 32 108 59 Q71 91 46 131 L136 207 Q154 177 179 154 Q200 134 231 118 Q262 102 302 102 Q324 102 346 106.5 Q368 111 385.5 121 Q403 131 413.5 146.5 Q424 162 424 183 Z M316 958 L502 824 L436 742 L316 833 L194 742 L130 824 L316 958 Z " />
<glyph glyph-name="scircumflex" unicode="&#x15d;" horiz-adv-x="483" d="M97 161 Q115 142 138 127 Q158 114 184 103.5 Q210 93 240 93 Q277 93 303.5 103.5 Q330 114 330 136 Q330 159 310 168 Q290 177 236 188 Q201 195 169 207 Q137 219 113 237 Q89 255 74.5 279.5 Q60 304 60 338 Q60 366 73.5 392.5 Q87 419 113 440 Q139 461 177 473.5 Q215 486 264 486 Q304 486 337 477 Q370 468 393 457 Q420 444 442 428 L382 340 Q365 351 347 360 Q330 368 309 374.5 Q288 381 264 381 Q230 381 204 369.5 Q178 358 178 336 Q178 314 204 305 Q230 296 290 283 Q325 275 354.5 265 Q384 255 405.5 238 Q427 221 439 196 Q451 171 451 134 Q451 104 435.5 77 Q420 50 392.5 30.5 Q365 11 327 -0.5 Q289 -12 244 -12 Q191 -12 151.5 1 Q112 14 85 31 Q53 49 30 74 L97 161 Z M263 739 L449 605 L383 523 L263 614 L141 523 L77 605 L263 739 Z " />
<glyph glyph-name="Scedilla" unicode="&#x15e;" horiz-adv-x="595" d="M424 183 Q424 205 415.5 221 Q407 237 391 249 Q375 261 351 271 Q327 281 296 292 Q257 305 218 323.5 Q179 342 147.5 368 Q116 394 96.5 429.5 Q77 465 77 514 Q77 551 93 586.5 Q109 622 138.5 650 Q168 678 210.5 695 Q253 712 306 712 Q361 712 403.5 694.5 Q446 677 475 656 Q509 631 534 601 L451 519 Q433 540 411 558 Q392 573 365 585.5 Q338 598 306 598 Q283 598 263.5 591.5 Q244 585 230 573.5 Q216 562 207.5 547 Q199 532 199 514 Q199 491 209 475 Q219 459 238.5 446.5 Q258 434 286 422.5 Q314 411 350 398 Q390 383 425.5 365.5 Q461 348 488 323 Q515 298 530.5 264.5 Q546 231 546 183 Q546 135 526.5 99 Q507 63 473.5 38 Q440 13 395.5 0.5 Q351 -12 302 -12 Q236 -12 188 10 Q140 32 108 59 Q71 91 46 131 L136 207 Q154 177 179 154 Q200 134 231 118 Q262 102 302 102 Q324 102 346 106.5 Q368 111 385.5 121 Q403 131 413.5 146.5 Q424 162 424 183 Z M280 -271 L169 -239 L241 -45 L348 -57 L280 -271 Z " />
<glyph glyph-name="scedilla" unicode="&#x15f;" horiz-adv-x="483" d="M97 161 Q115 142 138 127 Q158 114 184 103.5 Q210 93 240 93 Q277 93 303.5 103.5 Q330 114 330 136 Q330 159 310 168 Q290 177 236 188 Q201 195 169 207 Q137 219 113 237 Q89 255 74.5 279.5 Q60 304 60 338 Q60 366 73.5 392.5 Q87 419 113 440 Q139 461 177 473.5 Q215 486 264 486 Q304 486 337 477 Q370 468 393 457 Q420 444 442 428 L382 340 Q365 351 347 360 Q330 368 309 374.5 Q288 381 264 381 Q230 381 204 369.5 Q178 358 178 336 Q178 314 204 305 Q230 296 290 283 Q325 275 354.5 265 Q384 255 405.5 238 Q427 221 439 196 Q451 171 451 134 Q451 104 435.5 77 Q420 50 392.5 30.5 Q365 11 327 -0.5 Q289 -12 244 -12 Q191 -12 151.5 1 Q112 14 85 31 Q53 49 30 74 L97 161 Z M235 -271 L124 -239 L196 -45 L303 -57 L235 -271 Z " />
<glyph glyph-name="Scaron" unicode="&#x160;" horiz-adv-x="595" d="M424 183 Q424 205 415.5 221 Q407 237 391 249 Q375 261 351 271 Q327 281 296 292 Q257 305 218 323.5 Q179 342 147.5 368 Q116 394 96.5 429.5 Q77 465 77 514 Q77 551 93 586.5 Q109 622 138.5 650 Q168 678 210.5 695 Q253 712 306 712 Q361 712 403.5 694.5 Q446 677 475 656 Q509 631 534 601 L451 519 Q433 540 411 558 Q392 573 365 585.5 Q338 598 306 598 Q283 598 263.5 591.5 Q244 585 230 573.5 Q216 562 207.5 547 Q199 532 199 514 Q199 491 209 475 Q219 459 238.5 446.5 Q258 434 286 422.5 Q314 411 350 398 Q390 383 425.5 365.5 Q461 348 488 323 Q515 298 530.5 264.5 Q546 231 546 183 Q546 135 526.5 99 Q507 63 473.5 38 Q440 13 395.5 0.5 Q351 -12 302 -12 Q236 -12 188 10 Q140 32 108 59 Q71 91 46 131 L136 207 Q154 177 179 154 Q200 134 231 118 Q262 102 302 102 Q324 102 346 106.5 Q368 111 385.5 121 Q403 131 413.5 146.5 Q424 162 424 183 Z M131 879 L197 961 L317 870 L437 961 L503 879 L317 745 L131 879 Z " />
<glyph glyph-name="scaron" unicode="&#x161;" horiz-adv-x="483" d="M97 161 Q115 142 138 127 Q158 114 184 103.5 Q210 93 240 93 Q277 93 303.5 103.5 Q330 114 330 136 Q330 159 310 168 Q290 177 236 188 Q201 195 169 207 Q137 219 113 237 Q89 255 74.5 279.5 Q60 304 60 338 Q60 366 73.5 392.5 Q87 419 113 440 Q139 461 177 473.5 Q215 486 264 486 Q304 486 337 477 Q370 468 393 457 Q420 444 442 428 L382 340 Q365 351 347 360 Q330 368 309 374.5 Q288 381 264 381 Q230 381 204 369.5 Q178 358 178 336 Q178 314 204 305 Q230 296 290 283 Q325 275 354.5 265 Q384 255 405.5 238 Q427 221 439 196 Q451 171 451 134 Q451 104 435.5 77 Q420 50 392.5 30.5 Q365 11 327 -0.5 Q289 -12 244 -12 Q191 -12 151.5 1 Q112 14 85 31 Q53 49 30 74 L97 161 Z M76 660 L142 742 L262 651 L382 742 L448 660 L262 526 L76 660 Z " />
<glyph glyph-name="Tcedilla" unicode="&#x162;" horiz-adv-x="534" d="M207 586 L14 586 L14 700 L520 700 L520 586 L327 586 L327 0 L207 0 L207 586 Z M256 -271 L145 -239 L217 -45 L324 -57 L256 -271 Z " />
<glyph glyph-name="tcedilla" unicode="&#x163;" horiz-adv-x="416" d="M22 474 L115 474 L115 615 L235 615 L235 474 L378 474 L378 366 L235 366 L235 175 Q235 153 240 138.5 Q245 124 254 115.5 Q263 107 274 103.5 Q285 100 297 100 Q307 100 316 102.5 Q325 105 332 108 Q340 112 347 117 L391 19 Q378 10 360 3 Q345 -3 324 -7.5 Q303 -12 277 -12 Q242 -12 212.5 0 Q183 12 161.5 34 Q140 56 127.5 87 Q115 118 115 156 L115 366 L22 366 L22 474 Z M224 -271 L113 -239 L185 -45 L292 -57 L224 -271 Z " />
<glyph glyph-name="Tcaron" unicode="&#x164;" horiz-adv-x="534" d="M207 586 L14 586 L14 700 L520 700 L520 586 L327 586 L327 0 L207 0 L207 586 Z M81 877 L147 959 L267 868 L387 959 L453 877 L267 743 L81 877 Z " />
<glyph glyph-name="tcaron" unicode="&#x165;" horiz-adv-x="428" d="M22 474 L115 474 L115 615 L235 615 L235 474 L378 474 L378 366 L235 366 L235 175 Q235 153 240 138.5 Q245 124 254 115.5 Q263 107 274 103.5 Q285 100 297 100 Q307 100 316 102.5 Q325 105 332 108 Q340 112 347 117 L391 19 Q378 10 360 3 Q345 -3 324 -7.5 Q303 -12 277 -12 Q242 -12 212.5 0 Q183 12 161.5 34 Q140 56 127.5 87 Q115 118 115 156 L115 366 L22 366 L22 474 Z M310 780 L416 780 L416 534 L310 534 L310 780 Z " />
<glyph glyph-name="Tbar" unicode="&#x166;" horiz-adv-x="534" d="M84 474 L207 474 L207 586 L14 586 L14 700 L520 700 L520 586 L327 586 L327 474 L450 474 L450 374 L327 374 L327 0 L207 0 L207 374 L84 374 L84 474 Z " />
<glyph glyph-name="tbar" unicode="&#x167;" horiz-adv-x="406" d="M22 474 L105 474 L105 615 L225 615 L225 474 L368 474 L368 368 L225 368 L225 290 L368 290 L368 190 L225 190 L225 175 Q225 130 244.5 115 Q264 100 288 100 Q298 100 307 102.5 Q316 105 323 108 Q331 112 337 117 L381 19 Q368 10 350 3 Q335 -3 314 -7.5 Q293 -12 267 -12 Q232 -12 202.5 -0.5 Q173 11 151.5 32.5 Q130 54 117.5 85 Q105 116 105 156 L105 190 L22 190 L22 290 L105 290 L105 368 L22 368 L22 474 Z " />
<glyph glyph-name="Ugrave" unicode="&#xd9;" horiz-adv-x="688" d="M495 700 L615 700 L615 254 Q615 196 596 147.5 Q577 99 542 63.5 Q507 28 457 8 Q407 -12 345 -12 Q283 -12 233 8 Q183 28 148 63.5 Q113 99 94 147.5 Q75 196 75 254 L75 700 L195 700 L195 269 Q195 194 232.5 148 Q270 102 345 102 Q420 102 457.5 148 Q495 194 495 269 L495 700 Z M270 992 L441 818 L364 745 L189 913 L270 992 Z " />
<glyph glyph-name="ugrave" unicode="&#xf9;" horiz-adv-x="548" d="M234 -12 Q200 -12 168.5 0 Q137 12 113 35 Q89 58 74.5 91 Q60 124 60 167 L60 474 L180 474 L180 200 Q180 147 204 123.5 Q228 100 274 100 Q297 100 314.5 109 Q332 118 344 129 Q358 141 368 158 L368 474 L488 474 L488 0 L376 0 L376 69 Q361 46 341 28 Q324 13 297 0.5 Q270 -12 234 -12 Z M207 774 L378 600 L301 527 L126 695 L207 774 Z " />
<glyph glyph-name="Uacute" unicode="&#xda;" horiz-adv-x="688" d="M494 700 L614 700 L614 254 Q614 196 595 147.5 Q576 99 541 63.5 Q506 28 456 8 Q406 -12 344 -12 Q282 -12 232 8 Q182 28 147 63.5 Q112 99 93 147.5 Q74 196 74 254 L74 700 L194 700 L194 269 Q194 194 231.5 148 Q269 102 344 102 Q419 102 456.5 148 Q494 194 494 269 L494 700 Z M504 912 L329 744 L252 817 L423 991 L504 912 Z " />
<glyph glyph-name="uacute" unicode="&#xfa;" horiz-adv-x="548" d="M431 694 L256 526 L179 599 L350 773 L431 694 Z M234 -12 Q200 -12 168.5 0 Q137 12 113 35 Q89 58 74.5 91 Q60 124 60 167 L60 474 L180 474 L180 200 Q180 147 204 123.5 Q228 100 274 100 Q297 100 314.5 109 Q332 118 344 129 Q358 141 368 158 L368 474 L488 474 L488 0 L376 0 L376 69 Q361 46 341 28 Q324 13 297 0.5 Q270 -12 234 -12 Z " />
<glyph glyph-name="Ucircumflex" unicode="&#xdb;" horiz-adv-x="688" d="M494 700 L614 700 L614 254 Q614 196 595 147.5 Q576 99 541 63.5 Q506 28 456 8 Q406 -12 344 -12 Q282 -12 232 8 Q182 28 147 63.5 Q112 99 93 147.5 Q74 196 74 254 L74 700 L194 700 L194 269 Q194 194 231.5 148 Q269 102 344 102 Q419 102 456.5 148 Q494 194 494 269 L494 700 Z M344 958 L530 824 L464 742 L344 833 L222 742 L158 824 L344 958 Z " />
<glyph glyph-name="ucircumflex" unicode="&#xfb;" horiz-adv-x="548" d="M234 -12 Q200 -12 168.5 0 Q137 12 113 35 Q89 58 74.5 91 Q60 124 60 167 L60 474 L180 474 L180 200 Q180 147 204 123.5 Q228 100 274 100 Q297 100 314.5 109 Q332 118 344 129 Q358 141 368 158 L368 474 L488 474 L488 0 L376 0 L376 69 Q361 46 341 28 Q324 13 297 0.5 Q270 -12 234 -12 Z M275 740 L461 606 L395 524 L275 615 L153 524 L89 606 L275 740 Z " />
<glyph glyph-name="Udieresis" unicode="&#xdc;" horiz-adv-x="688" d="M494 700 L614 700 L614 254 Q614 196 595 147.5 Q576 99 541 63.5 Q506 28 456 8 Q406 -12 344 -12 Q282 -12 232 8 Q182 28 147 63.5 Q112 99 93 147.5 Q74 196 74 254 L74 700 L194 700 L194 269 Q194 194 231.5 148 Q269 102 344 102 Q419 102 456.5 148 Q494 194 494 269 L494 700 Z M162 859 Q162 892 185 915 Q208 938 241 938 Q274 938 297 915 Q320 892 320 859 Q320 826 297 803 Q274 780 241 780 Q208 780 185 803 Q162 826 162 859 Z M368 859 Q368 892 391 915 Q414 938 447 938 Q480 938 503 915 Q526 892 526 859 Q526 826 503 803 Q480 780 447 780 Q414 780 391 803 Q368 826 368 859 Z " />
<glyph glyph-name="udieresis" unicode="&#xfc;" horiz-adv-x="548" d="M234 -12 Q200 -12 168.5 0 Q137 12 113 35 Q89 58 74.5 91 Q60 124 60 167 L60 474 L180 474 L180 200 Q180 147 204 123.5 Q228 100 274 100 Q297 100 314.5 109 Q332 118 344 129 Q358 141 368 158 L368 474 L488 474 L488 0 L376 0 L376 69 Q361 46 341 28 Q324 13 297 0.5 Q270 -12 234 -12 Z M94 631 Q94 664 117 687 Q140 710 173 710 Q206 710 229 687 Q252 664 252 631 Q252 598 229 575 Q206 552 173 552 Q140 552 117 575 Q94 598 94 631 Z M300 631 Q300 664 323 687 Q346 710 379 710 Q412 710 435 687 Q458 664 458 631 Q458 598 435 575 Q412 552 379 552 Q346 552 323 575 Q300 598 300 631 Z " />
<glyph glyph-name="Utilde" unicode="&#x168;" horiz-adv-x="688" d="M494 700 L614 700 L614 254 Q614 196 595 147.5 Q576 99 541 63.5 Q506 28 456 8 Q406 -12 344 -12 Q282 -12 232 8 Q182 28 147 63.5 Q112 99 93 147.5 Q74 196 74 254 L74 700 L194 700 L194 269 Q194 194 231.5 148 Q269 102 344 102 Q419 102 456.5 148 Q494 194 494 269 L494 700 Z M140 836 Q152 865 170 888 Q186 908 211 924 Q236 940 274 940 Q296 940 315 931 Q334 922 350.5 911 Q367 900 382 891 Q397 882 411 882 Q427 882 437.5 892 Q448 902 454 914 Q461 928 465 947 L547 882 Q536 852 518 829 Q503 809 478 792.5 Q453 776 417 776 Q395 776 376.5 785 Q358 794 341 804.5 Q324 815 309 824 Q294 833 280 833 Q263 833 253 824 Q243 815 236 804 Q228 791 224 775 L140 836 Z " />
<glyph glyph-name="utilde" unicode="&#x169;" horiz-adv-x="548" d="M234 -12 Q200 -12 168.5 0 Q137 12 113 35 Q89 58 74.5 91 Q60 124 60 167 L60 474 L180 474 L180 200 Q180 147 204 123.5 Q228 100 274 100 Q297 100 314.5 109 Q332 118 344 129 Q358 141 368 158 L368 474 L488 474 L488 0 L376 0 L376 69 Q361 46 341 28 Q324 13 297 0.5 Q270 -12 234 -12 Z M71 615 Q83 644 101 667 Q117 687 142 703 Q167 719 205 719 Q227 719 246 710 Q265 701 281.5 690 Q298 679 313 670 Q328 661 342 661 Q358 661 368.5 671 Q379 681 385 693 Q392 707 396 726 L478 661 Q467 631 449 608 Q434 588 409 571.5 Q384 555 348 555 Q326 555 307.5 564 Q289 573 272 583.5 Q255 594 240 603 Q225 612 211 612 Q194 612 184 603 Q174 594 167 583 Q159 570 155 554 L71 615 Z " />
<glyph glyph-name="Umacron" unicode="&#x16a;" horiz-adv-x="688" d="M494 700 L614 700 L614 254 Q614 196 595 147.5 Q576 99 541 63.5 Q506 28 456 8 Q406 -12 344 -12 Q282 -12 232 8 Q182 28 147 63.5 Q112 99 93 147.5 Q74 196 74 254 L74 700 L194 700 L194 269 Q194 194 231.5 148 Q269 102 344 102 Q419 102 456.5 148 Q494 194 494 269 L494 700 Z M183 908 L505 908 L505 800 L183 800 L183 908 Z " />
<glyph glyph-name="umacron" unicode="&#x16b;" horiz-adv-x="548" d="M234 -12 Q200 -12 168.5 0 Q137 12 113 35 Q89 58 74.5 91 Q60 124 60 167 L60 474 L180 474 L180 200 Q180 147 204 123.5 Q228 100 274 100 Q297 100 314.5 109 Q332 118 344 129 Q358 141 368 158 L368 474 L488 474 L488 0 L376 0 L376 69 Q361 46 341 28 Q324 13 297 0.5 Q270 -12 234 -12 Z M115 685 L437 685 L437 577 L115 577 L115 685 Z " />
<glyph glyph-name="Ubreve" unicode="&#x16c;" horiz-adv-x="688" d="M494 700 L614 700 L614 254 Q614 196 595 147.5 Q576 99 541 63.5 Q506 28 456 8 Q406 -12 344 -12 Q282 -12 232 8 Q182 28 147 63.5 Q112 99 93 147.5 Q74 196 74 254 L74 700 L194 700 L194 269 Q194 194 231.5 148 Q269 102 344 102 Q419 102 456.5 148 Q494 194 494 269 L494 700 Z M270 918 Q270 898 278 882 Q285 868 299.5 857 Q314 846 341 846 Q368 846 382 857 Q396 868 403 882 Q411 898 412 918 L520 918 Q517 872 498 836 Q490 821 477 806 Q464 791 445 779.5 Q426 768 400.5 761 Q375 754 341 754 Q307 754 281.5 761 Q256 768 237 779.5 Q218 791 205 806 Q192 821 184 836 Q165 872 162 918 L270 918 Z " />
<glyph glyph-name="ubreve" unicode="&#x16d;" horiz-adv-x="548" d="M234 -12 Q200 -12 168.5 0 Q137 12 113 35 Q89 58 74.5 91 Q60 124 60 167 L60 474 L180 474 L180 200 Q180 147 204 123.5 Q228 100 274 100 Q297 100 314.5 109 Q332 118 344 129 Q358 141 368 158 L368 474 L488 474 L488 0 L376 0 L376 69 Q361 46 341 28 Q324 13 297 0.5 Q270 -12 234 -12 Z M199 700 Q199 680 207 664 Q214 650 228.5 639 Q243 628 270 628 Q297 628 311 639 Q325 650 332 664 Q340 680 341 700 L449 700 Q446 654 427 618 Q419 603 406 588 Q393 573 374 561.5 Q355 550 329.5 543 Q304 536 270 536 Q236 536 210.5 543 Q185 550 166 561.5 Q147 573 134 588 Q121 603 113 618 Q94 654 91 700 L199 700 Z " />
<glyph glyph-name="Uring" unicode="&#x16e;" horiz-adv-x="688" d="M494 700 L614 700 L614 254 Q614 196 595 147.5 Q576 99 541 63.5 Q506 28 456 8 Q406 -12 344 -12 Q282 -12 232 8 Q182 28 147 63.5 Q112 99 93 147.5 Q74 196 74 254 L74 700 L194 700 L194 269 Q194 194 231.5 148 Q269 102 344 102 Q419 102 456.5 148 Q494 194 494 269 L494 700 Z M222 850 Q222 875 232 896.5 Q242 918 258.5 934.5 Q275 951 297 960.5 Q319 970 344 970 Q369 970 391 960.5 Q413 951 429.5 934.5 Q446 918 456 896.5 Q466 875 466 850 Q466 825 456 803.5 Q446 782 429.5 765.5 Q413 749 391 739.5 Q369 730 344 730 Q319 730 297 739.5 Q275 749 258.5 765.5 Q242 782 232 803.5 Q222 825 222 850 Z M290 850 Q290 827 305.5 811.5 Q321 796 344 796 Q367 796 382.5 811.5 Q398 827 398 850 Q398 873 382.5 888.5 Q367 904 344 904 Q321 904 305.5 888.5 Q290 873 290 850 Z " />
<glyph glyph-name="uring" unicode="&#x16f;" horiz-adv-x="548" d="M234 -12 Q200 -12 168.5 0 Q137 12 113 35 Q89 58 74.5 91 Q60 124 60 167 L60 474 L180 474 L180 200 Q180 147 204 123.5 Q228 100 274 100 Q297 100 314.5 109 Q332 118 344 129 Q358 141 368 158 L368 474 L488 474 L488 0 L376 0 L376 69 Q361 46 341 28 Q324 13 297 0.5 Q270 -12 234 -12 Z M152 648 Q152 673 162 694.5 Q172 716 188.5 732.5 Q205 749 227 758.5 Q249 768 274 768 Q299 768 321 758.5 Q343 749 359.5 732.5 Q376 716 386 694.5 Q396 673 396 648 Q396 623 386 601.5 Q376 580 359.5 563.5 Q343 547 321 537.5 Q299 528 274 528 Q249 528 227 537.5 Q205 547 188.5 563.5 Q172 580 162 601.5 Q152 623 152 648 Z M220 648 Q220 625 235.5 609.5 Q251 594 274 594 Q297 594 312.5 609.5 Q328 625 328 648 Q328 671 312.5 686.5 Q297 702 274 702 Q251 702 235.5 686.5 Q220 671 220 648 Z " />
<glyph glyph-name="Uhungarumlaut" unicode="&#x170;" horiz-adv-x="688" d="M494 700 L614 700 L614 254 Q614 196 595 147.5 Q576 99 541 63.5 Q506 28 456 8 Q406 -12 344 -12 Q282 -12 232 8 Q182 28 147 63.5 Q112 99 93 147.5 Q74 196 74 254 L74 700 L194 700 L194 269 Q194 194 231.5 148 Q269 102 344 102 Q419 102 456.5 148 Q494 194 494 269 L494 700 Z M396 929 L268 752 L192 799 L312 983 L396 929 Z M565 929 L437 752 L361 799 L481 983 L565 929 Z " />
<glyph glyph-name="uhungarumlaut" unicode="&#x171;" horiz-adv-x="548" d="M234 -12 Q200 -12 168.5 0 Q137 12 113 35 Q89 58 74.5 91 Q60 124 60 167 L60 474 L180 474 L180 200 Q180 147 204 123.5 Q228 100 274 100 Q297 100 314.5 109 Q332 118 344 129 Q358 141 368 158 L368 474 L488 474 L488 0 L376 0 L376 69 Q361 46 341 28 Q324 13 297 0.5 Q270 -12 234 -12 Z M329 691 L201 514 L125 561 L245 745 L329 691 Z M498 691 L370 514 L294 561 L414 745 L498 691 Z " />
<glyph glyph-name="Uogonek" unicode="&#x172;" horiz-adv-x="688" d="M494 700 L614 700 L614 254 Q614 207 601.5 166 Q589 125 565 92 Q541 59 507 35.5 Q473 12 430 0 Q427 -1 413 -7 Q399 -13 383.5 -23 Q368 -33 355.5 -47.5 Q343 -62 343 -80 Q343 -101 356.5 -114 Q370 -127 394 -127 Q410 -127 421 -124 Q427 -122 432 -120 L432 -215 Q420 -219 408 -221 Q396 -223 381 -223 Q350 -223 326 -213 Q302 -203 285 -187 Q268 -171 259 -150.5 Q250 -130 250 -109 Q250 -89 255.5 -73 Q261 -57 269 -44.5 Q277 -32 286.5 -23.5 Q296 -15 304 -9 Q251 -3 208.5 19 Q166 41 136 75.5 Q106 110 90 155.5 Q74 201 74 254 L74 700 L194 700 L194 269 Q194 194 231.5 148 Q269 102 344 102 Q419 102 456.5 148 Q494 194 494 269 L494 700 Z " />
<glyph glyph-name="uogonek" unicode="&#x173;" horiz-adv-x="548" d="M234 -12 Q200 -12 168.5 0 Q137 12 113 35 Q89 58 74.5 91 Q60 124 60 167 L60 474 L180 474 L180 200 Q180 147 204 123.5 Q228 100 274 100 Q297 100 314.5 109 Q332 118 344 129 Q358 141 368 158 L368 474 L488 474 L488 0 L487 0 Q485 0 471.5 -5.5 Q458 -11 441.5 -20.5 Q425 -30 412 -44.5 Q399 -59 399 -78 Q399 -99 412.5 -113 Q426 -127 450 -127 Q466 -127 477 -124 Q483 -122 488 -120 L488 -215 Q476 -219 464 -221 Q452 -223 437 -223 Q406 -223 382 -213 Q358 -203 341 -186.5 Q324 -170 315 -149 Q306 -128 306 -107 Q306 -78 316 -56.5 Q326 -35 338.5 -21 Q351 -7 362.5 0.5 Q374 8 376 9 L376 69 Q361 46 341 28 Q324 13 297 0.5 Q270 -12 234 -12 Z " />
<glyph glyph-name="Wgrave" unicode="&#x1e80;" horiz-adv-x="983" d="M703 -24 L493 501 L280 -24 L4 700 L140 700 L288 280 L447 700 L546 700 L702 280 L854 700 L979 700 L703 -24 Z M428 992 L599 818 L522 745 L347 913 L428 992 Z " />
<glyph glyph-name="wgrave" unicode="&#x1e81;" horiz-adv-x="768" d="M138 474 L236 231 L339 474 L440 474 L540 231 L642 474 L764 474 L535 -24 L383 314 L233 -24 L4 474 L138 474 Z M320 773 L491 599 L414 526 L239 694 L320 773 Z " />
<glyph glyph-name="Wacute" unicode="&#x1e82;" horiz-adv-x="983" d="M703 -24 L493 501 L280 -24 L4 700 L140 700 L288 280 L447 700 L546 700 L702 280 L854 700 L979 700 L703 -24 Z M643 912 L468 744 L391 817 L562 991 L643 912 Z " />
<glyph glyph-name="wacute" unicode="&#x1e83;" horiz-adv-x="768" d="M138 474 L236 231 L339 474 L440 474 L540 231 L642 474 L764 474 L535 -24 L383 314 L233 -24 L4 474 L138 474 Z M548 694 L373 526 L296 599 L467 773 L548 694 Z " />
<glyph glyph-name="Wcircumflex" unicode="&#x174;" horiz-adv-x="983" d="M703 -24 L493 501 L280 -24 L4 700 L140 700 L288 280 L447 700 L546 700 L702 280 L854 700 L979 700 L703 -24 Z M491 958 L677 824 L611 742 L491 833 L369 742 L305 824 L491 958 Z " />
<glyph glyph-name="wcircumflex" unicode="&#x175;" horiz-adv-x="768" d="M138 474 L236 231 L339 474 L440 474 L540 231 L642 474 L764 474 L535 -24 L383 314 L233 -24 L4 474 L138 474 Z M389 740 L575 606 L509 524 L389 615 L267 524 L203 606 L389 740 Z " />
<glyph glyph-name="Ygrave" unicode="&#x1ef2;" horiz-adv-x="614" d="M367 0 L247 0 L247 276 L8 700 L140 700 L311 387 L482 700 L606 700 L367 276 L367 0 Z M221 972 L392 798 L315 725 L140 893 L221 972 Z " />
<glyph glyph-name="ygrave" unicode="&#x1ef3;" horiz-adv-x="557" d="M76 -99 Q85 -108 96 -115 Q105 -121 116 -125.5 Q127 -130 139 -130 Q154 -130 165.5 -127 Q177 -124 186 -116.5 Q195 -109 203 -95.5 Q211 -82 220 -60 L239 -11 L8 474 L141 474 L301 127 L426 474 L555 474 L325 -106 Q294 -184 247 -213 Q200 -242 147 -242 Q120 -242 96.5 -234.5 Q73 -227 56 -217 Q36 -206 20 -192 L76 -99 Z M207 774 L378 600 L301 527 L126 695 L207 774 Z " />
<glyph glyph-name="Yacute" unicode="&#xdd;" horiz-adv-x="614" d="M367 0 L247 0 L247 276 L8 700 L140 700 L311 387 L482 700 L606 700 L367 276 L367 0 Z M467 912 L292 744 L215 817 L386 991 L467 912 Z " />
<glyph glyph-name="yacute" unicode="&#xfd;" horiz-adv-x="557" d="M444 694 L269 526 L192 599 L363 773 L444 694 Z M76 -99 Q85 -108 96 -115 Q105 -121 116 -125.5 Q127 -130 139 -130 Q154 -130 165.5 -127 Q177 -124 186 -116.5 Q195 -109 203 -95.5 Q211 -82 220 -60 L239 -11 L8 474 L141 474 L301 127 L426 474 L555 474 L325 -106 Q294 -184 247 -213 Q200 -242 147 -242 Q120 -242 96.5 -234.5 Q73 -227 56 -217 Q36 -206 20 -192 L76 -99 Z " />
<glyph glyph-name="Ycircumflex" unicode="&#x176;" horiz-adv-x="614" d="M367 0 L247 0 L247 276 L8 700 L140 700 L311 387 L482 700 L606 700 L367 276 L367 0 Z M307 958 L493 824 L427 742 L307 833 L185 742 L121 824 L307 958 Z " />
<glyph glyph-name="ycircumflex" unicode="&#x177;" horiz-adv-x="557" d="M76 -99 Q85 -108 96 -115 Q105 -121 116 -125.5 Q127 -130 139 -130 Q154 -130 165.5 -127 Q177 -124 186 -116.5 Q195 -109 203 -95.5 Q211 -82 220 -60 L239 -11 L8 474 L141 474 L301 127 L426 474 L555 474 L325 -106 Q294 -184 247 -213 Q200 -242 147 -242 Q120 -242 96.5 -234.5 Q73 -227 56 -217 Q36 -206 20 -192 L76 -99 Z M284 739 L470 605 L404 523 L284 614 L162 523 L98 605 L284 739 Z " />
<glyph glyph-name="Ydieresis" unicode="&#x178;" horiz-adv-x="614" d="M367 0 L247 0 L247 276 L8 700 L140 700 L311 387 L482 700 L606 700 L367 276 L367 0 Z M125 851 Q125 884 148 907 Q171 930 204 930 Q237 930 260 907 Q283 884 283 851 Q283 818 260 795 Q237 772 204 772 Q171 772 148 795 Q125 818 125 851 Z M331 851 Q331 884 354 907 Q377 930 410 930 Q443 930 466 907 Q489 884 489 851 Q489 818 466 795 Q443 772 410 772 Q377 772 354 795 Q331 818 331 851 Z " />
<glyph glyph-name="ydieresis" unicode="&#xff;" horiz-adv-x="557" d="M76 -99 Q85 -108 96 -115 Q105 -121 116 -125.5 Q127 -130 139 -130 Q154 -130 165.5 -127 Q177 -124 186 -116.5 Q195 -109 203 -95.5 Q211 -82 220 -60 L239 -11 L8 474 L141 474 L301 127 L426 474 L555 474 L325 -106 Q294 -184 247 -213 Q200 -242 147 -242 Q120 -242 96.5 -234.5 Q73 -227 56 -217 Q36 -206 20 -192 L76 -99 Z M106 631 Q106 664 129 687 Q152 710 185 710 Q218 710 241 687 Q264 664 264 631 Q264 598 241 575 Q218 552 185 552 Q152 552 129 575 Q106 598 106 631 Z M312 631 Q312 664 335 687 Q358 710 391 710 Q424 710 447 687 Q470 664 470 631 Q470 598 447 575 Q424 552 391 552 Q358 552 335 575 Q312 598 312 631 Z " />
<glyph glyph-name="Zacute" unicode="&#x179;" horiz-adv-x="597" d="M583 700 L219 114 L563 114 L563 0 L14 0 L380 586 L48 586 L48 700 L583 700 Z M460 919 L285 751 L208 824 L379 998 L460 919 Z " />
<glyph glyph-name="zacute" unicode="&#x17a;" horiz-adv-x="495" d="M469 474 L234 112 L458 112 L458 0 L30 0 L265 362 L47 362 L47 474 L469 474 Z M393 694 L218 526 L141 599 L312 773 L393 694 Z " />
<glyph glyph-name="Zdotaccent" unicode="&#x17b;" horiz-adv-x="597" d="M583 700 L219 114 L563 114 L563 0 L14 0 L380 586 L48 586 L48 700 L583 700 Z M220 841 Q220 874 243 897 Q266 920 299 920 Q332 920 355 897 Q378 874 378 841 Q378 808 355 785 Q332 762 299 762 Q266 762 243 785 Q220 808 220 841 Z " />
<glyph glyph-name="zdotaccent" unicode="&#x17c;" horiz-adv-x="495" d="M469 474 L234 112 L458 112 L458 0 L30 0 L265 362 L47 362 L47 474 L469 474 Z M172 627 Q172 660 195 683 Q218 706 251 706 Q284 706 307 683 Q330 660 330 627 Q330 594 307 571 Q284 548 251 548 Q218 548 195 571 Q172 594 172 627 Z " />
<glyph glyph-name="Zcaron" unicode="&#x17d;" horiz-adv-x="597" d="M583 700 L219 114 L563 114 L563 0 L14 0 L380 586 L48 586 L48 700 L583 700 Z M133 880 L199 962 L319 871 L439 962 L505 880 L319 746 L133 880 Z " />
<glyph glyph-name="zcaron" unicode="&#x17e;" horiz-adv-x="495" d="M469 474 L234 112 L458 112 L458 0 L30 0 L265 362 L47 362 L47 474 L469 474 Z M74 660 L140 742 L260 651 L380 742 L446 660 L260 526 L74 660 Z " />
<glyph glyph-name="Thorn" unicode="&#xde;" horiz-adv-x="545" d="M74 700 L194 700 L194 589 L280 589 Q331 589 376 576 Q421 563 454.5 536.5 Q488 510 507.5 470 Q527 430 527 375 Q527 320 507.5 280 Q488 240 454.5 213.5 Q421 187 376 174 Q331 161 280 161 L194 161 L194 0 L74 0 L74 700 Z M265 273 Q295 273 320.5 277.5 Q346 282 365.5 293.5 Q385 305 396 324.5 Q407 344 407 375 Q407 406 396 425.5 Q385 445 365.5 456.5 Q346 468 320.5 472.5 Q295 477 265 477 L194 477 L194 273 L265 273 Z " />
<glyph glyph-name="thorn" unicode="&#xfe;" horiz-adv-x="583" d="M194 756 L194 424 Q200 431 211 442 Q222 453 238.5 462.5 Q255 472 277.5 479 Q300 486 328 486 Q374 486 416 467.5 Q458 449 489.5 416 Q521 383 540 337.5 Q559 292 559 237 Q559 182 540 136.5 Q521 91 489.5 58 Q458 25 416 6.5 Q374 -12 328 -12 Q300 -12 277.5 -5.5 Q255 1 238.5 11 Q222 21 211 31 Q200 41 194 49 L194 -230 L74 -230 L74 756 L194 756 Z M194 166 Q205 147 221 133 Q235 120 256 110 Q277 100 307 100 Q337 100 361.5 110.5 Q386 121 402.5 139.5 Q419 158 428 183 Q437 208 437 237 Q437 266 428 291 Q419 316 402.5 334.5 Q386 353 361.5 363.5 Q337 374 307 374 Q277 374 256 363.5 Q235 353 221 341 Q205 326 194 308 L194 166 Z " />
<glyph glyph-name="longs" unicode="&#x17f;" horiz-adv-x="342" d="M16 474 L109 474 L109 588 Q109 637 124.5 671.5 Q140 706 165 727.5 Q190 749 220 758.5 Q250 768 279 768 Q304 768 323 764 Q342 760 356 755 Q372 750 384 743 L339 644 Q334 647 327 651 Q321 653 311.5 655.5 Q302 658 291 658 Q282 658 271.5 655 Q261 652 251.5 644 Q242 636 235.5 622 Q229 608 229 585 L229 0 L109 0 L109 364 L16 364 L16 474 Z " />
<glyph glyph-name="zerosuperior" unicode="&#x2070;" horiz-adv-x="386" d="M193 806 Q232 806 262 790.5 Q292 775 313 747 Q334 719 345 681 Q356 643 356 598 Q356 553 345 514.5 Q334 476 313 448 Q292 420 262 404 Q232 388 193 388 Q154 388 124 404 Q94 420 73 448 Q52 476 41 514.5 Q30 553 30 598 Q30 643 41 681 Q52 719 73 747 Q94 775 124 790.5 Q154 806 193 806 Z M193 473 Q214 473 228 484 Q242 495 250 513 Q258 531 261.5 553 Q265 575 265 598 Q265 620 261.5 642.5 Q258 665 250 682.5 Q242 700 228 711 Q214 722 193 722 Q172 722 158 711 Q144 700 135.5 682.5 Q127 665 124 642.5 Q121 620 121 598 Q121 575 124 553 Q127 531 135.5 513 Q144 495 158 484 Q172 473 193 473 Z " />
<glyph glyph-name="onesuperior" unicode="&#xb9;" horiz-adv-x="323" d="M166 800 L251 800 L251 394 L158 394 L158 683 L61 603 L8 669 L166 800 Z " />
<glyph glyph-name="twosuperior" unicode="&#xb2;" horiz-adv-x="362" d="M184 578 Q190 585 198 595 Q206 605 213.5 616 Q221 627 226 639 Q231 651 231 664 Q231 689 214 705 Q197 721 168 721 Q148 721 135.5 711.5 Q123 702 115 691 Q106 678 101 662 L22 689 Q32 721 51 747 Q68 769 96 787.5 Q124 806 168 806 Q207 806 236 793.5 Q265 781 284 761 Q303 741 312.5 716 Q322 691 322 666 Q322 636 310 611 Q298 586 290 576 L215 476 L326 476 L326 394 L32 394 L184 578 Z " />
<glyph glyph-name="threesuperior" unicode="&#xb3;" horiz-adv-x="368" d="M235 680 Q235 700 220 712.5 Q205 725 176 725 Q157 725 144 718 Q131 711 123 703 Q113 693 107 682 L37 720 Q50 744 69 763 Q86 779 112 792.5 Q138 806 176 806 Q206 806 233.5 798 Q261 790 281 774 Q301 758 313 734.5 Q325 711 325 680 Q325 659 317.5 645 Q310 631 301 622 Q290 611 278 606 Q293 599 305 587 Q315 576 323.5 559 Q332 542 332 515 Q332 483 319 459.5 Q306 436 284.5 420 Q263 404 235.5 396 Q208 388 178 388 Q134 388 106 403 Q78 418 61 436 Q41 457 30 484 L104 525 Q109 509 119 497 Q127 486 141.5 477.5 Q156 469 178 469 Q211 469 226.5 483 Q242 497 242 515 Q242 564 175 564 L153 564 L153 634 L168 634 Q192 634 213.5 644 Q235 654 235 680 Z " />
<glyph glyph-name="foursuperior" unicode="&#x2074;" horiz-adv-x="386" d="M212 800 L310 800 L310 550 L360 550 L360 472 L310 472 L310 394 L224 394 L224 472 L4 472 L212 800 Z M224 550 L224 684 L140 550 L224 550 Z " />
<glyph glyph-name="fivesuperior" unicode="&#x2075;" horiz-adv-x="383" d="M345 530 Q345 496 331.5 469.5 Q318 443 296 425 Q274 407 246 397.5 Q218 388 190 388 Q146 388 118 402 Q90 416 73 433 Q53 452 42 478 L111 524 Q117 509 128 498 Q137 488 152 480 Q167 472 190 472 Q222 472 238.5 489 Q255 506 255 530 Q255 557 236 575 Q217 593 176 593 Q154 593 134.5 588 Q115 583 99 578 Q81 572 64 564 L64 800 L339 800 L339 716 L154 716 L154 662 Q159 663 167 664 Q173 665 182.5 665.5 Q192 666 203 666 Q230 666 255.5 658 Q281 650 301 633.5 Q321 617 333 591 Q345 565 345 530 Z " />
<glyph glyph-name="sixsuperior" unicode="&#x2076;" horiz-adv-x="355" d="M183 666 Q215 666 242.5 654.5 Q270 643 289.5 624 Q309 605 320 580.5 Q331 556 331 529 Q331 503 320.5 477.5 Q310 452 290.5 432 Q271 412 242.5 400 Q214 388 178 388 Q143 388 115 400 Q87 412 67.5 432 Q48 452 38 477 Q28 502 28 528 Q28 555 37 575.5 Q46 596 54 611 Q55 613 61 623.5 Q67 634 76.5 650 Q86 666 97.5 685 Q109 704 121 724 Q148 771 183 829 L255 783 L183 666 Z M178 587 Q152 587 133 571.5 Q114 556 114 529 Q114 502 133 486.5 Q152 471 178 471 Q203 471 222 486.5 Q241 502 241 529 Q241 556 222 571.5 Q203 587 178 587 Z " />
<glyph glyph-name="sevensuperior" unicode="&#x2077;" horiz-adv-x="333" d="M16 800 L329 800 L110 377 L34 418 L191 716 L16 716 L16 800 Z " />
<glyph glyph-name="eightsuperior" unicode="&#x2078;" horiz-adv-x="368" d="M184 806 Q250 806 288.5 772.5 Q327 739 327 685 Q327 664 319 649 Q311 634 302 624 Q291 613 278 604 Q294 597 307 585 Q318 574 327 556.5 Q336 539 336 513 Q336 460 295.5 424 Q255 388 184 388 Q113 388 72.5 424 Q32 460 32 513 Q32 539 41 556.5 Q50 574 61 585 Q73 597 90 604 Q76 612 65 624 Q56 634 48.5 649.5 Q41 665 41 686 Q41 740 79.5 773 Q118 806 184 806 Z M184 468 Q213 468 229.5 481 Q246 494 246 515 Q246 536 229.5 549 Q213 562 184 562 Q155 562 138.5 549.5 Q122 537 122 515 Q122 494 138.5 481 Q155 468 184 468 Z M131 683 Q131 660 147 650 Q163 640 184 640 Q205 640 221 650 Q237 660 237 683 Q237 706 221 716 Q205 726 184 726 Q163 726 147 716 Q131 706 131 683 Z " />
<glyph glyph-name="ninesuperior" unicode="&#x2079;" horiz-adv-x="355" d="M172 526 Q140 526 112.5 537.5 Q85 549 65.5 568.5 Q46 588 35 613 Q24 638 24 665 Q24 691 34.5 716.5 Q45 742 64.5 762 Q84 782 112.5 794 Q141 806 177 806 Q212 806 240 794 Q268 782 287.5 762 Q307 742 317 717 Q327 692 327 666 Q327 639 318 618.5 Q309 598 301 583 Q300 581 294 570.5 Q288 560 279 545 Q270 530 259 511.5 Q248 493 237 474 Q211 429 178 375 L106 421 L172 526 Z M177 607 Q203 607 222 622.5 Q241 638 241 665 Q241 692 222 707.5 Q203 723 177 723 Q152 723 133 707.5 Q114 692 114 665 Q114 638 133 622.5 Q152 607 177 607 Z " />
<glyph glyph-name="zeroinferior" unicode="&#x2080;" horiz-adv-x="386" d="M193 319 Q232 319 262 303.5 Q292 288 313 260 Q334 232 345 194 Q356 156 356 111 Q356 66 345 27.5 Q334 -11 313 -39 Q292 -67 262 -83 Q232 -99 193 -99 Q154 -99 124 -83 Q94 -67 73 -39 Q52 -11 41 27.5 Q30 66 30 111 Q30 156 41 194 Q52 232 73 260 Q94 288 124 303.5 Q154 319 193 319 Z M193 -14 Q214 -14 228 -3 Q242 8 250 26 Q258 44 261.5 66 Q265 88 265 111 Q265 133 261.5 155.5 Q258 178 250 195.5 Q242 213 228 224 Q214 235 193 235 Q172 235 158 224 Q144 213 135.5 195.5 Q127 178 124 155.5 Q121 133 121 111 Q121 88 124 66 Q127 44 135.5 26 Q144 8 158 -3 Q172 -14 193 -14 Z " />
<glyph glyph-name="oneinferior" unicode="&#x2081;" horiz-adv-x="323" d="M166 313 L251 313 L251 -93 L158 -93 L158 196 L61 116 L8 182 L166 313 Z " />
<glyph glyph-name="twoinferior" unicode="&#x2082;" horiz-adv-x="362" d="M184 91 Q190 98 198 108 Q206 118 213.5 129 Q221 140 226 152 Q231 164 231 177 Q231 202 214 218 Q197 234 168 234 Q148 234 135.5 224.5 Q123 215 115 204 Q106 191 101 175 L22 202 Q32 234 51 260 Q68 282 96 300.5 Q124 319 168 319 Q207 319 236 306.5 Q265 294 284 274 Q303 254 312.5 229 Q322 204 322 179 Q322 149 310 124 Q298 99 290 89 L215 -11 L326 -11 L326 -93 L32 -93 L184 91 Z " />
<glyph glyph-name="threeinferior" unicode="&#x2083;" horiz-adv-x="368" d="M235 193 Q235 213 220 225.5 Q205 238 176 238 Q157 238 144 231 Q131 224 123 216 Q113 206 107 195 L37 233 Q50 257 69 276 Q86 292 112 305.5 Q138 319 176 319 Q206 319 233.5 311 Q261 303 281 287 Q301 271 313 247.5 Q325 224 325 193 Q325 172 317.5 158 Q310 144 301 135 Q290 124 278 119 Q293 112 305 100 Q315 89 323.5 72 Q332 55 332 28 Q332 -4 319 -27.5 Q306 -51 284.5 -67 Q263 -83 235.5 -91 Q208 -99 178 -99 Q134 -99 106 -84 Q78 -69 61 -51 Q41 -30 30 -3 L104 38 Q109 22 119 10 Q127 -1 141.5 -9.5 Q156 -18 178 -18 Q211 -18 226.5 -4 Q242 10 242 28 Q242 77 175 77 L153 77 L153 147 L168 147 Q192 147 213.5 157 Q235 167 235 193 Z " />
<glyph glyph-name="fourinferior" unicode="&#x2084;" horiz-adv-x="386" d="M212 313 L310 313 L310 63 L360 63 L360 -15 L310 -15 L310 -93 L224 -93 L224 -15 L4 -15 L212 313 Z M224 63 L224 197 L140 63 L224 63 Z " />
<glyph glyph-name="fiveinferior" unicode="&#x2085;" horiz-adv-x="383" d="M345 43 Q345 9 331.5 -17.5 Q318 -44 296 -62 Q274 -80 246 -89.5 Q218 -99 190 -99 Q146 -99 118 -85 Q90 -71 73 -54 Q53 -35 42 -9 L111 37 Q117 22 128 11 Q137 1 152 -7 Q167 -15 190 -15 Q222 -15 238.5 2 Q255 19 255 43 Q255 70 236 88 Q217 106 176 106 Q154 106 134.5 101 Q115 96 99 91 Q81 85 64 77 L64 313 L339 313 L339 229 L154 229 L154 175 Q159 176 167 177 Q173 178 182.5 178.5 Q192 179 203 179 Q230 179 255.5 171 Q281 163 301 146.5 Q321 130 333 104 Q345 78 345 43 Z " />
<glyph glyph-name="sixinferior" unicode="&#x2086;" horiz-adv-x="355" d="M183 179 Q215 179 242.5 167.5 Q270 156 289.5 137 Q309 118 320 93.5 Q331 69 331 42 Q331 16 320.5 -9.5 Q310 -35 290.5 -55 Q271 -75 242.5 -87 Q214 -99 178 -99 Q143 -99 115 -87 Q87 -75 67.5 -55 Q48 -35 38 -10 Q28 15 28 41 Q28 68 37 88.5 Q46 109 54 124 Q55 126 61 136.5 Q67 147 76.5 163 Q86 179 97.5 198 Q109 217 121 237 Q148 284 183 342 L255 296 L183 179 Z M178 100 Q152 100 133 84.5 Q114 69 114 42 Q114 15 133 -0.5 Q152 -16 178 -16 Q203 -16 222 -0.5 Q241 15 241 42 Q241 69 222 84.5 Q203 100 178 100 Z " />
<glyph glyph-name="seveninferior" unicode="&#x2087;" horiz-adv-x="333" d="M16 313 L329 313 L110 -110 L34 -69 L191 229 L16 229 L16 313 Z " />
<glyph glyph-name="eightinferior" unicode="&#x2088;" horiz-adv-x="368" d="M184 319 Q250 319 288.5 285.5 Q327 252 327 198 Q327 177 319 162 Q311 147 302 137 Q291 126 278 117 Q294 110 307 98 Q318 87 327 69.5 Q336 52 336 26 Q336 -27 295.5 -63 Q255 -99 184 -99 Q113 -99 72.5 -63 Q32 -27 32 26 Q32 52 41 69.5 Q50 87 61 98 Q73 110 90 117 Q76 125 65 137 Q56 147 48.5 162.5 Q41 178 41 199 Q41 253 79.5 286 Q118 319 184 319 Z M184 -19 Q213 -19 229.5 -6 Q246 7 246 28 Q246 49 229.5 62 Q213 75 184 75 Q155 75 138.5 62.5 Q122 50 122 28 Q122 7 138.5 -6 Q155 -19 184 -19 Z M131 196 Q131 173 147 163 Q163 153 184 153 Q205 153 221 163 Q237 173 237 196 Q237 219 221 229 Q205 239 184 239 Q163 239 147 229 Q131 219 131 196 Z " />
<glyph glyph-name="nineinferior" unicode="&#x2089;" horiz-adv-x="355" d="M172 39 Q140 39 112.5 50.5 Q85 62 65.5 81.5 Q46 101 35 126 Q24 151 24 178 Q24 204 34.5 229.5 Q45 255 64.5 275 Q84 295 112.5 307 Q141 319 177 319 Q212 319 240 307 Q268 295 287.5 275 Q307 255 317 230 Q327 205 327 179 Q327 152 318 131.5 Q309 111 301 96 Q300 94 294 83.5 Q288 73 279 58 Q270 43 259 24.5 Q248 6 237 -13 Q211 -58 178 -112 L106 -66 L172 39 Z M177 120 Q203 120 222 135.5 Q241 151 241 178 Q241 205 222 220.5 Q203 236 177 236 Q152 236 133 220.5 Q114 205 114 178 Q114 151 133 135.5 Q152 120 177 120 Z " />
<glyph glyph-name="zero.numerator" unicode="&#xf661;" horiz-adv-x="386" d="M193 706 Q232 706 262 690.5 Q292 675 313 647 Q334 619 345 581 Q356 543 356 498 Q356 453 345 414.5 Q334 376 313 348 Q292 320 262 304 Q232 288 193 288 Q154 288 124 304 Q94 320 73 348 Q52 376 41 414.5 Q30 453 30 498 Q30 543 41 581 Q52 619 73 647 Q94 675 124 690.5 Q154 706 193 706 Z M193 373 Q214 373 228 384 Q242 395 250 413 Q258 431 261.5 453 Q265 475 265 498 Q265 520 261.5 542.5 Q258 565 250 582.5 Q242 600 228 611 Q214 622 193 622 Q172 622 158 611 Q144 600 135.5 582.5 Q127 565 124 542.5 Q121 520 121 498 Q121 475 124 453 Q127 431 135.5 413 Q144 395 158 384 Q172 373 193 373 Z " />
<glyph glyph-name="one.numerator" unicode="&#xf662;" horiz-adv-x="323" d="M166 700 L251 700 L251 294 L158 294 L158 583 L61 503 L8 569 L166 700 Z " />
<glyph glyph-name="two.numerator" unicode="&#xf663;" horiz-adv-x="362" d="M184 478 Q190 485 198 495 Q206 505 213.5 516 Q221 527 226 539 Q231 551 231 564 Q231 589 214 605 Q197 621 168 621 Q148 621 135.5 611.5 Q123 602 115 591 Q106 578 101 562 L22 589 Q32 621 51 647 Q68 669 96 687.5 Q124 706 168 706 Q207 706 236 693.5 Q265 681 284 661 Q303 641 312.5 616 Q322 591 322 566 Q322 536 310 511 Q298 486 290 476 L215 376 L326 376 L326 294 L32 294 L184 478 Z " />
<glyph glyph-name="three.numerator" unicode="&#xf664;" horiz-adv-x="368" d="M235 580 Q235 600 220 612.5 Q205 625 176 625 Q157 625 144 618 Q131 611 123 603 Q113 593 107 582 L37 620 Q50 644 69 663 Q86 679 112 692.5 Q138 706 176 706 Q206 706 233.5 698 Q261 690 281 674 Q301 658 313 634.5 Q325 611 325 580 Q325 559 317.5 545 Q310 531 301 522 Q290 511 278 506 Q293 499 305 487 Q315 476 323.5 459 Q332 442 332 415 Q332 383 319 359.5 Q306 336 284.5 320 Q263 304 235.5 296 Q208 288 178 288 Q134 288 106 303 Q78 318 61 336 Q41 357 30 384 L104 425 Q109 409 119 397 Q127 386 141.5 377.5 Q156 369 178 369 Q211 369 226.5 383 Q242 397 242 415 Q242 464 175 464 L153 464 L153 534 L168 534 Q192 534 213.5 544 Q235 554 235 580 Z " />
<glyph glyph-name="four.numerator" unicode="&#xf665;" horiz-adv-x="386" d="M212 700 L310 700 L310 450 L360 450 L360 372 L310 372 L310 294 L224 294 L224 372 L4 372 L212 700 Z M224 450 L224 584 L140 450 L224 450 Z " />
<glyph glyph-name="five.numerator" unicode="&#xf666;" horiz-adv-x="383" d="M345 430 Q345 396 331.5 369.5 Q318 343 296 325 Q274 307 246 297.5 Q218 288 190 288 Q146 288 118 302 Q90 316 73 333 Q53 352 42 378 L111 424 Q117 409 128 398 Q137 388 152 380 Q167 372 190 372 Q222 372 238.5 389 Q255 406 255 430 Q255 457 236 475 Q217 493 176 493 Q154 493 134.5 488 Q115 483 99 478 Q81 472 64 464 L64 700 L339 700 L339 616 L154 616 L154 562 Q159 563 167 564 Q173 565 182.5 565.5 Q192 566 203 566 Q230 566 255.5 558 Q281 550 301 533.5 Q321 517 333 491 Q345 465 345 430 Z " />
<glyph glyph-name="six.numerator" unicode="&#xf667;" horiz-adv-x="355" d="M183 566 Q215 566 242.5 554.5 Q270 543 289.5 524 Q309 505 320 480.5 Q331 456 331 429 Q331 403 320.5 377.5 Q310 352 290.5 332 Q271 312 242.5 300 Q214 288 178 288 Q143 288 115 300 Q87 312 67.5 332 Q48 352 38 377 Q28 402 28 428 Q28 455 37 475.5 Q46 496 54 511 Q55 513 61 523.5 Q67 534 76.5 550 Q86 566 97.5 585 Q109 604 121 624 Q148 671 183 729 L255 683 L183 566 Z M178 487 Q152 487 133 471.5 Q114 456 114 429 Q114 402 133 386.5 Q152 371 178 371 Q203 371 222 386.5 Q241 402 241 429 Q241 456 222 471.5 Q203 487 178 487 Z " />
<glyph glyph-name="seven.numerator" unicode="&#xf668;" horiz-adv-x="333" d="M16 700 L329 700 L110 277 L34 318 L191 616 L16 616 L16 700 Z " />
<glyph glyph-name="eight.numerator" unicode="&#xf669;" horiz-adv-x="368" d="M184 706 Q250 706 288.5 672.5 Q327 639 327 585 Q327 564 319 549 Q311 534 302 524 Q291 513 278 504 Q294 497 307 485 Q318 474 327 456.5 Q336 439 336 413 Q336 360 295.5 324 Q255 288 184 288 Q113 288 72.5 324 Q32 360 32 413 Q32 439 41 456.5 Q50 474 61 485 Q73 497 90 504 Q76 512 65 524 Q56 534 48.5 549.5 Q41 565 41 586 Q41 640 79.5 673 Q118 706 184 706 Z M184 368 Q213 368 229.5 381 Q246 394 246 415 Q246 436 229.5 449 Q213 462 184 462 Q155 462 138.5 449.5 Q122 437 122 415 Q122 394 138.5 381 Q155 368 184 368 Z M131 583 Q131 560 147 550 Q163 540 184 540 Q205 540 221 550 Q237 560 237 583 Q237 606 221 616 Q205 626 184 626 Q163 626 147 616 Q131 606 131 583 Z " />
<glyph glyph-name="nine.numerator" unicode="&#xf66a;" horiz-adv-x="355" d="M172 426 Q140 426 112.5 437.5 Q85 449 65.5 468.5 Q46 488 35 513 Q24 538 24 565 Q24 591 34.5 616.5 Q45 642 64.5 662 Q84 682 112.5 694 Q141 706 177 706 Q212 706 240 694 Q268 682 287.5 662 Q307 642 317 617 Q327 592 327 566 Q327 539 318 518.5 Q309 498 301 483 Q300 481 294 470.5 Q288 460 279 445 Q270 430 259 411.5 Q248 393 237 374 Q211 329 178 275 L106 321 L172 426 Z M177 507 Q203 507 222 522.5 Q241 538 241 565 Q241 592 222 607.5 Q203 623 177 623 Q152 623 133 607.5 Q114 592 114 565 Q114 538 133 522.5 Q152 507 177 507 Z " />
<glyph glyph-name="fraction" unicode="&#x2044;" horiz-adv-x="168" d="M291 731 L348 692 L-123 -32 L-180 7 L291 731 Z " />
<glyph glyph-name="zero.denominator" unicode="&#xf655;" horiz-adv-x="386" d="M193 412 Q232 412 262 396.5 Q292 381 313 353 Q334 325 345 287 Q356 249 356 204 Q356 159 345 120.5 Q334 82 313 54 Q292 26 262 10 Q232 -6 193 -6 Q154 -6 124 10 Q94 26 73 54 Q52 82 41 120.5 Q30 159 30 204 Q30 249 41 287 Q52 325 73 353 Q94 381 124 396.5 Q154 412 193 412 Z M193 79 Q214 79 228 90 Q242 101 250 119 Q258 137 261.5 159 Q265 181 265 204 Q265 226 261.5 248.5 Q258 271 250 288.5 Q242 306 228 317 Q214 328 193 328 Q172 328 158 317 Q144 306 135.5 288.5 Q127 271 124 248.5 Q121 226 121 204 Q121 181 124 159 Q127 137 135.5 119 Q144 101 158 90 Q172 79 193 79 Z " />
<glyph glyph-name="one.denominator" unicode="&#xf656;" horiz-adv-x="323" d="M166 406 L251 406 L251 0 L158 0 L158 289 L61 209 L8 275 L166 406 Z " />
<glyph glyph-name="two.denominator" unicode="&#xf657;" horiz-adv-x="362" d="M184 184 Q190 191 198 201 Q206 211 213.5 222 Q221 233 226 245 Q231 257 231 270 Q231 295 214 311 Q197 327 168 327 Q148 327 135.5 317.5 Q123 308 115 297 Q106 284 101 268 L22 295 Q32 327 51 353 Q68 375 96 393.5 Q124 412 168 412 Q207 412 236 399.5 Q265 387 284 367 Q303 347 312.5 322 Q322 297 322 272 Q322 242 310 217 Q298 192 290 182 L215 82 L326 82 L326 0 L32 0 L184 184 Z " />
</font>
</svg>
