<svg width="78" height="34" viewBox="0 0 78 34" fill="none" xmlns="http://www.w3.org/2000/svg">
<path d="M72.9292 25.4227C71.4892 26.4222 69.9815 27.4173 67.4123 27.4173C63.6921 27.4173 62.2216 25.8361 62.2216 25.8361C62.2216 25.8361 66.0381 21.3219 66.0381 13.8902C66.0381 7.18021 63.749 0.0677992 58.6961 0.0677992C52.932 0.0677992 50.0171 7.06647 50.0171 12.2805C50.0171 19.137 51.433 22.9972 51.433 22.9972C51.433 22.9972 47.6056 27.1396 43.1676 25.473C43.1676 25.473 47.2357 21.0988 47.2357 13.5468C47.2357 8.99767 46.2225 0.0677992 39.9398 0.0677992C34.5214 0.0677992 31.624 6.20258 31.624 12.5342C31.6547 16.062 32.105 19.5735 32.9655 22.995C32.9655 22.995 29.23 27.6623 25.024 25.473C25.024 25.473 28.7704 20.7489 28.7704 13.5468C28.7704 9.91844 27.2714 0 20.9296 0C15.3974 0 12.6357 8.07035 12.6357 12.1077C12.6581 15.812 13.2788 19.4885 14.4739 22.995C8.51941 28.0253 6.64399 27.4873 3.4293 25.7836C2.54302 25.3155 1.37225 25.3155 0.608519 26.0766C-0.266822 26.9624 -0.201172 28.6705 0.827354 29.8428C4.48628 34.0179 11.8282 36.0388 19.8923 31.1179C28.7179 37.5435 37.5588 31.0194 37.5588 31.0194C37.5588 31.0194 46.5836 37.6551 56.8448 31.061C62.4098 35.2864 72.0473 34.9671 76.7588 29.8756C79.991 26.3828 76.2664 22.9163 72.9292 25.4227ZM19.2686 18.7018C19.2686 18.7018 18.4392 14.5266 18.4392 12.7595C18.4392 10.9923 18.7084 7.85601 20.4766 7.85601C21.6298 7.85601 22.7065 9.76534 22.7065 11.7622C22.7087 15.2943 19.2686 18.7018 19.2686 18.7018ZM38.3926 18.7018C38.3926 18.7018 37.5676 14.5266 37.5676 12.7595C37.5676 10.9923 37.8368 7.85601 39.6049 7.85601C40.756 7.85601 41.8327 9.76534 41.8327 11.7622C41.8327 15.2943 38.3926 18.7018 38.3926 18.7018ZM56.6478 18.7018C56.6478 18.7018 55.8228 14.5266 55.8228 12.7595C55.8228 10.9923 56.092 7.85601 57.858 7.85601C59.0113 7.85601 60.0879 9.76534 60.0879 11.7622C60.0879 15.2943 56.6478 18.7018 56.6478 18.7018Z" fill="#1A171B"/>
</svg>
