<svg width="101" height="44" viewBox="0 0 101 44" fill="none" xmlns="http://www.w3.org/2000/svg">
<path d="M94.3243 32.9C92.462 34.1934 90.5119 35.4812 87.189 35.4812C82.3774 35.4812 80.4755 33.4349 80.4755 33.4349C80.4755 33.4349 85.4116 27.5931 85.4116 17.9755C85.4116 9.29203 82.451 0.0877401 75.9158 0.0877401C68.4606 0.0877401 64.6906 9.14485 64.6906 15.8924C64.6906 24.7655 66.5218 29.7611 66.5218 29.7611C66.5218 29.7611 61.5716 35.1218 55.8316 32.9651C55.8316 32.9651 61.0932 27.3044 61.0932 17.5312C61.0932 11.644 59.7828 0.0877401 51.6569 0.0877401C44.6489 0.0877401 40.9015 8.02686 40.9015 16.2207C40.9412 20.7861 41.5237 25.3305 42.6366 29.7583C42.6366 29.7583 37.8051 35.7982 32.3652 32.9651C32.3652 32.9651 37.2108 26.8515 37.2108 17.5312C37.2108 12.8356 35.272 0 27.0696 0C19.9145 0 16.3426 10.444 16.3426 15.6688C16.3716 20.4626 17.1744 25.2204 18.7201 29.7583C11.0187 36.2681 8.59314 35.5718 4.43536 33.367C3.28907 32.7613 1.77483 32.7613 0.787039 33.7462C-0.3451 34.8925 -0.260189 37.103 1.07007 38.6201C5.80241 44.0232 15.2982 46.6385 25.7281 40.2702C37.1429 48.5857 48.5774 40.1428 48.5774 40.1428C48.5774 40.1428 60.2498 48.7301 73.5213 40.1966C80.7189 45.6648 93.1837 45.2516 99.2775 38.6625C103.458 34.1425 98.6406 29.6564 94.3243 32.9ZM24.9214 24.2023C24.9214 24.2023 23.8487 18.7992 23.8487 16.5122C23.8487 14.2253 24.1968 10.1666 26.4838 10.1666C27.9754 10.1666 29.3679 12.6375 29.3679 15.2216C29.3707 19.7926 24.9214 24.2023 24.9214 24.2023ZM49.6558 24.2023C49.6558 24.2023 48.5888 18.7992 48.5888 16.5122C48.5888 14.2253 48.9369 10.1666 51.2238 10.1666C52.7126 10.1666 54.1051 12.6375 54.1051 15.2216C54.1051 19.7926 49.6558 24.2023 49.6558 24.2023ZM73.2666 24.2023C73.2666 24.2023 72.1995 18.7992 72.1995 16.5122C72.1995 14.2253 72.5477 10.1666 74.8317 10.1666C76.3233 10.1666 77.7159 12.6375 77.7159 15.2216C77.7159 19.7926 73.2666 24.2023 73.2666 24.2023Z" fill="black"/>
</svg>
